<svg class="icon-svg icon-react" width="64" height="70" viewBox="0 0 64 70" fill="none" xmlns="http://www.w3.org/2000/svg">
  <path d="M32 40.7043C35.1504 40.7043 37.7043 38.1504 37.7043 35C37.7043 31.8495 35.1504 29.2956 32 29.2956C28.8496 29.2956 26.2956 31.8495 26.2956 35C26.2956 38.1504 28.8496 40.7043 32 40.7043Z" fill="#61DAFB"/>
  <path d="M32 46.6869C48.9047 46.6869 62.6087 41.4545 62.6087 35C62.6087 28.5454 48.9047 23.313 32 23.313C15.0953 23.313 1.3913 28.5454 1.3913 35C1.3913 41.4545 15.0953 46.6869 32 46.6869Z" stroke="#61DAFB" stroke-width="2.78261"/>
  <path d="M21.8788 40.8435C30.3312 55.4834 41.7146 64.7352 47.3043 61.5079C52.8941 58.2807 50.5736 43.7964 42.1212 29.1565C33.6688 14.5166 22.2854 5.26483 16.6956 8.4921C11.1059 11.7194 13.4264 26.2036 21.8788 40.8435Z" stroke="#61DAFB" stroke-width="2.78261"/>
  <path d="M21.8788 29.1565C13.4264 43.7964 11.1058 58.2806 16.6956 61.5078C22.2854 64.7351 33.6688 55.4833 42.1212 40.8434C50.5735 26.2035 52.8941 11.7193 47.3043 8.49203C41.7145 5.26477 30.3311 14.5165 21.8788 29.1565Z" stroke="#61DAFB" stroke-width="2.78261"/>
</svg>
