<svg class="icon-svg icon-link" width="14" height="16" viewBox="0 0 14 16" fill="var(--icon-color, var(--primary-900))" xmlns="http://www.w3.org/2000/svg">
<path d="M5.70169 13.6261L9.16391 10.1639C9.88095 9.44684 9.88095 8.28427 9.16391 7.56722C8.44686 6.85017 7.28429 6.85017 6.56724 7.56722L5.71867 8.4158C5.71867 8.4158 5.34709 8.42531 4.96599 7.79922C4.58489 7.17312 4.75342 6.78438 4.75342 6.78438L5.26891 6.26889C6.70301 4.83479 9.02814 4.83479 10.4622 6.26889C11.8963 7.70299 11.8963 10.0281 10.4622 11.4622L7.00002 14.9244C5.56592 16.3585 3.24079 16.3585 1.80669 14.9244C0.372591 13.4903 0.372591 11.1652 1.80669 9.73111L2.42634 9.11142C2.42634 9.11142 2.48979 9.30918 2.93798 9.82722C3.38618 10.3453 3.66344 10.471 3.66344 10.471L3.10502 11.0294C2.38797 11.7465 2.38797 12.9091 3.10502 13.6261C3.82207 14.3432 4.98464 14.3432 5.70169 13.6261Z" />
<path d="M8.29833 2.37391L4.83611 5.83613C4.11906 6.55317 4.11906 7.71574 4.83611 8.43279C5.55316 9.14984 6.71573 9.14984 7.43278 8.43279L8.29299 7.57257C8.29299 7.57257 8.56034 7.44187 9.06033 8.10357C9.56032 8.76527 9.37986 9.08237 9.37986 9.08237L8.73111 9.73112C7.29701 11.1652 4.97188 11.1652 3.53778 9.73112C2.10368 8.29702 2.10368 5.97189 3.53778 4.53779L7 1.07557C8.4341 -0.358524 10.7592 -0.358525 12.1933 1.07557C13.6274 2.50967 13.6274 4.83481 12.1933 6.2689L11.4883 6.97394C11.4883 6.97394 11.3329 6.63196 10.9635 6.20038C10.5941 5.7688 10.2833 5.58231 10.2833 5.58231L10.895 4.97057C11.612 4.25352 11.612 3.09095 10.895 2.37391C10.1779 1.65686 9.01538 1.65686 8.29833 2.37391Z" />
</svg>
