<svg class="icon-svg icon-sass" width="64" height="64" viewBox="0 0 64 64" fill="none" xmlns="http://www.w3.org/2000/svg">
<path d="M55.0793 35.5861C52.8425 35.598 50.9051 36.1349 49.281 36.9355C48.687 35.7499 48.0859 34.7071 47.9849 33.9317C47.8671 33.0264 47.7304 32.4864 47.8728 31.408C48.0152 30.3296 48.6391 28.8024 48.6299 28.688C48.6208 28.5736 48.49 28.0243 47.1998 28.015C45.9096 28.0057 44.806 28.2632 44.6761 28.6039C44.5462 28.9446 44.2978 29.7113 44.1433 30.5107C43.9172 31.6806 41.5674 35.8528 40.233 38.0356C39.7967 37.1837 39.4257 36.4325 39.3483 35.8385C39.2304 34.9332 39.0937 34.3932 39.2362 33.3147C39.3786 32.2364 40.0025 30.7091 39.9933 30.5947C39.9841 30.4803 39.8534 29.931 38.5632 29.9217C37.2729 29.9124 36.1694 30.1699 36.0395 30.5106C35.9096 30.8513 35.7709 31.6473 35.5066 32.4174C35.2422 33.1876 32.1185 40.1473 31.3004 41.9514C30.8836 42.8706 30.5208 43.6089 30.2647 44.1134C30.264 44.1121 30.2629 44.1106 30.2629 44.1106C30.2629 44.1106 30.2473 44.1441 30.22 44.2009C30.0007 44.6302 29.8703 44.8677 29.8703 44.8677C29.8703 44.8677 29.8717 44.871 29.8742 44.8766C29.7003 45.1918 29.514 45.4846 29.4217 45.4846C29.3572 45.4846 29.228 44.6453 29.4497 43.4937C29.9145 41.0793 31.0312 37.314 31.02 37.1844C31.0143 37.118 31.2276 36.4618 30.291 36.1189C29.3804 35.7856 29.0562 36.3415 28.973 36.3432C28.8925 36.345 28.8328 36.5396 28.8328 36.5396C28.8328 36.5396 29.8472 32.3054 26.898 32.3054C25.0542 32.3054 22.4993 34.3225 21.2407 36.1507C20.4466 36.5839 18.7468 37.5117 16.9435 38.5025C16.2509 38.883 15.5442 39.2719 14.874 39.6411C14.8284 39.5906 14.7831 39.5401 14.7361 39.49C11.1601 35.6747 4.5493 32.976 4.82983 27.8468C4.93183 25.9821 5.57992 21.0721 17.5324 15.1162C27.3235 10.2373 35.1617 11.5798 36.5163 14.5553C38.4512 18.8062 32.3271 26.707 22.1592 27.8468C18.2851 28.2811 16.2452 26.7796 15.7378 26.2204C15.2037 25.6317 15.124 25.6051 14.9246 25.7157C14.5997 25.8957 14.8057 26.4154 14.9246 26.7251C15.2283 27.5153 16.474 28.9163 18.598 29.6134C20.4664 30.2265 25.0148 30.5633 30.5154 28.4356C36.6762 26.0526 41.4869 19.4234 40.0739 13.8824C38.6369 8.24669 29.2926 6.39399 20.4487 9.53599C15.1854 11.4059 9.48744 14.3407 5.39065 18.1726C0.519572 22.7288 -0.257281 26.6945 0.0627373 28.3515C1.20003 34.2391 9.31499 38.0731 12.5645 40.9146C12.4041 41.0031 12.2537 41.0861 12.1169 41.1616C10.4877 41.9674 4.30184 45.2047 2.75456 48.6252C0.999541 52.505 3.03403 55.2887 4.38094 55.6635C8.55426 56.8246 12.8367 54.736 15.1382 51.3032C17.4392 47.8712 17.1582 43.4024 16.1021 41.3626C16.089 41.3372 16.0745 41.3124 16.061 41.2872C16.4817 41.0382 16.9107 40.785 17.3359 40.5353C18.1651 40.0485 18.9789 39.5942 19.6854 39.2098C19.2902 40.2927 19.0007 41.5909 18.8501 43.4655C18.6732 45.6679 19.5757 48.5147 20.7569 49.6347C21.2769 50.1277 21.9026 50.1393 22.2991 50.1393C23.6735 50.1393 24.3006 48.9959 24.9911 47.6436C25.838 45.9851 26.5894 44.0544 26.5894 44.0544C26.5894 44.0544 25.6463 49.27 28.2158 49.27C29.152 49.27 30.094 48.056 30.5133 47.4371C30.5145 47.4438 30.515 47.4475 30.515 47.4475C30.515 47.4475 30.5393 47.4072 30.5871 47.3263C30.6843 47.1777 30.7394 47.083 30.7394 47.083C30.7394 47.083 30.7412 47.0732 30.7443 47.0562C31.1206 46.4027 31.9553 44.9129 33.2071 42.4563C34.8244 39.2821 36.3756 35.3058 36.3756 35.3058C36.3756 35.3058 36.5199 36.2779 36.9925 37.8856C37.2706 38.8315 37.8613 39.8771 38.3274 40.8798C37.9522 41.4003 37.7216 41.6993 37.7216 41.6993C37.7216 41.6993 37.7238 41.7048 37.7279 41.7148C37.4281 42.1128 37.0919 42.5423 36.7403 42.961C35.4638 44.4814 33.9434 46.2174 33.7398 46.7185C33.4999 47.3089 33.5567 47.7433 34.0201 48.0925C34.3586 48.3478 34.9615 48.3873 35.5904 48.3449C36.7373 48.2678 37.5446 47.9833 37.9428 47.81C38.5636 47.5905 39.2864 47.2452 39.9649 46.7466C41.2171 45.826 41.9724 44.5091 41.8998 42.7647C41.8596 41.8033 41.553 40.8506 41.1653 39.951C41.2789 39.7877 41.3929 39.6228 41.5071 39.4559C43.4812 36.5701 45.0123 33.399 45.0123 33.399C45.0123 33.399 45.1565 34.3711 45.6293 35.9788C45.8684 36.7926 46.3403 37.6802 46.7647 38.5509C44.9086 40.059 43.7575 41.8113 43.3578 42.961C42.619 45.0871 43.1976 46.0506 44.2833 46.2699C44.7751 46.3693 45.4696 46.1439 45.992 45.9227C46.6421 45.7071 47.4233 45.3481 48.153 44.8117C49.4052 43.8912 50.6091 42.6022 50.5364 40.8578C50.5033 40.0637 50.2879 39.2755 49.9957 38.5184C51.5691 37.863 53.6061 37.4985 56.2006 37.8015C61.7669 38.4516 62.8587 41.927 62.65 43.3816C62.4413 44.8363 61.2738 45.6359 60.8833 45.8773C60.4931 46.1187 60.3741 46.2024 60.4068 46.382C60.4542 46.643 60.6347 46.633 60.9676 46.5769C61.4258 46.4996 63.8905 45.3937 63.996 42.7086C64.1303 39.2997 60.8643 35.5554 55.0793 35.5861ZM12.1754 50.0505C10.3317 52.0618 7.75591 52.822 6.65132 52.1816C5.45865 51.49 5.93102 48.5289 8.19358 46.3946C9.57261 45.0938 11.3529 43.8957 12.5339 43.1579C12.8026 42.9961 13.1975 42.7587 13.6774 42.4711C13.7569 42.4257 13.8018 42.4007 13.8018 42.4007L13.8 42.3977C13.8927 42.3422 13.9876 42.2855 14.0856 42.2268C14.9088 45.2648 14.1106 47.9395 12.1754 50.0505ZM25.6071 40.9194C24.9649 42.4848 23.6209 46.49 22.8029 46.2754C22.1008 46.0911 21.6731 43.0465 22.6627 40.0502C23.1608 38.5421 24.2249 36.7398 24.8499 36.0404C25.8563 34.9146 26.9642 34.5466 27.2334 35.003C27.5765 35.5844 26.0097 39.938 25.6071 40.9194ZM36.704 46.2142C36.4318 46.3567 36.1821 46.446 36.0662 46.3771C35.9812 46.3263 36.1785 46.1388 36.1785 46.1388C36.1785 46.1388 37.5667 44.6456 38.1133 43.9656C38.4314 43.5701 38.8001 43.1009 39.2019 42.5758C39.2051 42.6283 39.2069 42.6804 39.2069 42.7317C39.2029 44.5208 37.4747 45.7287 36.704 46.2142ZM45.2528 44.2654C45.0498 44.121 45.0835 43.6539 45.7514 42.1989C46.0135 41.6275 46.6118 40.666 47.6517 39.7469C47.7722 40.1249 47.8457 40.4873 47.8437 40.8248C47.8301 43.0759 46.2241 43.9165 45.2528 44.2654Z" fill="#CD6799"/>
</svg>
