<svg viewBox="0 0 247 64" fill="none" xmlns="http://www.w3.org/2000/svg">
	<circle cx="32" cy="32" r="32" fill="#306CDC" />
	<mask id="prefix__a" style="mask-type:alpha" maskUnits="userSpaceOnUse" x="0" y="0" width="64" height="64">
		<circle cx="32" cy="32" r="32" fill="#306CDC" />
	</mask>
	<g mask="url(#prefix__a)" fill="#fff">
		<path
			d="M27.499 49.19a.59.59 0 10-1.14-.304.59.59 0 001.14.305zM32.64 50.568a.647.647 0 10-1.25-.335.647.647 0 001.25.335zM37.78 51.946a.705.705 0 10-1.361-.365.705.705 0 001.361.365zM42.865 53.308a.704.704 0 10-1.36-.364.704.704 0 001.36.364zM47.895 54.656a.647.647 0 10-1.25-.335.647.647 0 001.25.335zM52.925 56.004a.59.59 0 10-1.14-.306.59.59 0 001.14.306zM18.802 41.41a.704.704 0 10-1.361-.364.704.704 0 001.36.364zM23.994 42.801a.815.815 0 10-1.575-.422.815.815 0 001.575.422zM29.187 44.193a.927.927 0 10-1.79-.48.927.927 0 001.79.48zM34.38 45.584a1.038 1.038 0 10-2.005-.537 1.038 1.038 0 002.004.537zM39.575 46.976a1.152 1.152 0 10-2.226-.596 1.152 1.152 0 002.226.596zM44.66 48.339a1.152 1.152 0 10-2.226-.597 1.152 1.152 0 002.227.597zM49.635 49.672a1.038 1.038 0 10-2.005-.537 1.038 1.038 0 002.005.537zM54.613 51.006a.927.927 0 10-1.79-.48.927.927 0 001.79.48zM59.59 52.34a.816.816 0 10-1.575-.423.816.816 0 001.576.422zM64.569 53.673a.704.704 0 10-1.361-.364.704.704 0 001.36.364zM15.131 34.976a.758.758 0 10-1.464-.392.758.758 0 001.464.392zM20.379 36.383a.927.927 0 10-1.79-.48.927.927 0 001.79.48zM25.627 37.789a1.095 1.095 0 10-2.116-.567 1.095 1.095 0 002.116.567zM30.875 39.195a1.263 1.263 0 10-2.441-.654 1.263 1.263 0 002.44.654zM36.123 40.601a1.432 1.432 0 10-2.767-.741 1.432 1.432 0 002.767.741zM41.37 42.007a1.6 1.6 0 10-3.091-.828 1.6 1.6 0 003.092.828zM46.456 43.37a1.6 1.6 0 10-3.092-.829 1.6 1.6 0 003.092.829zM51.378 44.689a1.432 1.432 0 10-2.766-.742 1.432 1.432 0 002.766.742zM56.3 46.008a1.264 1.264 0 10-2.44-.654 1.264 1.264 0 002.44.654zM61.223 47.327a1.095 1.095 0 10-2.115-.567 1.095 1.095 0 002.115.567zM66.146 48.646a.927.927 0 10-1.79-.48.927.927 0 001.79.48zM71.068 49.965a.758.758 0 10-1.465-.393.758.758 0 001.465.393zM11.357 28.515a.704.704 0 10-1.361-.365.704.704 0 001.36.365zM16.656 29.935a.927.927 0 10-1.79-.48.927.927 0 001.79.48zM21.96 31.356a1.153 1.153 0 10-2.227-.597 1.153 1.153 0 002.227.597zM27.26 32.776a1.374 1.374 0 10-2.656-.712 1.374 1.374 0 002.655.712zM32.563 34.197a1.6 1.6 0 10-3.092-.829 1.6 1.6 0 003.092.829zM37.862 35.617a1.823 1.823 0 10-3.52-.943 1.823 1.823 0 003.52.943zM43.166 37.038a2.048 2.048 0 10-3.957-1.06 2.048 2.048 0 003.957 1.06zM48.251 38.4a2.048 2.048 0 10-3.957-1.06 2.048 2.048 0 003.957 1.06zM53.118 39.705a1.822 1.822 0 10-3.52-.944 1.822 1.822 0 003.52.944zM57.989 41.01a1.6 1.6 0 10-3.092-.829 1.6 1.6 0 003.092.829zM62.856 42.314a1.374 1.374 0 10-2.656-.712 1.374 1.374 0 002.656.712zM67.726 43.619a1.152 1.152 0 10-2.226-.597 1.152 1.152 0 002.226.597zM72.593 44.923a.926.926 0 10-1.79-.48.926.926 0 001.79.48zM77.464 46.228a.704.704 0 10-1.36-.365.704.704 0 001.36.365zM12.826 23.458a.815.815 0 10-1.575-.422.815.815 0 001.575.422zM18.182 24.893a1.095 1.095 0 10-2.116-.567 1.095 1.095 0 002.116.567zM23.537 26.328a1.375 1.375 0 10-2.656-.712 1.375 1.375 0 002.656.712zM28.892 27.763a1.654 1.654 0 10-3.195-.856 1.654 1.654 0 003.195.856zM34.247 29.198a1.934 1.934 0 10-3.735-1.001 1.934 1.934 0 003.735 1zM39.606 30.634a2.217 2.217 0 10-4.283-1.148 2.217 2.217 0 004.283 1.148zM44.961 32.069a2.496 2.496 0 10-4.822-1.293 2.496 2.496 0 004.822 1.293zM50.046 33.431a2.496 2.496 0 10-4.822-1.292 2.496 2.496 0 004.822 1.292zM54.861 34.721a2.217 2.217 0 10-4.282-1.147 2.217 2.217 0 004.282 1.148zM59.673 36.01a1.933 1.933 0 10-3.735-1 1.933 1.933 0 003.735 1zM64.488 37.301a1.654 1.654 0 10-3.195-.856 1.654 1.654 0 003.195.856zM69.303 38.591a1.374 1.374 0 10-2.655-.711 1.374 1.374 0 002.655.711zM74.119 39.881a1.095 1.095 0 10-2.116-.566 1.095 1.095 0 002.116.566zM78.934 41.172a.816.816 0 10-1.576-.423.816.816 0 001.576.423zM8.886 16.952a.59.59 0 10-1.14-.305.59.59 0 001.14.305zM14.296 18.402a.926.926 0 10-1.79-.48.926.926 0 001.79.48zM19.707 19.852a1.264 1.264 0 10-2.441-.654 1.264 1.264 0 002.441.654zM25.118 21.301a1.6 1.6 0 10-3.092-.828 1.6 1.6 0 003.092.828zM30.524 22.75a1.934 1.934 0 10-3.735-1 1.934 1.934 0 003.735 1zM35.935 24.2a2.27 2.27 0 10-4.386-1.175 2.27 2.27 0 004.386 1.175zM41.346 25.65a2.607 2.607 0 10-5.037-1.35 2.607 2.607 0 005.037 1.35z" />
		<path d="M46.756 27.1a2.944 2.944 0 10-5.688-1.525 2.944 2.944 0 005.688 1.524z" />
		<path d="M51.842 28.462a2.944 2.944 0 10-5.689-1.524 2.944 2.944 0 005.689 1.524z" />
		<path
			d="M56.601 29.737a2.607 2.607 0 10-5.037-1.35 2.607 2.607 0 005.037 1.35zM61.361 31.013a2.27 2.27 0 10-4.386-1.176 2.27 2.27 0 004.386 1.176zM66.12 32.288a1.934 1.934 0 10-3.735-1 1.934 1.934 0 003.736 1zM70.884 33.565a1.6 1.6 0 10-3.092-.829 1.6 1.6 0 003.092.829zM75.644 34.84a1.264 1.264 0 10-2.441-.654 1.264 1.264 0 002.44.654zM80.404 36.115a.927.927 0 10-1.79-.48.927.927 0 001.79.48zM85.163 37.39a.59.59 0 10-1.139-.305.59.59 0 001.14.306zM10.304 11.882a.647.647 0 10-1.25-.335.647.647 0 001.25.335zM15.766 13.345a1.038 1.038 0 10-2.004-.537 1.038 1.038 0 002.004.537zM21.232 14.81a1.432 1.432 0 10-2.766-.741 1.432 1.432 0 002.766.741zM26.695 16.274a1.823 1.823 0 10-3.521-.944 1.823 1.823 0 003.52.944zM32.16 17.738a2.217 2.217 0 10-4.282-1.147 2.217 2.217 0 004.283 1.147zM37.623 19.202a2.607 2.607 0 10-5.037-1.35 2.607 2.607 0 005.037 1.35z" />
		<path d="M43.086 20.666a2.998 2.998 0 10-5.792-1.552 2.998 2.998 0 005.792 1.552z" />
		<path d="M48.552 22.13a3.392 3.392 0 10-6.554-1.756 3.392 3.392 0 006.554 1.756z" />
		<path d="M53.637 23.493a3.392 3.392 0 10-6.554-1.756 3.392 3.392 0 006.554 1.756z" />
		<path d="M58.341 24.753a2.998 2.998 0 10-5.792-1.551 2.998 2.998 0 005.792 1.551z" />
		<path
			d="M63.049 26.015a2.607 2.607 0 10-5.037-1.35 2.607 2.607 0 005.037 1.35zM67.757 27.276a2.217 2.217 0 10-4.283-1.147 2.217 2.217 0 004.283 1.147zM72.461 28.537a1.822 1.822 0 10-3.52-.944 1.822 1.822 0 003.52.944zM77.17 29.798a1.432 1.432 0 10-2.767-.74 1.432 1.432 0 002.766.74zM81.873 31.059a1.037 1.037 0 10-2.004-.537 1.037 1.037 0 002.004.537zM86.581 32.32a.647.647 0 10-1.25-.335.647.647 0 001.25.335zM11.722 6.811a.704.704 0 10-1.361-.364.704.704 0 001.36.364zM17.24 8.29a1.152 1.152 0 10-2.227-.597 1.152 1.152 0 002.227.597zM22.758 9.768a1.6 1.6 0 10-3.092-.828 1.6 1.6 0 003.092.828zM28.275 11.247a2.048 2.048 0 10-3.957-1.06 2.048 2.048 0 003.957 1.06zM33.793 12.726a2.496 2.496 0 10-4.822-1.293 2.496 2.496 0 004.822 1.293z" />
		<path d="M39.311 14.204a2.944 2.944 0 10-5.688-1.524 2.944 2.944 0 005.688 1.524z" />
		<path d="M44.83 15.682a3.392 3.392 0 10-6.554-1.755 3.392 3.392 0 006.553 1.755z" />
		<path d="M50.347 17.161a3.84 3.84 0 10-7.419-1.988 3.84 3.84 0 007.419 1.988z" />
		<path d="M55.432 18.524a3.84 3.84 0 10-7.419-1.988 3.84 3.84 0 007.42 1.988z" />
		<path d="M60.085 19.77a3.392 3.392 0 10-6.554-1.756 3.392 3.392 0 006.554 1.756z" />
		<path d="M64.737 21.017a2.944 2.944 0 10-5.688-1.524 2.944 2.944 0 005.688 1.524z" />
		<path
			d="M69.39 22.264a2.496 2.496 0 10-4.823-1.293 2.496 2.496 0 004.823 1.293zM74.042 23.51a2.048 2.048 0 10-3.957-1.06 2.048 2.048 0 003.957 1.06zM78.695 24.757a1.6 1.6 0 10-3.092-.829 1.6 1.6 0 003.092.829zM83.347 26.003a1.152 1.152 0 10-2.226-.596 1.152 1.152 0 002.226.596zM88 27.25a.705.705 0 10-1.362-.365.705.705 0 001.361.365zM13.084 1.726a.705.705 0 10-1.36-.364.705.705 0 001.36.364zM18.602 3.205a1.153 1.153 0 10-2.226-.597 1.153 1.153 0 002.226.597zM24.12 4.683a1.6 1.6 0 10-3.092-.828 1.6 1.6 0 003.092.828zM29.638 6.162a2.048 2.048 0 10-3.957-1.06 2.048 2.048 0 003.957 1.06zM35.156 7.64a2.496 2.496 0 10-4.823-1.292 2.496 2.496 0 004.823 1.292z" />
		<path d="M40.674 9.119a2.944 2.944 0 10-5.688-1.524 2.944 2.944 0 005.688 1.524z" />
		<path d="M46.192 10.597a3.392 3.392 0 10-6.554-1.756 3.392 3.392 0 006.554 1.756z" />
		<path d="M51.71 12.076a3.84 3.84 0 10-7.42-1.988 3.84 3.84 0 007.42 1.988z" />
		<path d="M56.795 13.438a3.84 3.84 0 10-7.42-1.987 3.84 3.84 0 007.42 1.987z" />
		<path d="M61.447 14.685a3.392 3.392 0 10-6.553-1.756 3.392 3.392 0 006.553 1.756z" />
		<path d="M66.1 15.932a2.944 2.944 0 10-5.688-1.525 2.944 2.944 0 005.688 1.525z" />
		<path
			d="M70.752 17.178a2.496 2.496 0 10-4.823-1.292 2.496 2.496 0 004.823 1.292zM75.405 18.425a2.048 2.048 0 10-3.958-1.06 2.048 2.048 0 003.958 1.06zM80.057 19.672a1.6 1.6 0 10-3.092-.829 1.6 1.6 0 003.092.829zM84.71 20.918a1.152 1.152 0 10-2.227-.596 1.152 1.152 0 002.227.596zM89.362 22.165a.704.704 0 10-1.36-.365.704.704 0 001.36.365zM14.392-3.374a.647.647 0 10-1.25-.335.647.647 0 001.25.335zM19.854-1.91a1.038 1.038 0 10-2.005-.537 1.038 1.038 0 002.005.537zM25.32-.445a1.432 1.432 0 10-2.766-.742 1.432 1.432 0 002.766.742zM30.782 1.018a1.823 1.823 0 10-3.52-.943 1.823 1.823 0 003.52.943zM36.248 2.483a2.217 2.217 0 10-4.282-1.148 2.217 2.217 0 004.282 1.148zM41.71 3.946a2.607 2.607 0 10-5.036-1.35 2.607 2.607 0 005.037 1.35z" />
		<path d="M47.173 5.41a2.998 2.998 0 10-5.791-1.552 2.998 2.998 0 005.791 1.552z" />
		<path d="M52.64 6.875a3.392 3.392 0 10-6.554-1.756 3.392 3.392 0 006.553 1.756z" />
		<path d="M57.725 8.237a3.392 3.392 0 10-6.554-1.756 3.392 3.392 0 006.554 1.756z" />
		<path d="M62.429 9.498a2.998 2.998 0 10-5.792-1.552 2.998 2.998 0 005.792 1.552z" />
		<path
			d="M67.137 10.76A2.607 2.607 0 1062.1 9.41a2.607 2.607 0 005.037 1.35zM71.845 12.02a2.217 2.217 0 10-4.283-1.147 2.217 2.217 0 004.283 1.148zM76.549 13.281a1.822 1.822 0 10-3.52-.943 1.822 1.822 0 003.52.943zM81.257 14.543a1.432 1.432 0 10-2.766-.741 1.432 1.432 0 002.766.74zM85.961 15.803a1.037 1.037 0 10-2.004-.537 1.037 1.037 0 002.004.537zM90.67 17.065a.647.647 0 10-1.251-.335.647.647 0 001.25.335zM15.699-8.474a.59.59 0 10-1.14-.305.59.59 0 001.14.305zM21.11-7.024a.927.927 0 10-1.79-.48.927.927 0 001.79.48zM26.52-5.574a1.264 1.264 0 10-2.441-.654 1.264 1.264 0 002.44.654zM31.93-4.124a1.6 1.6 0 10-3.091-.829 1.6 1.6 0 003.091.829zM37.337-2.676a1.934 1.934 0 10-3.735-1 1.934 1.934 0 003.735 1zM42.748-1.226A2.27 2.27 0 1038.362-2.4a2.27 2.27 0 004.386 1.175zM48.159.224a2.607 2.607 0 10-5.037-1.35 2.607 2.607 0 005.037 1.35z" />
		<path d="M53.57 1.674A2.944 2.944 0 1047.88.149a2.944 2.944 0 005.688 1.525z" />
		<path d="M58.654 3.036a2.944 2.944 0 10-5.687-1.524 2.944 2.944 0 005.687 1.524z" />
		<path
			d="M63.414 4.312a2.607 2.607 0 10-5.037-1.35 2.607 2.607 0 005.037 1.35zM68.174 5.587a2.27 2.27 0 10-4.386-1.175 2.27 2.27 0 004.386 1.175zM72.934 6.862a1.933 1.933 0 10-3.736-1 1.933 1.933 0 003.736 1zM77.697 8.139a1.6 1.6 0 10-3.092-.829 1.6 1.6 0 003.092.829zM82.457 9.414a1.264 1.264 0 10-2.441-.654 1.264 1.264 0 002.44.654zM87.216 10.69a.927.927 0 10-1.79-.48.927.927 0 001.79.48zM91.976 11.965a.59.59 0 10-1.139-.305.59.59 0 001.14.305zM22.364-12.138a.816.816 0 10-1.575-.422.816.816 0 001.575.422zM27.72-10.703a1.095 1.095 0 10-2.116-.567 1.095 1.095 0 002.116.567zM33.075-9.268a1.375 1.375 0 10-2.656-.712 1.375 1.375 0 002.656.712zM38.43-7.833a1.654 1.654 0 10-3.195-.856 1.654 1.654 0 003.195.856zM43.785-6.398A1.933 1.933 0 1040.05-7.4a1.933 1.933 0 003.735 1zM49.144-4.962a2.217 2.217 0 10-4.283-1.148 2.217 2.217 0 004.283 1.148zM54.5-3.528a2.496 2.496 0 10-4.823-1.292 2.496 2.496 0 004.822 1.292zM59.584-2.165a2.496 2.496 0 10-4.822-1.292 2.496 2.496 0 004.822 1.292zM64.4-.875a2.217 2.217 0 10-4.283-1.147A2.217 2.217 0 0064.4-.875zM69.211.415a1.934 1.934 0 10-3.735-1.001 1.934 1.934 0 003.735 1zM74.026 1.705a1.654 1.654 0 10-3.195-.856 1.654 1.654 0 003.195.856zM78.841 2.995a1.375 1.375 0 10-2.655-.712 1.375 1.375 0 002.655.712zM83.657 4.285a1.095 1.095 0 10-2.116-.567 1.095 1.095 0 002.116.567zM88.472 5.575a.816.816 0 10-1.576-.422.816.816 0 001.576.422zM23.62-17.252a.704.704 0 10-1.361-.365.704.704 0 001.36.365zM28.92-15.832a.927.927 0 10-1.79-.48.927.927 0 001.79.48zM34.223-14.41a1.153 1.153 0 10-2.227-.597 1.153 1.153 0 002.227.596zM39.523-12.99a1.375 1.375 0 10-2.656-.712 1.375 1.375 0 002.656.711zM44.826-11.57a1.6 1.6 0 10-3.092-.828 1.6 1.6 0 003.092.828zM50.126-10.15a1.822 1.822 0 10-3.521-.943 1.822 1.822 0 003.52.943zM55.429-8.729a2.048 2.048 0 10-3.957-1.06 2.048 2.048 0 003.957 1.06zM60.514-7.366a2.048 2.048 0 10-3.957-1.06 2.048 2.048 0 003.957 1.06zM65.381-6.062a1.822 1.822 0 10-3.52-.943 1.822 1.822 0 003.52.943zM70.252-4.757a1.6 1.6 0 10-3.092-.828 1.6 1.6 0 003.092.828zM75.119-3.453a1.375 1.375 0 10-2.656-.711 1.375 1.375 0 002.656.711zM79.99-2.148a1.152 1.152 0 10-2.227-.596 1.152 1.152 0 002.226.596zM84.856-.844a.927.927 0 10-1.79-.48.927.927 0 001.79.48zM89.727.462a.704.704 0 10-1.36-.365.704.704 0 001.36.365zM30.12-20.96a.758.758 0 10-1.465-.393.758.758 0 001.464.392zM35.367-19.554a.926.926 0 10-1.79-.48.926.926 0 001.79.48zM40.615-18.148a1.095 1.095 0 10-2.115-.567 1.095 1.095 0 002.115.567zM45.863-16.742a1.263 1.263 0 10-2.44-.654 1.263 1.263 0 002.44.654zM51.11-15.336a1.432 1.432 0 10-2.765-.741 1.432 1.432 0 002.766.741zM56.359-13.93a1.6 1.6 0 10-3.092-.828 1.6 1.6 0 003.092.828zM61.444-12.567a1.6 1.6 0 10-3.092-.829 1.6 1.6 0 003.092.829zM66.367-11.248a1.432 1.432 0 10-2.767-.741 1.432 1.432 0 002.767.74zM71.289-9.93a1.263 1.263 0 10-2.441-.653 1.263 1.263 0 002.44.654zM76.211-8.61a1.095 1.095 0 10-2.115-.567 1.095 1.095 0 002.115.567zM81.134-7.291a.927.927 0 10-1.79-.48.927.927 0 001.79.48zM86.056-5.972a.758.758 0 10-1.464-.393.758.758 0 001.464.393zM36.515-24.697a.704.704 0 10-1.36-.365.704.704 0 001.36.365zM41.708-23.306a.816.816 0 10-1.576-.422.816.816 0 001.576.422zM46.9-21.915a.927.927 0 10-1.79-.479.927.927 0 001.79.48zM52.093-20.523a1.038 1.038 0 10-2.005-.537 1.038 1.038 0 002.005.537zM57.289-19.13a1.152 1.152 0 10-2.227-.597 1.152 1.152 0 002.227.596zM62.374-17.768a1.153 1.153 0 10-2.227-.597 1.153 1.153 0 002.227.597zM67.348-16.436a1.038 1.038 0 10-2.004-.537 1.038 1.038 0 002.004.537zM72.326-15.102a.927.927 0 10-1.79-.48.927.927 0 001.79.48zM77.304-13.768a.816.816 0 10-1.576-.422.816.816 0 001.576.422zM82.282-12.434a.704.704 0 10-1.361-.365.704.704 0 001.36.365zM47.937-27.087a.59.59 0 10-1.139-.305.59.59 0 001.14.305zM53.078-25.71a.647.647 0 10-1.25-.334.647.647 0 001.25.335zM58.219-24.332a.705.705 0 10-1.361-.365.705.705 0 001.36.365zM63.304-22.97a.705.705 0 10-1.361-.364.705.705 0 001.36.365zM68.334-21.622a.647.647 0 10-1.25-.334.647.647 0 001.25.334zM73.363-20.274a.59.59 0 10-1.139-.305.59.59 0 001.14.305z" />
	</g>
	<path
		d="M98.785 51.4L83.69 13.09h8.01l11.663 31.008h-3.106l11.771-31.008h7.902L104.671 51.4h-5.886zM124.185 51.4V25.08h7.193v26.322h-7.193zm3.596-30.572c-1.162 0-2.125-.381-2.888-1.144-.763-.8-1.144-1.78-1.144-2.943 0-1.126.381-2.089 1.144-2.888.763-.8 1.726-1.199 2.888-1.199 1.199 0 2.162.4 2.889 1.199.763.8 1.144 1.762 1.144 2.888 0 1.163-.381 2.144-1.144 2.943-.727.763-1.69 1.144-2.889 1.144zM146.749 52c-1.49 0-2.961-.2-4.415-.6a17.176 17.176 0 01-3.923-1.634 12.781 12.781 0 01-3.107-2.616l4.251-4.305a8.822 8.822 0 003.161 2.288c1.199.51 2.525.764 3.978.764 1.163 0 2.035-.164 2.616-.491.618-.327.926-.817.926-1.471 0-.727-.327-1.29-.981-1.69-.617-.4-1.435-.726-2.452-.98-1.017-.291-2.089-.6-3.215-.927a20.221 20.221 0 01-3.161-1.363 7.373 7.373 0 01-2.507-2.343c-.617-1.017-.926-2.325-.926-3.924 0-1.67.399-3.124 1.199-4.36.835-1.235 2.016-2.197 3.542-2.887 1.526-.69 3.324-1.036 5.395-1.036 2.18 0 4.142.381 5.886 1.145a10.808 10.808 0 014.414 3.433l-4.305 4.305c-.8-.981-1.708-1.69-2.725-2.125-.981-.436-2.053-.654-3.215-.654-1.054 0-1.871.163-2.453.49-.545.327-.817.781-.817 1.363 0 .653.309 1.162.926 1.525.654.364 1.49.69 2.507.981 1.017.255 2.071.563 3.161.927 1.126.327 2.18.799 3.161 1.417a7.205 7.205 0 012.452 2.452c.654 1.017.981 2.325.981 3.924 0 2.58-.927 4.632-2.779 6.158-1.853 1.49-4.378 2.234-7.575 2.234zM161.917 51.4V25.08h7.193v26.322h-7.193zm3.596-30.572c-1.162 0-2.125-.381-2.888-1.144-.763-.8-1.144-1.78-1.144-2.943 0-1.126.381-2.089 1.144-2.888.763-.8 1.726-1.199 2.888-1.199 1.199 0 2.162.4 2.889 1.199.763.8 1.144 1.762 1.144 2.888 0 1.163-.381 2.144-1.144 2.943-.727.763-1.69 1.144-2.889 1.144zM190.039 51.946c-1.889 0-3.597-.4-5.122-1.2-1.526-.799-2.743-1.889-3.652-3.27-.908-1.38-1.398-2.924-1.471-4.631V33.47c.073-1.707.563-3.233 1.471-4.577a9.63 9.63 0 013.706-3.215c1.526-.763 3.215-1.145 5.068-1.145 2.434 0 4.614.6 6.54 1.798 1.925 1.2 3.433 2.834 4.523 4.905 1.126 2.07 1.689 4.414 1.689 7.03 0 2.58-.563 4.905-1.689 6.975-1.09 2.071-2.598 3.706-4.523 4.905-1.926 1.2-4.106 1.799-6.54 1.799zm-1.199-6.594c1.308 0 2.453-.291 3.434-.872a6.23 6.23 0 002.343-2.507c.581-1.09.872-2.344.872-3.76 0-1.381-.291-2.598-.872-3.652-.545-1.09-1.326-1.925-2.343-2.507-1.018-.617-2.18-.926-3.488-.926-1.308 0-2.471.309-3.488.926-.981.582-1.762 1.417-2.343 2.507-.545 1.054-.818 2.271-.818 3.651 0 1.417.273 2.67.818 3.76a6.617 6.617 0 002.398 2.508c1.017.58 2.179.872 3.487.872zM175.434 51.4V12h7.139v19.564l-1.199 6.322 1.145 6.43V51.4h-7.085zM207.472 51.4V12h7.139v39.4h-7.139zM233.525 51.946c-2.761 0-5.214-.582-7.357-1.744a13.831 13.831 0 01-5.123-4.905c-1.235-2.07-1.853-4.432-1.853-7.084 0-2.616.6-4.941 1.799-6.976a13.527 13.527 0 015.013-4.905c2.108-1.235 4.451-1.852 7.03-1.852 2.543 0 4.778.58 6.703 1.743a11.835 11.835 0 014.578 4.687c1.126 1.962 1.689 4.196 1.689 6.703 0 .472-.036.963-.109 1.471a10.899 10.899 0 01-.272 1.635l-22.125.055v-5.34l18.801-.055-2.889 2.234c-.072-1.562-.363-2.87-.872-3.924-.472-1.053-1.18-1.852-2.125-2.397-.908-.582-2.034-.872-3.379-.872-1.417 0-2.652.327-3.705.98-1.054.618-1.871 1.508-2.453 2.67-.545 1.127-.817 2.471-.817 4.033 0 1.6.291 2.998.872 4.197a6.739 6.739 0 002.616 2.725c1.126.617 2.434.926 3.923.926 1.345 0 2.562-.218 3.652-.654a7.946 7.946 0 002.833-2.07l4.197 4.195a12.15 12.15 0 01-4.687 3.38c-1.817.762-3.797 1.144-5.94 1.144z"
		fill="#306CDC" />
</svg>