<svg version="1.1" id="prefix__Layer_1" xmlns="http://www.w3.org/2000/svg" x="0" y="0" viewBox="0 0 690 156" xml:space="preserve"><style>.prefix__st0{fill:#7609cc}.prefix__st1{fill:#c78eff}.prefix__st2{fill:#9326ff}.prefix__st3{fill:#ad5aff}.prefix__st4{fill:#580099}.prefix__st5{fill:#fcf8ff}.prefix__st6{fill:#e2c3ff}</style><path class="prefix__st0" d="M338.9 142.4c-2.1 3.1-9.6 3.6-11.9 3.7-5.4.1-8.8-1.8-11.6-6.7-2-3.6-4.3-6.6-3.6-10.9 1.5-9.3 1.7-18.8 1.8-28.2 0-6.7-2.2-8.5-9.4-8.1-5.4.3-10.9 1.1-16.3.1-1.8-.3-2.7.9-4 1.6.7-2 .7-4.2 2-6 .6.7 1.7 1.3 1.8.2.5-5.1 2.5-10.1 1.3-15.2-.5-2.6-.6-5.3-.4-7.9 1.7 1.7 1.7 3.8 1.7 6l-.3 15.1c3-3.5 3.5-7.6 4.2-11.6 1-6.1 2.3-7.3 8.9-7.3l.3 1c0 2.8-.2 5.6-.1 8.4.2 3.2-1 6.5.6 9.6.7 2.1 1.7 3 3.3.7 1.2-1.7.9-3.8.9-5.8 0-6.4.3-12.8 3.1-18.7l2.1-.2c-2.8 9.9-2.1 19.8-.6 30.3 1.9-1.6 1.3-3.1 1.5-4.5.2-1.6-.7-3.4 1-4.7 1.1 1.2 2.1 2.2 2 4.2-.3 11.9 0 23.8-1.1 35.6a2 2 0 001.4 2.3c.1 1 .3 1.9 1.7 1.7 2.5-.5 5-3.5 5.4-6.5.2-1.7-.7-3.6 1-5 .9.3 1.1 1.9 2.2 1.5s.8-1.7.8-2.6c.2-8.7.3-17.5.5-26.2 0-1.6-.6-3.4 1-4.6 1.7 1.2.7 3.1 1 4.6.4 2.6-.1 5.6 2.5 7.5.3 1.3.3 2.6.1 3.8-1.2 1-.7 2.4-.9 3.7-1 8.2 1.6 16 1.9 24.1.2 5 3.1 8.2 6.7 11.1 1.4-1.6.3-3.5 1.5-5.3l.4 3.6c.1 1.9-1 3-2.4 3.9-1.1 0-1.9.7-2 1.7zm-11.4-22.5c-.6.1-1 .3-.9.9.1.8.8 1.4 1.6 1.5.4.1.8-.2.8-.6v-.3c-.1-.8-.7-1.4-1.5-1.5zM256.9 141.7c-5.7-3.5-7.2-9.1-6.5-15 2.1-17.9 1.2-35.8 1.7-53.7.5-17.4 1.1-34.8.2-52.3-.2-2.8-.3-5.7 1.3-8.2 1 1.9.3 3.9.4 5.8-1.5 1.3-1.5 2.6-.1 4-.4 5.3.7 10.6.7 15.8-.3 28.1-.9 56.1-1.4 84.2v.9c-1.9 1.9-.8 4.2-.9 7 1.3-2.3.7-4.2.9-5.9 1.5.4 1.9-1.8 3.7-1.4.3 1.8.6 3.5-.9 5-1 .9-1.3 2.4-.6 3.7.5.7 1.4 1 2.2.6 1.3-.4 2.2-1.6 2.2-3 .2-3 1.8-5.7 1.3-8.8h1c.1.1.3.2.4.3.8.8 1.3 2.4 2.7 1.5 1.4-.9-.1-1.6-.6-2.3-.3-.6-.2-1.4.4-1.8 1.5-1.5 1.3-3.4 1.2-5.2-.5-12 1.5-23.8 1.7-35.8 0-1 0-2 1-2.7 1.4 2.8 1.4 5.7 1.2 8.9-.2 2.4-2.1 5.6 1.6 7.2v1.9c-1.6 1.7-1.6 4.4 0 6.1 0 1.9.1 3.9.1 5.8-1.2 7.8.2 15.4 1.8 22.9.5 2.4 1.5 4.7 4.5 5.2.2 2.8-1.5 5.4-4.2 6.1-4.2.6-8.2 1.4-12.5-.1-2.1-.5-4.3.3-4.5 3.3z"/><path class="prefix__st1" d="M343.2 136.9l-.4-3.6c-1.2 1.8-.1 3.7-1.5 5.3-3.6-2.9-6.5-6.1-6.7-11.1-.3-8.1-2.9-15.9-1.9-24.1.2-1.3-.3-2.7.9-3.7l.9 13.8c.2 2.2-.2 5.7 2.2 5.8 2.7 0 1.7-3.4 1.7-5.4.3-23.4.9-46.8 2.3-70.1.1-1 .1-2 .2-3 .8-5.9 2.1-11.7.6-17.8-.3-1.3 1.4-1 2.3-1.2 2.4.2 2.1 2 2.2 3.6.1 3.8-.7 7.6.4 11.3.5 2.4.4 4.9-.4 7.2-2.2.9-1.7 2-.1 3.1.3 1.6.2 3.2-.2 4.7-1.8 1.1-1.3 2.9-1 4.5 1.1 5.8 1.1 11.8-.3 17.5-.7 3.2-1.4 6.8.5 10.1-.1 8.8 0 17.7-.4 26.5-.3 6 .2 12 .3 18 .1 3 .2 5.9-1.6 8.6z"/><path class="prefix__st2" d="M254.1 18.3c-.2-1.9.6-3.9-.4-5.8 2.5-6.4 13.7-9.8 13.7-9.8-.2 2.4.9 3.3 3.2 2.7.9-.2 1.8-.5 2.8-.8l3.1-.1c.8.1 1.4.6 1.8 1.2l.7.9c4.4 2.2 6.7 5.7 6.6 10.7l-2.9.3c-.5-2-1.8-3.4-2.7-5.2-1.3-2.4-2.7-1.8-4.3-.8-2.4-1.7-5.3-2.2-8.1-2.8-2.2-.5-2.7.8-2.1 2 1.3 2.9.3 4.9-2.5 6.7 5.9.2 6.1.5 5.1 4.9-1.1-.1-2.3 0-3.1-1.2-.6-.9-1.3-.8-1.9.1-4.7-1.3-4.1-1.3-4.2 3.4-.2 7.6 1.7 15.3.6 22.8-.8 5.5-1.6 11-.9 16.3.8 5.8.3 11.6.5 17.4.1 3.7-1.1 7.6 1.6 11.1.6.7.4 2.3.1 3.4-2 7.2-.7 14.5-1.3 21.8-.1 1.5.1 2.7 1.9 2.8.4 3.1-1.1 5.8-1.3 8.8 0 1.4-.9 2.6-2.2 3-.8.3-1.7.1-2.2-.6-.7-1.2-.4-2.7.6-3.7 1.5-1.6 1.2-3.3.9-5-1.8-.4-2.2 1.8-3.7 1.4l-.1-1.1v-.9c.6-.3 1-.9 1-1.6 0-6.6 1-13.2 1.3-19.8.7-19.8.8-39.5 1.2-59.3 0-1.5 0-3-.1-4.5-.5-5.8-2.1-11.6-.8-17.6 0-.9-1.1-1-1.9-1.1zm8.6-4.6c.1-.8-.3-1.1-.8-1.1-.6-.1-1.3-.1-1.4.8-.1.6.3.8.8.9.7.1 1.3 0 1.4-.6z"/><path class="prefix__st0" d="M285.8 87.8c-1.3 1.8-1.3 4-2 6-2.2.9-2.4 2.7-1.7 4.6.6 1.6.8 3.3.4 4.9-1.9 6.9-.3 13.8-.1 20.7.4 1.9.3 3.8 0 5.6-.4.8-1.3 1.3-2.2 1.2-2.3-2.4.5-5.8-1.8-8.2-.2-1.8.2-3.6-.7-5.3.2-.7.3-1.5.5-2.2.2-.6 0-1.2-.5-1.6v-1.8c1.3-1.5 1.3-3.7 0-5.1 0-1.7-.1-3.4-.1-5.1.1-3.3.3-6.5.4-9.8.6-.3.7-.7.1-1.2.8-2.6-.1-5.2.2-7.8 2.2-1.7 3.5.8 5.5 2-.4-2.4-.8-4-2-5.5-1.1-1.5-2.6-4.5-1.2-5.4 2.5-1.7.3-3 .6-4.4.1-.9.2-1.9.2-2.8 2 1.1 1.8-.2 2-1.6.2-1.9-.2-5 3.5-3-.8 2.9-.9 5.9-.3 8.8.9 3.7.6 7.5-.7 11.1-1.2.9-1.1 1.9-.1 2.9v3zm-1.1-13.6c.1-.3.4-.6.4-.8s-.2-.6-.4-.8c-.1.3-.4.6-.4.8s.2.5.4.8zm-2.3 14.9c.2-.2.3-.5.3-.8 0-.3-.2-.8-.3-.8-.6 0-.5.5-.5.9.1.3.4.5.5.7z"/><path class="prefix__st3" d="M286.8 62.1c-3.7-2-3.3 1.1-3.5 3-.2 1.4 0 2.7-2 1.6l-.2-2c-.1-1.3 1.2-2.8-.6-3.7l.1-3.4c1.4.2 1.5 2.3 3.3 1.8l.7-4.5c3.2 3.5 7.5 2.2 11.4 2.4 2.3.1 4.6 0 6.4 1.7 0 .6.1 1.3.2 1.9.2 1 .9 1.5 1.6.6.4-.6 2-1.9-.3-2.3.7-.7 1.8-1 2.8-.7 1 1.3 3.1 0 3.9 1.8-.9-.2-1.8.4-2 1.4v.6c-1.9 1.5-5 1.8-5.4 5-6.6 0-7.9 1.2-8.9 7.3-.7 4-1.1 8.1-4.2 11.6.1-5 .1-10.1.3-15.1.1-2.2 0-4.3-1.7-6-.5-1.2.3-3-1.9-3z"/><path class="prefix__st0" d="M284.5 54.9l-.7 4.5c-1.8.5-1.9-1.6-3.3-1.8l-.1 3.4-.4 1.8c-.4-1-.9-2-1.3-3-.3-8.3-.1-16.6.9-24.9.5-2.3.6-4.6.5-7l2.5-10 2.9-.3v.1c-.3.4-.2.9.2 1.2.1 0 .1.1.2.1-1.5 8-1.5 16.1-1.9 24.2 0 3.7-.5 7.7.5 11.7zM310.4 60.3c-.8-1.8-2.9-.4-3.9-1.8 7.5-.9 7.8-1.4 8.1-9.2.4-9.9-.7-19.9.2-29.8.4-1.1.3-2.2-.3-3.2 2.2-7.8 8.2-11 15.4-12.7h.2c-3.8 3.9-10 4.6-12.8 10-1.1 2.1-1.3 3.5-.4 5.4.6 1.2 2.3 1.6 2.1 3.2l-1 .1c-.8.1-1.9 0-1.6 1.1.2.8 1-.1 1.6-.1 0 6.3-.6 12.7 0 18.9.6 6.4 0 12.9-1.8 19h-.8l-2.1-.1c-.6-1.1-1.9-.7-2.9-.8zm5.5-18h.5l.2-14.1h-.5l-.2 14.1z"/><path class="prefix__st2" d="M256.9 141.7c.2-3 2.3-3.7 4.5-3 4.2 1.5 8.3.7 12.5.1.2 1.9 1.6 1.9 3 1.9-2.7 3.4-6.6 4.1-10.5 4-2.1 0-9-2-9.5-3zm14.2 1c.6-.1 1.4-.2 1.5-.9.1-1.1-.8-1.1-1.6-1.3-2.3 0-4.6-.1-6.8 0-1 0-1.3 1-1.1 1.8.2.7.9 1.1 1.5.5 1.6-1.8 2.6-1 3.9.3.7.8 1.8.5 2.6-.4zm-9.4-.6c-.3-.6-.6-1.2-1.3-1-.5.2-.4.8-.3 1.3.1.5.5.9 1 .8.4-.2.7-.6.6-1.1zM346.4 36.7c-1.1-3.7-.3-7.5-.4-11.3-.1-1.7.2-3.5-2.2-3.6.4-.6.8-1.3 1.2-1.9 2.8-2.3.1-4.8.3-7.1 2.2.7 2.3 2.6 2.3 4.4.3 6.5-.1 13.1-1.2 19.5zM344.9 83.9c-1.8-3.3-1.1-6.9-.5-10.1 1.3-5.8 1.4-11.7.3-17.5-.3-1.6-.8-3.3 1-4.5 0 10.7-.1 21.4-.8 32.1z"/><path class="prefix__st0" d="M282.3 124c-.2-6.9-1.8-13.8.1-20.7.4-1.6.2-3.3-.4-4.9-.7-1.9-.5-3.6 1.7-4.6-1.5 7.5-.7 15.2-1.1 22.7 0 2.5.4 5-.3 7.5z"/><path class="prefix__st4" d="M334.3 3.8c2.4 1 4.8 2 7.2 3.1 1.7.8 3.8 1.3 3.6 3.9-2.1-.2-3.9 1.4-6 1-.2 0-.5-.1-.7-.3-.8-2.9-1.1-6-4.1-7.7z"/><path class="prefix__st2" d="M276.9 140.7c-1.4 0-2.8 0-3-1.9 2.7-.8 4.5-3.3 4.2-6.1.1-3.3.2-6.7.2-10 2.2 2.4-.5 5.8 1.8 8.2v.8c-.7.4-.9.7 0 1.1v.9c0 1.1-.4 2.2.8 3 .1 1.3-.7 1.9-1.9 2.1-.6 0-1 .5-1.1 1.1l-1 .8z"/><path class="prefix__st3" d="M339.1 11.8c2.1.4 3.9-1.2 6-1l.2 1.9c-.2 2.4 2.5 4.9-.3 7.1 0-.3 0-.6.1-.8l-.5-1c-.3-2.4.2-5.4-3.9-4.6-.8.2-1.3-.8-1.6-1.6zM267.3 2.7c.9-.4 1.9-.6 4.6 0 .5.1.9.3 1.4.4v1.6c-.9.3-1.8.6-2.8.8-2.2.4-3.4-.4-3.2-2.8z"/><path class="prefix__st0" d="M280.9 136.7c-1.2-.8-.7-2-.8-3 .9-.4.7-.7 0-.9v-1.1-.8c.9.1 1.8-.4 2.2-1.2.3 2.4.1 4.9-1.4 7z"/><path class="prefix__st4" d="M303.7 59.2c2.3.4.8 1.7.3 2.3-.7.9-1.4.3-1.6-.6-.1-.6-.2-1.3-.2-1.9l1.5.2z"/><path class="prefix__st2" d="M345.9 47.1c-1.5-1.1-2-2.2.1-3.1.4 1 .4 2.1-.1 3.1z"/><path class="prefix__st1" d="M273.3 4.6V3c1.1.5 2.4.3 3.1 1.5l-3.1.1zM338.9 142.4c0-1 .8-1.7 1.8-1.7h.1c.1.9-.6 1.6-1.4 1.7h-.5z"/><path class="prefix__st5" d="M314.6 16.3c.6 1 .6 2.1.3 3.2-.9-.8-1.1-2.2-.3-3.2z"/><path class="prefix__st1" d="M278.9 6.7l-.7-.9c1-.3.6.5.7.9zM277.9 139.9c.1-.6.5-1 1.1-1.1-.2.5-.1 1.4-1.1 1.1z"/><path class="prefix__st2" d="M286 18.8c-.4-.2-.7-.6-.5-1.1 0-.1.1-.1.1-.2.4.3.6.9.4 1.3z"/><path class="prefix__st3" d="M330.2 3.6c1.4-1 2.8-.2 4.2.1 3 1.7 3.3 4.9 4 7.8-3 .3-3.9 2.3-2.8 4.5 2.1 4.2 2.5 7.8-.6 11.7-.7 1.2-1 2.5-.9 3.8-.3 16.6-.8 33.2-.8 49.9 0 4.8.8 9.6.1 14.4-2.6-1.9-2.1-4.8-2.5-7.5-.2-1.6.8-3.4-1-4.6l.6-22c.9-.6.9-1.3.1-2 .7-9.3 1.3-18.6 1.2-27.9.1-2.3.3-4.6.1-6.9-.1-1.7 2.5-3.7.1-4.8-2.4-1.1-3.5 1.9-5.3 2.9-1.3.7-1 2.5-.6 3.6 1.1 2.9.6 5.9.6 8.8 0 3.4-.3 6.9.9 10.2v2c-2 2.1-.8 4.7-1 7.1l-.8 39.9c-1.9 1.4-.8 3.3-1 5.1-.8 5.3 1.3 10.6.6 15.9-1.7 1.4-.8 3.3-1 5-.4 3-2.8 6-5.4 6.5-1.5.3-1.6-.6-1.7-1.7-.5-9.2 1.4-18.2 1.4-27.3 0-4.9-1.9-9.8 1.2-14.5.3-.6.3-1.3.1-2-1.5-5.4-.5-10.9-.7-16.4.1-12 1.3-24-.2-36 1.5-1.7 1.6-4.2.1-5.9v-1.1c.2-1.6-1.5-2-2.1-3.2-.9-1.9-.7-3.4.4-5.4 2.7-5.4 8.8-6.1 12.7-10z"/><path class="prefix__st5" d="M333.4 95.7c.7-4.8-.1-9.6-.1-14.4 0-16.6.4-33.2.8-49.9-.1-1.3.2-2.7.9-3.8 3.1-3.8 2.8-7.5.6-11.7-1.1-2.2-.2-4.3 2.8-4.5.2.2.4.3.7.3.3.8.9 1.8 1.6 1.7 4.2-.8 3.7 2.1 3.9 4.5-.2.5.1.7.5 1-.1.3-.1.6-.1.8-.4.6-.8 1.3-1.2 1.9-.9.2-2.6-.1-2.3 1.2 1.5 6 .2 11.9-.6 17.8-.1 1-.2 2-.2 3-1.4 23.4-2 46.7-2.3 70.1 0 2 1 5.4-1.7 5.4-2.4 0-2.1-3.6-2.2-5.8l-.9-13.8c.1-1.2.1-2.5-.2-3.8z"/><path class="prefix__st4" d="M331.8 31.7c.1 9.3-.5 18.6-1.2 27.9-1.3.6-1.4 1.3-.1 2l-.6 22c-1.6 1.3-1 3-1 4.6-.2 8.7-.3 17.5-.5 26.2 0 .9.4 2.2-.8 2.6s-1.3-1.3-2.2-1.5c.7-5.3-1.4-10.6-.6-15.9 3-1.2 2.3-3.1 1-5.1l.8-39.9c3.2-1.9 2.3-4.5 1-7.1v-2c1.9-.1 1.9-1.4 1.9-2.8 0-2.8.1-5.6.2-8.4.1-1.3.2-2.6 2.1-2.6z"/><path class="prefix__st1" d="M319.2 65.3c.3 5.4-.7 11 .7 16.4.2.6.2 1.3-.1 2-3.1 4.6-1.2 9.6-1.2 14.5 0 9.1-2 18.1-1.4 27.3a2 2 0 01-1.4-2.3c1.2-11.8.8-23.7 1.1-35.6.1-2-.9-3-2-4.2.6-3-.5-6.2 1.4-8.9 1.8-2 2.6-4.1.9-7.4-1.4 2.5-.8 4.5-1 6.3-2-3.9-.1-8-.8-12 .3-.1.5-.1.8 0 1.8.7 1.4 3.1 3 3.9z"/><path class="prefix__st5" d="M303 67.2c.5-3.1 3.5-3.4 5.4-5l1.9-.1c.2.2.5.3.8.2-2.8 6-3.1 12.3-3.1 18.7 0 2 .3 4-.9 5.8-1.6 2.3-2.6 1.4-3.3-.7 1.6-6.1 2-12.1-.6-18l-.2-.9z"/><path class="prefix__st4" d="M316.3 74.4c-1.8 2.8-.8 6-1.4 8.9-1.6 1.3-.8 3.1-1 4.7-.2 1.4.4 2.9-1.5 4.5-1.5-10.5-2.1-20.4.6-30.3.1-.3.2-.6.2-.9l2.1.1c.7 4-1.2 8.1.8 12l.2 1z"/><path class="prefix__st6" d="M286.8 62.1c2.2 0 1.4 1.8 1.7 2.9-.3 2.6-.2 5.3.4 7.9 1.1 5-.9 10.1-1.3 15.1-.1 1.1-1.2.5-1.8-.2v-3l.1-2.9c1.3-3.5 1.5-7.4.7-11.1-.7-2.9-.6-5.9.2-8.7z"/><path class="prefix__st3" d="M303.2 68.2c2.6 5.9 2.2 11.9.6 18-1.7-3.1-.5-6.4-.6-9.6-.2-2.8 0-5.6 0-8.4z"/><path class="prefix__st4" d="M327.5 119.9c.8.1 1.4.7 1.5 1.5.1.4-.1.8-.5.9h-.3c-.8 0-1.5-.7-1.6-1.5-.1-.6.3-.8.9-.9z"/><path class="prefix__st3" d="M313.3 61.3c0 .3-.1.6-.2.9l-2.1.2c-.3 0-.5-.1-.8-.2 0-.6.1-1.2.1-1.9 1.1.1 2.4-.3 3 1z"/><path class="prefix__st5" d="M282.6 17.8l-2.5 10c-1.8 2.2-1.5 4.6-.5 7-.9 8.3-1.2 16.6-.9 24.9-.7 7.7-.9 15.4-.6 23.1-.2 2.6.7 5.2-.2 7.8 0 .4-.1.8-.1 1.2-.1 3.3-.3 6.5-.4 9.8-.8.2-1.8.4-1.8 1.4-.2 3.5-.2 6.9-.2 10.4 0 .9.9 1.3 1.7 1.5.3.1.6.3.9.4-.1.7-.3 1.5-.5 2.2-3.3.8-4.6-.4-4.3-3.8.3-3.1-.6-6.1-1.5-9.1 0-1.9-.1-3.9-.1-5.8h.2c1.2-1.8 1.3-4.2.1-6.1h-.2v-1.9c.9-15.4 0-30.9-.6-46.3-.2-6-.7-11.9.8-17.7 1.3-4.9.3-10.4 3.6-14.8 1.7-1 3-1.6 4.3.8 1 1.5 2.4 3 2.8 5z"/><path class="prefix__st3" d="M261.3 120.4c-1.8-.1-2.1-1.4-1.9-2.8.6-7.3-.7-14.6 1.3-21.8.3-1.1.5-2.7-.1-3.4-2.7-3.5-1.4-7.4-1.6-11.1-.2-5.8.2-11.5-.5-17.4-.7-5.3.2-10.8.9-16.3 1-7.5-.8-15.2-.6-22.8.1-4.7-.5-4.7 4.2-3.4.2 7.1 2 14 1.7 21.1v2.8l-.2 9.2-.1 3.9v1.1c-.2 13-.5 25.9-.7 38.9v2.1l-.3 13.9c-2.1.4-2.7 1.3-1 3 0 1-.1 2-.1 3h-1z"/><path class="prefix__st4" d="M264.8 45.4v-2.8c1.4-.1 2-1 2-2.3 0-2.2.1-4.3.1-6.5 0-1.7 0-3.4 2-4.1 1.2 15 .6 29.9.3 44.9-1 .6-1 1.7-1 2.7-.2 11.9-2.2 23.7-1.8 35.7.1 1.8.3 3.7-1.2 5.2-.6.4-.7 1.2-.4 1.8.4.7 2 1.4.6 2.3-1.4.8-1.9-.8-2.7-1.5-.1-.1-.3-.2-.4-.3 0-1 .1-2 .1-3 1.3-.7 1-1.9 1-3l.3-13.9c1.1-.7 1.1-1.4 0-2.1.2-13 .5-25.9.7-38.9.7-.4.7-.7 0-1.1l.1-3.9c2.6-2.3 2.8-6.2.5-8.8 0-.2-.1-.3-.2-.4z"/><path class="prefix__st3" d="M269.1 74.5c.3-15 .9-29.9-.3-44.9.4-2.4-1.3-4.6-.8-7.1 1-4.4.8-4.7-5.1-4.9 2.8-1.8 3.8-3.8 2.5-6.7-.6-1.2-.1-2.4 2.1-2 2.9.6 5.7 1.1 8.1 2.8-3.2 4.4-2.3 9.9-3.6 14.8-1.5 5.8-1 11.7-.8 17.7.6 15.4 1.5 30.9.6 46.3-3.7-1.7-1.8-4.8-1.6-7.2.3-3 .3-5.9-1.1-8.8zM254.1 18.3c.8.1 1.9.2 1.6 1.3-1.2 5.9.3 11.7.8 17.6.1 1.5.1 3 .1 4.5-.3 19.8-.5 39.5-1.2 59.3-.2 6.6-1.3 13.1-1.3 19.8 0 .7-.4 1.3-1 1.6.5-28.1 1.1-56.1 1.4-84.2.1-5.3-1.1-10.5-.7-15.8.3-1.4.3-2.8.3-4.1z"/><path class="prefix__st6" d="M271.9 104.5c.9 3 1.8 6 1.5 9.1-.3 3.4 1 4.6 4.3 3.8.9 1.7.5 3.5.7 5.3-.1 3.3-.2 6.7-.2 10-2.9-.5-4-2.8-4.5-5.2-1.6-7.6-3.1-15.2-1.8-23z"/><path class="prefix__st3" d="M253.2 123.2l.1 1.1c-.3 1.7.4 3.6-.9 5.9 0-2.8-1-5 .8-7zM271.8 98.7c-1.6-1.8-1.5-4.4 0-6.1h.2c-.3 2-.4 4.1-.1 6.1h-.1z"/><path class="prefix__st2" d="M254.1 18.3c0 1.3 0 2.7-.1 4-1.4-1.4-1.4-2.7.1-4z"/><path class="prefix__st0" d="M268 22.6c-.5 2.5 1.2 4.6.8 7.1-2 .7-2 2.4-2 4.1 0 2.2-.1 4.3-.1 6.5 0 1.4-.5 2.2-2 2.3.3-7.1-1.5-14-1.7-21.1.6-.9 1.4-1 1.9-.1.8 1.2 2 1.1 3.1 1.2z"/><path class="prefix__st3" d="M262.7 13.7c-.1.6-.7.6-1.4.5-.5-.1-.9-.4-.8-.9.1-.8.8-.9 1.4-.8.6.2.9.4.8 1.2z"/><path class="prefix__st2" d="M278.2 82.8c-.3-7.7-.1-15.4.6-23.1.4 1 .9 2 1.3 3l.3 2c-.1 1.6-.8 3.4.6 4.8-.3 1.4 2 2.8-.6 4.4-1.3.9.1 3.9 1.2 5.4 1.2 1.5 1.6 3.1 2 5.5-1.9-1.1-3.1-3.6-5.4-2z"/><path class="prefix__st6" d="M277.2 114.8c-.9-.2-1.7-.5-1.7-1.5 0-3.5.1-6.9.2-10.4 0-.9 1-1.2 1.8-1.4 0 1.7.1 3.4.1 5.1V113.5l-.4 1.3z"/><path class="prefix__st2" d="M277.6 111.8v-5.1c1.3 1.4 1.3 3.6 0 5.1z"/><path class="prefix__st5" d="M281 69.5c-1.5-1.4-.7-3.2-.6-4.8h.6l.2 2c0 .9-.1 1.9-.2 2.8z"/><path class="prefix__st0" d="M284.6 74.2c-.1-.3-.4-.6-.4-.8s.2-.6.4-.8c.1.3.4.6.4.8s-.2.5-.4.8z"/><path class="prefix__st2" d="M282.4 89.1c-.1-.2-.4-.4-.4-.7 0-.4-.1-.9.5-.9.1 0 .3.5.3.8-.1.3-.2.6-.4.8z"/><path class="prefix__st0" d="M285.9 81.9l-.1 2.9c-1.1-1-1.1-2 .1-2.9z"/><path class="prefix__st2" d="M277.2 114.8l.4-1.2c.5.4.7 1 .5 1.6-.3-.1-.6-.2-.9-.4zM278 91.8c0-.4.1-.8.1-1.2.6.5.5.9-.1 1.2z"/><path class="prefix__st0" d="M310.4 60.3c0 .6-.1 1.2-.1 1.9l-1.9.1c-.2-.9.5-1.8 1.4-2 .2-.1.4-.1.6 0z"/><path class="prefix__st6" d="M279.6 34.8c-1-2.4-1.4-4.8.5-7 .1 2.4 0 4.7-.5 7zM319.2 65.3c-1.6-.9-1.2-3.3-3-4 1.8-6.2 2.4-12.6 1.8-19-.7-6.2-.1-12.6 0-18.9v-1l1-.1v1.1l-.1 5.9c1.6 12.1.4 24.1.3 36z"/><path class="prefix__st2" d="M315.9 42.3l.2-14.1h.5l-.2 14.1h-.5zM318 22.4v1c-.6 0-1.4.9-1.6.1-.3-1.1.9-1 1.6-1.1z"/><path class="prefix__st0" d="M271.1 142.7c-.7.9-1.9 1.2-2.6.5-1.3-1.4-2.4-2.2-3.9-.3-.5.6-1.3.2-1.5-.5-.2-.8.1-1.8 1.1-1.8 2.3-.1 4.6 0 6.8 0l.1 2.1zM261.7 142.1c.1.4-.1.9-.5 1h-.1c-.5.1-.9-.3-1-.8-.1-.5-.2-1.1.3-1.3.6-.1 1 .5 1.3 1.1z"/><path class="prefix__st2" d="M271.1 142.7l-.1-2.1c.8.1 1.7.2 1.6 1.3-.1.6-.9.7-1.5.8z"/><path class="prefix__st4" d="M280.1 131.7v1.1c-.9-.4-.7-.8 0-1.1zM280.1 132.8c.7.3.9.6 0 .9v-.9z"/><path class="prefix__st2" d="M345 19c-.4-.2-.7-.5-.5-1l.5 1z"/><path class="prefix__st0" d="M331.8 31.7c-1.9 0-2 1.3-2 2.7 0 2.8-.1 5.6-.2 8.4 0 1.4-.1 2.7-1.9 2.8-1.2-3.3-.8-6.8-.9-10.2 0-2.9.5-5.9-.6-8.8-.4-1.1-.7-2.9.6-3.6 1.8-1 2.9-4 5.3-2.9s-.2 3.1-.1 4.8c.1 2.2-.1 4.5-.2 6.8zM327.6 47.6c1.3 2.6 2.2 5.1-1 7.1.3-2.4-1-5 1-7.1zM325.8 94.5c1.3 2 2 3.9-1 5.1.2-1.7-.8-3.7 1-5.1zM319 29.4l.1-5.9c1.4 1.7 1.4 4.2-.1 5.9zM330.6 61.6c-1.3-.7-1.2-1.4.1-2 .8.7.8 1.4-.1 2z"/><path class="prefix__st2" d="M316.3 74.4l-.1-1c.2-1.9-.3-3.8 1-6.3 1.7 3.2.8 5.3-.9 7.3z"/><path class="prefix__st6" d="M271.9 98.7c-.3-2-.3-4.1.1-6.1 1.2 1.8 1.2 4.2-.1 6.1z"/><path class="prefix__st0" d="M264.8 45.4c2.5 2.4 2.6 6.4.2 8.8l-.3.3.1-9.1zM263.4 114.4c0 1.1.3 2.3-1 3-1.7-1.6-1.2-2.6 1-3zM263.8 98.4c1 .7 1 1.4 0 2.1-.1-.7 0-1.4 0-2.1zM264.5 58.4c.7.4.7.8 0 1.1v-1.1z"/><path class="prefix__st2" d="M474.5 26c-2.1-7.9 1.8-13.3 7.2-18.2.5-.4 1.1-.8 1.5-1.3 1.4-1.5 3.3-2.5 5.4-3 4.5-.5 8.9-2.9 13.6-1.8.4.6 1.1.8 1.7.6C510 .4 516.3 1 522.5.5c1.6-.1 3.3-.8 4.7.7-9.4-.1-18.7 2.1-28.1 2.5-1.3.1-2.8-.3-4.9 1.4 10.3-1.4 19.7.4 29-.6 2.1-.2 4.5-.2 4.8-3.1 2.4.6 4.4 2.3 5.3 4.7-1.3 1.8-5.7-1.6-5.2 3.5.1 1.3-1.9.1-2.9-.2-1.5-.4-2.3-2.2-4.5-1.2-1.7.7-3.5.9-5.3.8-1.9-.1-3.6-.4-3.8 2.3.1 2 .2 3.9.3 5.9.1 1.1.5 1.9 1.8 1.7 3.7 1.6 7.7-.4 11.4.8 2.8-.1 1.9-3.4 3.6-4.4 2.2 0 3.4 1.9 5.3 2.6 1 1.2-2.8 5.1 1.3 3.8 4.6-1.4 4.8 1.9 5.7 3.9 2.5 6.2 2.3 6.3 8.7 5.8l1 1c-4.7 2.2-4.3 2.1-2.6 7.6 1.4 4.3 3.7 8.6 2.6 13.5 0 .2 0 .5.1.7l-1 .2c-1.6-4.2-2.6-4.7-7-3.3-.8.2-1.5.5-2.3.8-.1-1.6.2-3.3.1-4.8-.1-3-.2-6.3-3.6-8-.6-.1-1-.6-1.1-1.2 1.2-.8.8-1.3-.3-1.8-.1-1.3-.6-2.1-2.1-1.9.1-.9-.3-1.9-1.2-2.3-8-3.4-16.4-1.4-24.7-1.6.1-2.4 3-1.5 2.8-3.5-.3-.1-.6-.4-.9-.3-2.8 1-5.6 2.3-7.5-1.4-.2-.4-1.3-.3-1.8-.6-.8-.4-2.9.6-2.1-1.6.7-1.7 2 0 3-.1l1.3.3c.3-1.4-.7-1.9-1.7-2.3-.4-1.5.5-4.4-2.9-3-1.3.8-2.6 1.6-4.3 1.1 1-.8 2.2-1.6.7-3-1.1-1-1.6.1-2.4.5-2 1.1-2.5 2.8-2 4.8l-1 .2c-.3-1-.5-2.7-2-.9-3 3.5-4 7.8-4.3 12.1-.2 2.9-.9 6.3 1.3 9l.3 6c-1.3.1-2.8 0-2.8 1.9 0 1.5-.2 3.1 2.1 3.1.8 3.5-1 6.9-.4 10.3 1.1 7.3 1.7 14.6 2.1 21.9.2 3.8-.3 7.7 1 11.3 1 3.1 1.6 6.5.8 9.3-1.3 4.9 1.1 9.1.9 13.7-.1 2.2 1.4 2.3 3 2.1 1 8.1 1.9 8.6 9.3 5.6-.3 2.7.7 5.2 1.6 7.6.5 1.2.5-.6.9-.9 1.1.8.9 2 1.1 3.1-1.8.7-2.9 2.1-4.1 3.4-.7.5-.8 1.5-.3 2.1.5.7 1.2.2 1.8 0 1.5-.7 3-1.3 4.8-2.1 0 3.1-2.8 2.9-3.9 4.4-.3.1-.6.2-.9.2-.8.1-1.6.1-2 1l-1.8.3c-.3-1.4-.2-2.7-2.2-3.2-1.7-.5-3.2-1.4-4.5-2.6-1.3-1.3-.2-1.9 1.1-2.1 0 .1.1.3.2.4.1.1.2 0 .3.1l-.5-.4c-.6-1.9.7-3.8.2-5.9-2.3.7-3.6 3.3-5.9 3-5-.7-3 1.8-1.9 3.9.4.7.7 1.5.8 2.3-3.6-1.4-4.2-4.5-4.4-7.8 1.1-4.7 1.5-9.5 1.2-14.3-.1-1.2-.9-1.7-2-1.7 0-1.4-.8-3 .7-4.1 1.5-.1 2.3-1 1.8-2.3-1.4-3.9-.2-7.8-.5-11.7-1-17.2-1.8-34.5-3.5-51.6-.7-7.1.5-14.4-2.2-21.4l4 79.1-1.4.1c-1.2-7.5-1.1-15.1-1.6-22.7-.6-9.1-.9-18.1-1.4-27.2.9-.7.8-1.8.7-2.8-.4-8.1-.8-16.3-1.2-24.4.3-.8.4-1.8-.6-2.6z"/><path class="prefix__st4" d="M489.2 21.3l1-.2c2 .4 2-2.4 3.7-2.3 1.6.5 2.9-.3 4.3-1.1 1.4.6.7 3.2 2.9 3 .1.6.3 1.3.4 1.9-1 .2-2.3-1.6-3 .1-.8 2.2 1.3 1.1 2.1 1.6.6.3 1.6.2 1.8.6 1.9 3.8 4.7 2.4 7.5 1.4.2-.1.6.2.9.3.1 2-2.8 1-2.8 3.5 8.3.3 16.7-1.8 24.7 1.6-.3.9.2 2 1.1 2.3h.1c.3 1 1.1 1.7 2.1 1.9l.3 1.8c.1.6.5 1.1 1.1 1.2 1.7 4.9 2.5 9.8.5 14.8-.6 1.1-3.3 1.8-.8 3.6-2.5 4.8-7.1 7-11.7 8.9-1.8.7-4.3 1.4-6.2-.9-1-.9-2.3-1.4-3.6-1.3-1.7-1.7-3.8-1.9-6.1-1.6l-1.1-.1c-2 .8-2.1 2.5-1.6 4.2 1.3 5.2 1.2 10.5 1.6 15.7.1 2 .2 4 2.3 5.1 1.5-.2 2.9.8 3.1 2.3v.5c-.8.4-.8.8 0 1.1.1.8.2 1.6 1.1 2 1.4 2.8 2.7 5.8 5.4 7.7.1 1.1 0 2.3 1.2 2.9.1.5.4.9.9 1l1.2 1c.1.8.2 1.7 1.1 2-.1.8.4 1.6 1.1 2-.1 1.4.8 2.6 2.2 2.9 0 .9.1 1.7 1.1 2 .1 1.1-.1 2.3 1.2 3 0 .3.1.6.1 1 .4 2.8 2.4 5.1 2.4 8-4.2-5.6-7.3-11.9-11-17.7-4.2-6.5-8.3-13.2-12.3-19.6-1.2 0-1.3.7-1.3 1.3.7 10.6 1.5 21.2 2.2 31.8.2 2.5 1.5 4.7 2 7.2-.5.9-.4 2 .2 2.8-1.1 5.5-2 11.3-8.9 12.8l-1-.2c1-1.5 3.9-1.4 3.9-4.4-1.8.8-3.3 1.4-4.8 2.1-.6.3-1.2.7-1.8 0-.5-.7-.4-1.6.2-2.1 1.3-1.3 2.4-2.7 4.1-3.4 1.8 1.1 3.7 1.6 5.3-.3 1.4-1.8-.4-2.9-1.1-4.2-.7-1.3-1.6-2.7-1.5-4.1 0-2.8-2-1.8-3.3-2.2 1.2-1.1 1.8-2.7 1.5-4.3-.8-5.4-1.1-10.9-1.8-16.3-1.9-13.4-2.4-26.7.5-40 .2-.6.2-1.2 0-1.8-4.1-9.2-3.9-19-2.5-28.4.7-4.5-.1-6.6-3.1-8.9l-2.7-2.1c-.6-.9-1.1-1.1-1.8-.1-2.7 4.4-1.6 9.3-2.4 14.1-1.5.6-2.8-.7-4.3-.4.5-6.1-.1-11.8 2.1-17zm27.4 38.8c2-.1 4-.1 6-.3 6.1-.8 9.9-4.4 11.4-10.2 1.3-4.8-.6-8.8-3.9-12.1-4.2-4.3-9.6-3.9-14.9-3.6s-8.5 3.5-8.8 8.9c-.2 2.3 0 4.6-.1 7-.5 10.3-2.4 10.6 10.3 10.3zm-12.5-12.4c-.4-2.8 1.3-5.5.6-8.8-1.5 3.2-1.8 5.9-.6 8.8zm2.5-12.4l-.3-.4c-.1.1-.3.2-.3.3 0 .4.1.6.5.4.1.1.1-.1.1-.3z"/><path class="prefix__st0" d="M532.4 126.3c.1-2.9-2-5.2-2.4-8 .8-.4.6-.7-.1-1-.1-1.1.2-2.4-1.2-3-.1-.8-.1-1.7-1.1-2 0-1.5 0-3-2.2-2.9-.1-.8-.2-1.6-1.1-2-.1-.8-.2-1.6-1.1-2-.2-.5-.6-.9-1.2-1-.5-.1-.8-.5-.9-1 1.8-1.9-.1-2.2-1.2-2.9-.8-3.3-1.3-6.8-5.4-7.7 0-.9-.2-1.6-1.1-2v-1.1c.1-1.5-1.1-2.8-2.6-2.8h-.5c-.6-6.6-1.2-13.3-1.8-19.9.9.1 1.7.4 1.8 1.4.2 8.5 5.5 13.5 11.9 17.9.9.7 2 1 3.2.8 1.2 1.8 3.6.5 5 1.8 1 2.1 2.1 4.2 3.4 6.2 8.2 11.6 16 23.5 25.8 33.8 1.4 1.5 3 2.6 5.2 2.5l.5 1.9c-4.1.7-1.6 3.4-1.4 5.3-2.4 1.2-5.5 1-6.5 4-.6.5-1.3.7-2 .6 0-.8 0-2.2-.7-2.1-2.9.3-5.5-1.8-8.4-1-1.5-.6-2.6-2.3-4.6-1.7h-.4l-.1-.3c-1.6-3-2.5-6.4-5.7-8.3v.1c.3-1.9-1.4-2.8-3.1-3.6z"/><path class="prefix__st2" d="M557.3 143.1c1-3 4.1-2.9 6.5-4-.2-1.9-2.7-4.6 1.4-5.3l-.5-1.9c1.1-4.8.8-9.4-2.8-13.1-4-4.2-6-9.5-8.8-14.3.2-1.1 0-2.3-.6-3.3-3.2-5.1-7.2-9.9-6.3-16.6.2-.9-.4-1.7-1.3-1.9h-.5c-1.3 0-2.7.1-4 .1-.4-.7-.7-1.3-1.1-2 1.6-.2 3-1.5 4.8-1.2.1 1.5.9 2.2 2.3 1.7 1.6-.6 2.9-1.6 3.9-2.9 3-3.9 7.2-6.4 9.8-11 2.2-3.9 4.3-7.5 4.6-12 .3-1.3.5-2.6.8-3.9 1.4-3.4 1.5-6.8-.4-10.1h-.8l-.2-3.1c0-.6-.1-1.2-.1-1.9l-1.1-3.5c-.4-1.2.2-2.7-1.4-3.4-2.3-1.9-1.6-5.4-3.7-7.5.3-3.5-2.2-5.1-4.6-7-2.8-2.2-5.8-4.3-5.8-8.4 6.3 5.8 12.8 11.6 16.3 19.5 3.7 8.3 5.4 17.3 3.9 26.7-1.8 11.1-7.5 19.8-15.9 27.1-5.1 4.3-5.6 8.7-1.7 14 5.6 7.7 9.8 16.2 15.7 23.6 2 2.5 4 5.7 4.4 8.7.5 4-1.1 8-3.2 11.6-.8 1.1-1.8 2.1-2.8 2.9-2.2 1.3-3.6 1.5-5.9 2.4-.2.2-.6.1-.9 0z"/><path class="prefix__st1" d="M547.5 6.8c0 4.1 3 6.2 5.8 8.4 2.3 1.8 4.8 3.5 4.6 7-3.1-3-7.6-3.2-11.2-5.3-1.9-1.2-4.3-.9-5.8.8l-2.8.1c-.7-1-1.3-1.1-2-.1H534c-1.8-.7-3.1-2.6-5.3-2.6-.1-.8.2-1.9-.6-2.2-1.6-.6-1.1 1.1-1.6 1.8-.3.3-.7.6-1.1.8H521c-1.9-2.3-4.2-3.8-7.4-3.4-.4-.7-1.2-1.1-2-.9.2-2.6 1.9-2.3 3.8-2.3 1.8.2 3.6-.1 5.3-.8 2.1-1 3 .7 4.5 1.2 1 .3 3 1.5 2.9.2-.5-5 4-1.7 5.2-3.5 1.7 1.7 3.5.7 5.3-.3l-5.2.3c-.9-2.3-2.9-4.1-5.3-4.7-.3 0-.5-.1-.8-.1-1.4-1.4-3.1-.8-4.7-.7-6.2.7-12.6 0-18.6 1.9-.7.2-1.4-.1-1.7-.6C512.9 0 523.8-.5 534.5.5c2.6.5 5.2 1.3 7.7 2.3 1.3.6 3.9 3.1 5.3 4z"/><path class="prefix__st4" d="M492 138.3c-1.3.2-2.5.8-1.1 2.1 1.3 1.2 2.8 2.1 4.5 2.6 2 .5 1.9 1.8 2.2 3.2 0 .3-.1.6-.1.9-1.4.4-2.8.5-4.2.2-1.5-.3-3.6 1-4.2-1.5l.2-.3c.9-.2 2.5-.4 1.2-1.6-1.5-1.4-3.4-2.1-5.4-2.2-.1-.8-.3-1.6-.8-2.3-1.1-2.1-3.1-4.5 1.9-3.9 2.2.3 3.5-2.2 5.9-3 .6 2-.7 3.9-.1 5.8z"/><path class="prefix__st4" d="M480.7 113.8c-1.5 1.1-.7 2.7-.7 4.1l.7 15.9c.2 3.3.8 6.4 4.4 7.8.1 2.7 3.2 2 4.2 3.8l-.2.3-1.5-.1c-7.1-2.8-9-8.5-9-15.5l.3-24.2 1.4-.1.4 8z"/><path class="prefix__st2" d="M546.2 140.5c2.9-.8 5.5 1.3 8.4 1 .7-.1.7 1.3.7 2.1-2.9 1.4-5.5.6-8-1.1-.1-.5-.5-.9-1-1-.1-.3-.1-.6-.1-1z"/><path class="prefix__st4" d="M474.5 26c.9.7.9 1.7.9 2.7.4 8.1.8 16.3 1.2 24.4 0 1 .2 2-.7 2.8-.8-9.9-1.5-19.9-1.4-29.9zM535.4 130.2c3.2 1.8 4.1 5.3 5.7 8.3-3.7-1.5-4-5.4-5.7-8.3z"/><path class="prefix__st6" d="M497.5 147c0-.3 0-.6.1-.9l1.8-.3c.8 0 1.7-.1 2-1 .3 0 .6-.1.9-.2l1 .2c-1.2 2-3.6 2.9-5.8 2.2z"/><path class="prefix__st4" d="M546.2 140.5c0 .3 0 .7.1 1v.6c-2.3 0-3-2.3-4.6-3.3 1.8-.5 3 1.2 4.5 1.7zM532.4 126.2c1.7.8 3.4 1.8 3 4.1-1.8-.7-2.4-2.4-3-4.1z"/><path class="prefix__st6" d="M512.2 132c-.6-.8-.7-1.9-.2-2.8.7.8.8 1.9.2 2.8z"/><path class="prefix__st0" d="M546.2 142.2v-.6c.5.1.9.5 1 1l-1-.4z"/><path class="prefix__st3" d="M525.5 87.5c-1.1.1-2.3-.2-3.2-.8-6.3-4.4-11.7-9.4-11.9-17.9 0-1-.9-1.3-1.8-1.4-.1-1.7-.3-3.4-.4-5.1l1.1.1c1.8 1.2 3.9 1.8 6.1 1.6 1.3-.1 2.6.4 3.6 1.3 1.9 2.3 4.3 1.7 6.2.9 4.6-1.9 9.2-4.1 11.7-8.9l1.8-2.7c1.2-.6 1.4-1.9 1.9-2.9.8-.3 1.5-.5 2.3-.8 4.4-1.4 5.4-.9 7 3.3-1 3.7-2.6 7.2-4.8 10.3-.8 0-1.7-.2-2.3.5-2.5 3.3-6 5.2-9.5 7.2-1.1.6-2.6.9-2.4 2.6-4.5 2.7-6.1 6.8-5.4 11.9.1.3 0 .6 0 .8z"/><path class="prefix__st0" d="M500.4 126.8c-7.4 3.1-8.3 2.5-9.3-5.6-1-26.7-3.3-53.2-5-79.8 0-.7-.1-1.4-.1-2.1 2.2-.2 4 .1 4.3 2.9.4 4 1.4 7.8 1.5 11.8.7 15.6 1.5 31.2 2.5 46.8.2 3.4-.2 7.5 4 9.3l.6 5.7c-1.8 2.8-.5 5 1.2 7.1.1 1 .2 1.9.3 2.9v1z"/><path class="prefix__st3" d="M486.1 41.4c1.7 26.6 4 53.2 5 79.8-1.6.2-3.1.1-3-2.1.2-4.6-2.3-8.8-.9-13.7.8-2.8.2-6.2-.8-9.3-1.2-3.7-.7-7.6-1-11.3-.4-7.3-1-14.6-2.1-21.9-.5-3.5 1.3-6.8.4-10.3-.4-1.8.8-3.3.7-5.1l-.3-6 2-.1zM480.7 113.8l-.4-8-4-79.1c2.7 7 1.5 14.3 2.2 21.4 1.7 17.2 2.5 34.4 3.5 51.6.2 3.9-1 7.8.5 11.7.5 1.4-.3 2.3-1.8 2.4z"/><path class="prefix__st4" d="M550.8 53.3c1.1-4.9-1.2-9.2-2.6-13.5-1.7-5.4-2.1-5.4 2.6-7.6.1-.2.1-.3.2-.5 1.1.4 2.3.1 2.5 2.2.4 5 .6 10 3.2 14.6 1.1 1.9-1.1 1-1.9 1.4h-1l-.5-.4.5.5c.2.5.7.9 1.2.8.9.4 1.1 1.2 1.3 2-.4 1.1-.7 2.3-2.3 1.9-.8-.9-2-1.5-3.2-1.4z"/><path class="prefix__st2" d="M486.1 41.4l-2 .1c-2.1-2.7-1.5-6.1-1.3-9 .3-4.3 1.4-8.6 4.3-12.1 1.5-1.8 1.7-.1 2 .9-2.2 5.2-1.6 10.8-2.4 16.3-.7.4-.7 1.1-.7 1.8s.1 1.3.1 2z"/><path class="prefix__st4" d="M538 17.8l2.8-.1 1.1 1.1c.7 4.5 3.9 7.3 6.7 10.5l1.2 2c-6.4.5-6.2.4-8.7-5.8-.8-2.1-1.1-5.3-5.7-3.9-4.1 1.3-.3-2.6-1.3-3.8h1.9c.6 1.1 1.3 1.3 2 0z"/><path class="prefix__st3" d="M527.2 1.3c.3 0 .6 0 .8.1-.3 3-2.7 2.9-4.8 3.1-9.4 1.1-18.7-.7-29 .6 2.1-1.6 3.6-1.3 4.9-1.4 9.5-.3 18.7-2.5 28.1-2.4z"/><path class="prefix__st6" d="M500.4 126.8c0-.3-.1-.7-.1-1l3-.1c1.3.4 3.3-.5 3.3 2.2 0 1.3.9 2.8 1.5 4.1.7 1.4 2.6 2.5 1.1 4.2-1.5 1.9-3.4 1.4-5.3.3-.1-1.1 0-2.3-1.1-3.1-.1-1.6-.3-3.1-.4-4.7l-.1-1.1c-.2-.9-1.1-.8-1.9-.8z"/><path class="prefix__st4" d="M521 15.4h4.4c-.1 1.4-.2 2.7-.3 4.1-3.7-1.2-7.7.9-11.4-.8 0-1.6.1-3.2.1-4.7 2.4.8 4.6 2 7.2 1.4zM545.1 64.6c2.2-3.1 3.8-6.6 4.8-10.3l1-.2c1.3.6.8 1.5.5 2.4-1 2.9-1.9 5.9-2.8 8.8l.1 1.1-1.2.1-2.4-1.9z"/><path class="prefix__st6" d="M540.8 46.9c.1 1.6-.2 3.2-.1 4.8-.5 1-.7 2.3-1.9 2.9l-1.8 2.7c-2.5-1.8.2-2.5.8-3.6 2-5 1.2-9.9-.5-14.8 3.3 1.7 3.3 5 3.5 8z"/><path class="prefix__st1" d="M548.6 65.3c.9-2.9 1.8-5.9 2.8-8.8.3-1 .8-1.8-.5-2.4-.1-.2-.1-.5-.1-.7 1.2-.1 2.4.4 3.1 1.5.2 4.4-2.5 7.4-5.3 10.4z"/><path class="prefix__st3" d="M480.8 133.8l-.7-15.9c1.1 0 1.9.4 2 1.7.2 4.8-.2 9.6-1.3 14.2z"/><path class="prefix__st1" d="M493.9 18.8c-1.7 0-1.8 2.7-3.7 2.3-.5-2.1-.1-3.8 2-4.8.8-.4 1.4-1.5 2.4-.5 1.4 1.4.3 2.1-.7 3z"/><path class="prefix__st6" d="M525.1 19.5c.1-1.4.2-2.7.3-4.1.4-.2.8-.5 1.1-.8.5-.6 0-2.3 1.6-1.8.9.3.5 1.4.6 2.2-1.7 1.1-.7 4.4-3.6 4.5zM513.8 14c0 1.6-.1 3.2-.1 4.7-1.3.2-1.7-.6-1.8-1.7-.1-2-.2-3.9-.3-5.9.8-.2 1.6.1 2 .9l.2 2z"/><path class="prefix__st4" d="M502.5 128.8c.1 1.6.3 3.1.4 4.7-.4.3-.4 2.2-.9.9-1-2.3-1.9-4.9-1.6-7.6.8 0 1.7-.2 2 .9-.7.4-.7.8.1 1.1z"/><path class="prefix__st2" d="M484.4 47.5c.1 1.7-1.2 3.3-.7 5.1-2.3 0-2.1-1.7-2.1-3.1 0-2 1.5-1.8 2.8-2z"/><path class="prefix__st6" d="M501.1 20.7c-2.2.2-1.6-2.4-2.9-3 3.4-1.4 2.4 1.5 2.9 3zM501.5 22.6c-.1-.6-.3-1.3-.4-1.9 1 .4 2 .8 1.7 2.3l-1.3-.4zM535.9 36c-1-.2-1.8-.9-2.1-1.9 1.5-.3 2 .5 2.1 1.9z"/><path class="prefix__st6" d="M536.1 37.7l-.3-1.8c1.1.5 1.6 1 .3 1.8zM533.8 34.1c-.9-.3-1.5-1.3-1.2-2.2v-.1c.9.4 1.3 1.3 1.2 2.3z"/><path class="prefix__st4" d="M501.4 144.8c-.4 1-1.2 1-2 1 .3-.8 1.1-.9 2-1z"/><path class="prefix__st1" d="M550.8 32.3l-1-1h1.1l.1.5c-.1.2-.1.3-.2.5z"/><path class="prefix__st4" d="M492 138.3l.5.4c-.1 0-.2 0-.3-.1-.1-.1-.2-.2-.2-.3z"/><path class="prefix__st5" d="M503.3 125.8l-3 .1c-.1-1-.2-1.9-.3-2.9 0-2.4.7-5-1.2-7.1l-.6-5.7c-.5-8.4-1.8-16.7-2.1-25.2 0-6.3-.4-12.6-1.2-18.8-.8-5.4-.8-10.9-1.5-16.3-.8-5.3-1.8-10.4.4-15.6 1.3-3.2.2-6.9 1.4-10.2l2.7 2.1c3 2.3 3.8 4.5 3.1 8.9-1.4 9.4-1.6 19.2 2.5 28.4.2.6.2 1.2 0 1.8-3 13.3-2.4 26.6-.5 40 .8 5.4 1.1 10.9 1.8 16.3.3 1.5-.3 3.1-1.5 4.2z"/><path class="prefix__st1" d="M495.2 24c-1.2 3.3-.1 7-1.4 10.2-2.1 5.2-1.1 10.4-.4 15.6.8 5.4.7 10.9 1.5 16.3.8 6.2 1.2 12.5 1.2 18.8.2 8.4 1.6 16.8 2.1 25.2-4.2-1.8-3.8-5.9-4-9.3-1-15.6-1.8-31.2-2.5-46.8-.2-4-1.2-7.9-1.5-11.8-.3-2.7-2-3.1-4.3-2.9 0-.7 0-1.4.7-1.8 1.5-.3 2.8 1 4.3.4.8-4.8-.3-9.7 2.4-14.1.7-1 1.3-.7 1.9.2z"/><path class="prefix__st6" d="M508.3 62.3c.1 1.7.3 3.4.4 5.1.6 6.6 1.2 13.3 1.8 19.9-2.1-1.1-2.1-3.1-2.3-5.1-.4-5.3-.3-10.6-1.6-15.7-.4-1.7-.3-3.4 1.7-4.2z"/><path class="prefix__st1" d="M514.7 93.1c4.2.9 4.6 4.5 5.4 7.7-2.6-1.9-3.9-4.9-5.4-7.7z"/><path class="prefix__st0" d="M504.1 47.7c-1.2-2.9-.9-5.7.6-8.8.6 3.3-1 6-.6 8.8z"/><path class="prefix__st6" d="M515.5 64c-2.1.2-4.3-.4-6.1-1.6 2.2-.3 4.4-.1 6.1 1.6z"/><path class="prefix__st1" d="M525.6 109.5c2.1-.1 2.2 1.4 2.2 2.9-1.4-.3-2.3-1.5-2.2-2.9zM520.1 100.8c1.1.7 3 1 1.2 2.9-1.2-.6-1-1.8-1.2-2.9zM528.8 114.4c1.3.6 1.1 1.9 1.2 3-1.3-.7-1.1-1.9-1.2-3zM527.7 112.4c1 .3 1.1 1.1 1.1 2-1-.3-1.1-1.1-1.1-2zM523.4 105.6c.9.4 1.1 1.1 1.1 2-1-.3-1.1-1.1-1.1-2z"/><path class="prefix__st0" d="M506.6 35.3c0 .1 0 .4-.1.4-.3.2-.5 0-.5-.4 0-.1.2-.2.3-.3l.3.3z"/><path class="prefix__st1" d="M524.5 107.6c.9.3 1.1 1.1 1.1 2-.8-.4-1.2-1.2-1.1-2zM513.6 91.1c1 .3 1.1 1.1 1.1 2-.9-.4-1-1.2-1.1-2zM530 117.3c.7.2.9.6.1 1-.1-.3-.1-.7-.1-1zM522.2 104.7c.5.1 1 .5 1.2 1l-1.2-1zM513.6 90.1v1.1c-.8-.4-.8-.7 0-1.1z"/><path class="prefix__st5" d="M553.2 104.4c2.8 4.8 4.8 10.2 8.8 14.3 3.6 3.7 3.9 8.3 2.8 13.1-2.2.1-3.7-1-5.2-2.5-9.8-10.3-17.6-22.3-25.8-33.8-1.3-2-2.4-4.1-3.4-6.2.1-1.6.8-2.4 2.5-1.9.9.2 1.8.7 2.7.2 2 .7 4.7-.6 6 2.4.9 2.2 1.5 4.1-.3 6.4 2.7-1.4 3.9.1 5.5 1.4 2.4 2 3 5.6 6.4 6.6z"/><path class="prefix__st1" d="M535.7 87.6c-1 .4-1.8 0-2.7-.2-1.6-.4-2.3.4-2.5 1.9-1.4-1.4-3.8-.1-5-1.8 0-.2.1-.4 0-.6 1.4-.4 2.5-1.5 2.9-3 .6-1.7.6-4.7 4.1-3 .5.2 1.6-1.2.4-2.1-.9-.7-2.1-1-1.8-2.5.5-.1 1.2.2 1.1-.7 0-.2-.7-.2-1.1-.3l-.2-.2c-.2-1.8 1.4-2.1 2.4-2.6 3.5-1.9 7-3.9 9.5-7.2.6-.7 1.5-.5 2.3-.5l2.5 1.9c0 .8 1.6 2.2.2 2.1-4.5-.2-7.1 2.6-10 5.2-1.1.4-2.6-.2-3.7 1.4 2.2.6 2.7 3.3 5 3.5.1.7.2 1.3.3 2l1.1 2c-3.4-.3-4.5 1.8-4.8 4.7z"/><path class="prefix__st5" d="M550.9 31.8l-.1-.5c0-.3.1-.6.1-.9.5-.5.7-1-.1-1.4l-.1-.2c-1.3-4.8-5-7.5-8.9-10.1l-1.1-1.1c1.5-1.7 3.9-2 5.8-.8 3.6 2.1 8.1 2.3 11.2 5.3 2 2.1 1.4 5.5 3.7 7.5.4 1.2-.4 2.8 1.4 3.4l1.1 3.5c-.9.7-1.2 1.3.1 1.9l.2 3.1c-3.9 3.9-3.1 9.6-5.1 14-2-.2-2.2-1.8-3.1-2.6-.2-.8-.4-1.6-1.3-2-.1-.3-.1-.6-.2-.9.8-.3 3 .6 1.9-1.4-2.6-4.6-2.8-9.7-3.2-14.6 0-2.2-1.2-1.8-2.3-2.2z"/><path class="prefix__st3" d="M537.8 73.8c2.9-2.6 5.5-5.3 10-5.2 1.5.1-.2-1.4-.2-2.1l1.2-.1c4.7 4 4.7 3.9 7.9-1.3.7-1.1 1.4-2.2 2.2-3.2 2-2.4 3.1-5.4 2.9-8.6 1.1 1.2 1.7 2.3 3.1 2.1-.3 4.5-2.4 8-4.6 12-2.6 4.6-6.8 7.1-9.8 11-1 1.3-2.4 2.3-3.9 2.9-1.4.5-2.2-.2-2.3-1.7 2.3-2.3 6-3.3 8-7.6-4.9 1.9-7.4 6.4-12.1 5.8-2-.8.6-4-2.4-4z"/><path class="prefix__st1" d="M564.8 55.4c-1.3.3-2-.8-3.1-2.1.1 3.1-.9 6.2-2.9 8.6-.8 1-1.5 2.1-2.2 3.2-3.2 5.2-3.2 5.2-7.9 1.3l-.1-1.1c2.8-3 5.5-6 5.3-10.5 1.6.4 1.9-.8 2.3-1.9.9.9 1.1 2.5 3.1 2.6 2.1-4.5 1.3-10.2 5.1-14h.8c0 2.1.5 4.1-.9 6.1-1.1 1.5-1.4 3.4 1.4 4-.4 1.2-.6 2.5-.9 3.8z"/><path class="prefix__st3" d="M535.7 87.6c.3-2.9 1.4-5 4.8-4.9 1.3-.1 2.7-.1 4-.1.9-.1 1.7.5 1.8 1.4v.5c-.9 6.7 3 11.5 6.3 16.6.6 1 .8 2.2.6 3.3-3.4-1-4-4.6-6.4-6.6-1.6-1.3-2.8-2.8-5.5-1.4 1.8-2.3 1.3-4.2.3-6.4-1.2-3-3.9-1.7-5.9-2.4z"/><path class="prefix__st0" d="M540 77.7c4.8.6 7.2-3.9 12.1-5.8-2 4.3-5.6 5.3-8 7.6-1.8-.3-3.1 1-4.8 1.2l-.3-2c.6-.1.9-.5 1-1z"/><path class="prefix__st1" d="M565.6 51.5c-2.7-.6-2.4-2.5-1.4-4 1.4-2 1-4 .9-6.1 2 3.3 1.9 6.7.5 10.1zM562.9 33.1c-1.9-.5-1-2.2-1.4-3.4 1.6.6 1 2.2 1.4 3.4z"/><path class="prefix__st6" d="M564.2 38.4c-1.3-.5-1-1.2-.1-1.9 0 .7 0 1.3.1 1.9z"/><path class="prefix__st0" d="M513.8 14l-.2-2c3.2-.4 5.5 1 7.4 3.4-2.6.6-4.8-.6-7.2-1.4zM533.4 6l5.3-.3c-1.8 1.1-3.6 2-5.3.3zM538 17.8c-.7 1.3-1.4 1.1-2-.1.6-1 1.3-1 2 .1zM489.4 145.4c-1-1.7-4.1-1.1-4.2-3.8 2 0 3.9.8 5.4 2.2 1.3 1.2-.4 1.4-1.2 1.6zM531.1 76.2c-.3 1.5 1 1.8 1.8 2.5 1.2.9.1 2.3-.4 2.1-3.5-1.7-3.5 1.3-4.1 3-.4 1.4-1.5 2.6-2.9 3-.7-5.1 1-9.1 5.4-11.9l.2.2v1.1z"/><path class="prefix__st1" d="M498.9 115.8c1.9 2.1 1.2 4.7 1.2 7.1-1.7-2.1-3.1-4.3-1.2-7.1zM553.6 50.1l-.5-.5.5.5zM554.7 50c0 .3.1.6.2.9-.5.1-1.1-.3-1.2-.8l.1-.1h.9zM541.9 18.8c3.9 2.5 7.6 5.3 8.9 10.1l-2.2.4c-2.8-3.2-6-6-6.7-10.5z"/><path class="prefix__st0" d="M548.6 29.3l2.2-.4.1.2.1 1.4c0 .3 0 .6-.1.9h-1.1l-1.2-2.1zM502.5 128.8c-.8-.3-.8-.7-.1-1.1l.1 1.1z"/><path class="prefix__st2" d="M540 77.7c-.1.5-.4.9-.9 1.1-2.4-.3-2.8-2.9-5-3.5 1.1-1.6 2.5-1.1 3.7-1.4 3-.1.4 3.1 2.2 3.8z"/><path class="prefix__st3" d="M531.1 76.2v-1c.4.1 1.1.2 1.1.3.1.9-.6.6-1.1.7z"/><path class="prefix__st1" d="M550.9 30.4l-.1-1.4c.8.5.6.9.1 1.4zM108.6 21.5c-.5 10.8-7.2 18.4-13.4 26.2-7.8 9.9-14.9 20.3-23.7 29.4-3.2 3.3-5 7.6-5.2 12.1-.4 6.4-1.3 12.9-2 19.3-2.3.2-1.8 2-1.9 3.4-.3 5-.2 10-.8 14.9-.7 5.3.4 10.9-2.9 15.7-.7.3-.3 1.2-.8 1.6-2.1 1.8-1.5 1.7-2.6 2.2-3.3 1.3-5.3 2.6-8.6 1.4 2.1-1.5 4.4-2.7 6.8-3.6 1.3-.5 2.6-1 2-2.7-1-2.8 0-5.5-.2-8.3 1.6-1 1-2.7 1.2-4 .6-4.1.8-8.2 1.9-12.2 2.2-8.2.2-16.5 1.1-24.7.2-1.6 2-5.7-2.3-5.8-3.8 0-2.3 3.7-3.3 5.7-.2 0-.5-.1-.7-.1 0-.3 0-.7.1-1 0-.5-.3-1-.8-1.1l-1.9-.1c3.1-3.4 4.2-7.9 6.6-11.7 1.4-.1 3 .8 4-.8.8 0 1.9.3 2.4-.2 3.2-2.6 6.3-5.3 9.3-8.2 1.1-1.1-.9-1.8-1.2-2.8 3.1-1.7 5.4-4.5 6.6-7.8 2.9-2.6 4.1-6.6 7.4-8.8 1.3-.3 2.2-1.5 2.2-2.8 2-1 2.8-3.2 4.4-4.7 3.1-2.9 5.1-6.9 8.5-9.7 1.2-.9 1.4-2.7.5-3.9 0-.1-.1-.1-.1-.2-1.2-1.4-2.5-.1-3.5.6-2.5 2-5 3.9-6.6 6.7-.8 1.4-1.4 3.1-3.5 3.1-2.1-1.5-1-3.1-.2-4.7.6-1.4 2.3-2.7.5-4.4 2.8-5 6-9.9 3.8-16.1-.3-1 .7-1.8 1-2.7 1.2 2.1 3.8 2.4 5.4 4 .2.2.5.4.8.6-.6 1.5-1.3 3-1.7 4.6-.9 3.3.1 5.6 2.7 6.3 3.6.9 5.6-.4 6.3-4.1.3-1.5-.4-3.6 2.3-3.5l.4 1.9c-.1.2-.2.3-.2.5-.4 0-.3.3-.1.5z"/><path class="prefix__st3" d="M98.4 15.2c-.3-.2-.5-.4-.8-.6-1.6-1.6-4.2-1.9-5.4-4-2.2-1.8-4.6-1.3-7-.7-.9.2-2.2.6-1.6 2 .7 1.6 1.4.2 2.2-.1 2.3-.9 2.2 0 2.5 2.2.4 3.5-1.1 5.5-3.2 7.6-.9.9-2.3 1.5-2.5 3-.8 5.3-4.4 9.4-6 14.3-1.2 3.8-4.6 6.6-4.4 10.8-1.9 2.9-4.9 5.1-5.5 8.9-1.6 0-3.3-.5-4.6-1.4-2.3-1.5-4.8-2.9-7.9-1.5-.7.3-1.6 0-2.4 0-1.9-.1-3.3-3.2-6-.6-1 .9-3.8-.9-5.8.6-1.5 1.1-2.8 0-4.1-.6 1.4-.9 2.2-2.7 4.1-2.8 1.1.1 2.4 0 2.6-1.3.1-.5-1-.6-1.5-.7l.5-1 .4-.2-.1-.4.1-1.3c3 .4 2.3-1.2 1.6-2.9 1.3.3 3.2-.4 2.3 2.4-.8 2.6.8 3.9 3.4 3.9 2.6.1 5.2.2 7.9.4 0 .1.1.3.2.4 0 .1.2.1.3.1l-.4-.7c.5-1.3-1.6-3-.1-3.6 4.8-2 .4-2.8-.4-4.1 5.8-5.8 9.5-13 13.6-20 2-3.5 4.7-6.5 5.7-10.8.9-3.9 9.9-7 14.4-6.8 3.5.1 13.4 3.6 15.4 8.7-.6.7 1.2 4.1-2 1.8-.5-2.6-1.5-3.7-3.9-1.5l-1.6.5z"/><path class="prefix__st0" d="M53.2 90.9c0 .3-.1.7-.1 1-1.6 5.2-1.9 10.7-.7 16-.2 3.8-.5 7.7-.4 11.5.1 3.9 0 7.8 1.4 11.6l1.9 2c.1 2.8-.8 5.5.2 8.3.6 1.7-.7 2.2-2 2.7-2.4.9-4.7 2.1-6.8 3.6-2.5.3-5-.1-7.3-1.1-.7-.3-3-2.2-4-2.3-2-.1-2-2-2.4-2.5-3.5-3.9-2.7-8.4-2.4-13.1.9-14.4 1.9-28.9 2.1-43.4.1-4-1-7.9-3.3-11.2-3.2-4.7-6.4-9.3-8.8-14.5l1.2-.2 1 1c1.9 4.4 5.1 8 7.6 12 1.7 2.9 4.7 5 5.5 8.6-1.1 1.6-1.2 3.4-1.2 5.2l-2.1 44.7c-1.8 3.1-1.6 5.9 1 8.8 1.4-2.4-.5-5.5 2.1-6.3 4.3-1.4 5.4-4.7 6.3-8.5 2.2-10.1 2.8-20.5 4.3-30.8.4-2.9 1-4.9 4.4-4.4l1.9.1.6 1.2z"/><path class="prefix__st2" d="M21.8 59.3l-1.2.2.1-.1-.7-3.2c.7 0 1.8-.5 1.7-.6-1.9-2.4-1.4-6.6-5.3-7.6v-.9c.2-1.4-.4-2.2-1.9-2.1v-.1c.1-.8 0-1.6-.9-2-.1-.5-.5-.9-1-1-2.3-1.2-3-3.8-4.3-5.7-.7-1-.4-2.7-2.3-2.6-1.2-.9-1.9-2.2-1.9-3.7C1.3 25 1.4 19.7 1.7 14.3c0-.3-.3-.6-.5-.8l.2-2.2c1-2.3 3.8-3.2 4-5.9.3-.3.3-.6.6-.8.9-.4 1.8-.7 2.8-.9 1.6-1.3 3-2.9 5.4-2.2 3.3-1.3 6.4-.1 9.5.9 0 1-.6 1.9-1.4 2.4-3.5 2.1-3.7 4.9-2.1 8.3l-4-.1c-1-5.1-.9-5.1-4.2-2.5-.5.4-1.1.8-1.7 1-2.8 1.2-3.8 4-4.9 6.3-1 2.2 2.6 1.3 3.1 3 .1.3.5.5.6.8 3.3 7 8.6 13.1 10.2 20.8.5 2.6 3.6 3.1 3.8 5.9.1 2.7 1.6 5 3.1 7.2l-2.1 1.9c-.9-.2-1.9.4-2.1 1.3-.2.2-.2.4-.2.6z"/><path class="prefix__st1" d="M20.1 13.1c-1.5-3.3-1.3-6.2 2.1-8.3.8-.5 1.4-1.4 1.4-2.4 2.5-.2 4.6.6 5.9 2.9v-.2l.8 1.5c-.4 2.4-1.2 4.9 2.6 5.1.2.1.3.4.2.6v.1c1.8 8.3 5.2 16.1 8.7 23.8.9 1.9 1.7 4.8 4.8 5.2l1.3 1.2c.3.7 1.1.7 1.7.9 2.4 0 4.9.6 7.3-.3.7 1.3 5.1 2.1.4 4.1-1.5.6.6 2.4.1 3.6-2.6-.1-5.2-.3-7.9-.4-2.7-.1-4.2-1.4-3.4-3.9.8-2.8-1.1-2.1-2.3-2.4-.8-.5-.8-1.3-1.1-2.1-1.9-4.2-3.3-8.7-6.4-12.3-1.3-4.5-3-8.9-5.1-13.1-2.1-4-2.2-4.1-6.7-2.3-1.7.1-3.2-.4-4.4-1.3z"/><path class="prefix__st5" d="M104 16.3c3.3 2.2 1.4-1.1 2-1.8.8 1.2 3.3 1.7 1.9 4-2.6-.1-2 2-2.3 3.5-.7 3.7-2.7 5-6.3 4.1-2.6-.6-3.6-2.9-2.7-6.3.4-1.6 1.1-3.1 1.7-4.6l1.7-.5c1.3.9 2.6 1.4 4 1.6z"/><path class="prefix__st0" d="M46.6 41.5c-3.1-.4-3.9-3.3-4.8-5.2-3.5-7.7-6.9-15.5-8.7-23.8 3.2 4.5 4.5 9.9 6.6 14.8 2 4.9 4.3 9.6 6.9 14.2zM16.4 47.1v.9c.1 3.2 2.8 5.3 3.6 8.2l.7 3.2C15 51.3 10.1 42.6 6.1 33.5c1.9-.1 1.6 1.6 2.3 2.6 1.3 2 2 4.5 4.3 5.7l1 1c0 .8 0 1.6.9 2v.1c-.2 1 .5 1.9 1.5 2.1 0 .1.2.1.3.1z"/><path class="prefix__st2" d="M58.6 142.4c3.3-4.8 2.2-10.4 2.9-15.7.6-4.9.6-10 .8-14.9.1-1.4-.4-3.2 1.9-3.4.1 3.1-.2 6.1-.9 9.1-1.1 3.8-.6 7.7-1 11.6 1.1 5.1.5 9.8-3 13.9-.1-.1-3.2 3.1-4.2 3 .2.1 3.4-3.7 3.5-3.6z"/><path class="prefix__st4" d="M1.3 13.4c.2.3.5.6.5.8-.3 5.4-.4 10.7 2.4 15.6-4.3-4.3-5.4-10.9-2.9-16.4z"/><path class="prefix__st1" d="M62.5 129.2c.3-3.9-.1-7.8 1-11.6.5 3.9-.2 7.7-1 11.6z"/><path class="prefix__st4" d="M5.4 5.4c-.2 2.7-3 3.6-3.9 5.8-.3-2.6 1.4-5.1 3.9-5.8z"/><path class="prefix__st0" d="M33 11.8c-3.8-.2-3-2.7-2.6-5.1 1.7 1.3 1.5 3.5 2.6 5.1zM49.5 43.7c-.6-.2-1.3-.2-1.7-.9 1.2-.9 1.1.6 1.7.9z"/><path class="prefix__st5" d="M108.6 21.5c-.2-.3-.3-.5-.5-.8 0-.1.1-.3.2-.5.4.4.5.9.3 1.3z"/><path class="prefix__st0" d="M29.6 5.2v.2-.2z"/><path class="prefix__st2" d="M50.5 89.7c-3.4-.4-3.9 1.5-4.4 4.4-1.5 10.2-2.1 20.6-4.3 30.8-.8 3.7-2 7-6.3 8.5-2.6.9-.7 3.9-2.1 6.3-2.6-2.9-2.8-5.7-1-8.8 1.6-3 2.5-6.4 2.4-9.9-.1-11.1 2-22.1 2.6-33.2.1-1.2.4-2.3.9-3.3 1.4-2.8.2-3.8-2.6-3.5-.7-3.5-3.7-5.7-5.5-8.6-2.4-4.1-5.6-7.7-7.6-12h1c1.9-2.1 4.6-2 7.1-2.7 2.6-.9 5.5-.5 7.7 1.1 3.4 2.3 7.8 2.9 11.1 5.7-.4 1-1.1 1.9-2.2 1.8-4.2 0-3.5 3.1-2.9 5.2.5 1.9 1.7 3.5 1.5 5.6 0 .7.6 1.2 1.3 1.2.7 0 1.3-.4 1.5-1.1.4-1.3.9-2.5 1.4-3.7.6-1.1 1.3-.7 1.8.1-.3 2.6.5 3.4 2.9 2.1 1.1 0 1.9.8 2 1.9v.2c-2.2 3.9-3.2 8.5-6.3 11.9z"/><path class="prefix__st5" d="M55.4 133l-1.9-2c1.4-.9 1.2-2.4 1.1-3.6-1-9.1.1-18.3-.8-27.5.4-2.6.5-5.3.2-8 1-2-.5-5.8 3.3-5.7 4.3.1 2.5 4.2 2.3 5.8-.9 8.2 1.1 16.5-1.1 24.7-1 3.9-1.2 8.1-1.9 12.2-.2 1.4.4 3.1-1.2 4.1z"/><path class="prefix__st2" d="M72.3 49.6c-.2-4.2 3.2-7 4.4-10.8 1.6-4.9 5.1-9.1 6-14.3.2-1.4 1.6-2 2.5-3 2.1-2 3.6-4.1 3.2-7.6-.3-2.2-.2-3.1-2.5-2.2-.8.3-1.5 1.8-2.2.1-.6-1.4.7-1.7 1.6-2 2.4-.6 4.8-1.1 7 .7-.3.9-1.3 1.7-1 2.7 2.2 6.2-1 11.1-3.8 16.1h-.8c-.7-.1-1.3.5-1.4 1.2v.2c-4.8 4.9-7.4 11.2-10.8 17-.3.5-.1 1.3-.1 1.9v.1l-2.1-.1z"/><path class="prefix__st5" d="M87.2 38.5c2.1 0 2.7-1.7 3.5-3.1 1.6-2.8 4.2-4.7 6.6-6.7.9-.7 2.2-2 3.5-.6 1 1.1 1 2.9-.2 3.9-.1 0-.1.1-.2.1-3.4 2.8-5.4 6.7-8.5 9.7-1.6 1.5-2.3 3.7-4.4 4.7-2.2-.2-2.1 1.4-2.2 2.8-3.3 2.2-4.5 6.2-7.4 8.8l-3.2-.3c2.1-4.2 5-7.9 7.7-11.6.9-.3 1.1-1.1 1.1-2 1.5-1.8 4-2.8 3.7-5.7z"/><path class="prefix__st3" d="M71.5 66c.3 1 2.3 1.7 1.2 2.8-2.9 2.9-6.1 5.6-9.3 8.2-.5.4-1.6.1-2.4.2-2.1-2-3.4-5-6.8-5.3-1.5-1-.7-2.5-.7-3.9 2.4-.7 4.7-2.1 6.5-3.8h.6c1.5 1.6 3 2 4.8.3.8-.8 2-1.1 3.1-1 .6 1.3 1.7 2.2 3 2.5zM87.2 38.5c.3 2.8-2.2 3.9-3.5 5.7-1 .3-1.1 1.1-1.1 2-2.8 3.8-5.6 7.4-7.7 11.6-2.4 1-2.5 5-6.1 4.4v-1.5c1.8-3.7 4.3-7 5.6-10.9v-.1c4-3.4 5.9-8.2 8.6-12.5 1.2-1.9 2.8-3.8 2.3-6.4v-.1l1.4-1.3h.8c1.7 1.7.1 3-.5 4.4-.8 1.7-1.9 3.3.2 4.7z"/><path class="prefix__st6" d="M68.8 62.3c3.5.6 3.7-3.5 6.1-4.4l3.2.3c-1.2 3.3-3.5 6.1-6.6 7.8-1.3-.3-2.4-1.2-2.9-2.4l.2-1.3z"/><path class="prefix__st3" d="M53.9 92c.3 2.6.2 5.3-.2 8-1.7 2.5-.6 5.3-1.2 8-1.2-5.3-1-10.8.7-16 .2-.1.4-.1.7 0z"/><path class="prefix__st6" d="M54.3 71.9c3.4.3 4.7 3.3 6.8 5.3-1.1 1.6-2.7.7-4 .8.1-1.1-.7-2-1.7-2.1h-.2c0-.8 0-1.6-.8-2l-.1-2zM85.4 49.4c.1-1.5-.1-3 2.2-2.8 0 1.3-.9 2.4-2.2 2.8z"/><path class="prefix__st3" d="M53.2 90.9l-.8-1.1c.5.1.8.6.8 1.1z"/><path class="prefix__st5" d="M24.3 14.5c4.6-1.7 4.6-1.7 6.7 2.3 2.1 4.2 3.8 8.6 5.1 13.1 1.3 6 2.5 12 5.9 17.2l-.1 1.3c-.2.1-.4.4-.3.7l-.5 1c-.2 0-.5 0-.7.1-6 .4-6 .4-7.8-6-.3-1.3-.5-2.6-.9-3.8-1.6-5.7-2.7-11.5-5-17l-.2-1.9c.3-1.4.4-2.8-1.4-3.4l-1-.9.2-2.7z"/><path class="prefix__st1" d="M68.8 62.3l-.2 1.3c-1.1-.1-2.3.2-3.1 1-1.8 1.7-3.3 1.3-4.8-.3.6-.3 1.1-.8.7-1.5-.4-.7-1-.5-1.6 0-2.1.5-3.9 2-6.2 2.1l-4-.3c-3.3-2.8-7.7-3.4-11.1-5.7-2.2-1.6-5.1-2-7.7-1.1l1.2-1.9c.3 0 .5-.1.8 0 1.2.1 2.2-.5 3.1-.9 1.3.6 2.7 1.8 4.1.6 2-1.5 4.8.3 5.8-.6 2.7-2.5 4.1.5 6 .6.8 0 1.8.3 2.4 0 3-1.5 5.6 0 7.9 1.5 1.4.9 3 1.4 4.6 1.4-.1 1.1.7 2.2 1.8 2.3h.1l.2 1.5z"/><path class="prefix__st6" d="M35.9 55c-1 .4-1.9 1.1-3.1.8.1-5.1-1.7-9.7-4-14.2.1-.3.1-.6.1-1 1.1-2.8-.3-5.2-1-7.7-.9-3.1-2.6-6.1-1.2-9.5 2.4 5.5 3.4 11.3 5 17 .4 1.3.5 2.6.9 3.8 1.7 6.4 1.8 6.3 7.8 6l-.3 1.9c-2 .2-2.8 1.9-4.2 2.9z"/><path class="prefix__st0" d="M42 47.2c-3.4-5.3-4.5-11.3-5.9-17.2 3.1 3.6 4.5 8.1 6.4 12.3.3.7.3 1.6 1.1 2.1.7 1.6 1.4 3.2-1.6 2.8z"/><path class="prefix__st4" d="M68.8 60.8c-1.1-.1-2-1.1-1.9-2.2v-.1c.6-3.7 3.6-5.9 5.5-8.9l2 .2c-1.3 4-3.8 7.3-5.6 11z"/><path class="prefix__st1" d="M104 16.3c-1.4-.2-2.7-.7-3.9-1.5 2.4-2.3 3.4-1.2 3.9 1.5z"/><path class="prefix__st0" d="M40.1 52.1l.3-1.9c.2-.1.5-.1.7-.1.6.1 1.6.2 1.5.7-.2 1.4-1.4 1.4-2.5 1.3zM41.6 49.2c-.1-.3 0-.6.3-.7l.1.4-.4.3z"/><path class="prefix__st1" d="M57.3 51l.4.5c-.1 0-.2 0-.3-.1 0-.1-.1-.3-.1-.4z"/><path class="prefix__st3" d="M35.8 81c2.9-.3 4 .7 2.6 3.5-.5 1-.9 2.2-.9 3.3-.6 11.1-2.7 22.1-2.6 33.2 0 3.4-.8 6.8-2.4 9.9l2.1-44.7c.1-1.8.1-3.6 1.2-5.2z"/><path class="prefix__st1" d="M52.5 107.9c.6-2.6-.5-5.5 1.2-8 .9 9.1-.2 18.3.8 27.5.1 1.2.3 2.7-1.1 3.6-1.4-3.7-1.3-7.7-1.4-11.6 0-3.8.3-7.7.5-11.5z"/><path class="prefix__st3" d="M23.8 60.4h-1l-1-1c-.1-1 .6-1.8 1.5-1.9h.6l-.1 2.9zM26 55.5c-1.4-2.2-3-4.5-3.1-7.2-.1-2.8-3.2-3.3-3.8-5.9-1.5-7.7-6.8-13.8-10.1-20.8-.1-.3-.5-.5-.6-.8-.5-1.7-4.1-.7-3.1-3 1.1-2.4 2-5.2 4.9-6.3.6-.3 1.2-.6 1.7-1 3.3-2.6 3.3-2.6 4.2 2.5-.9 6.4.5 12.2 3.3 18 3.5 7.4 6 15.1 9 22.7l-.2 1.8H26z"/><path class="prefix__st0" d="M28.4 53.7c-3-7.6-5.5-15.3-9-22.7-2.8-5.9-4.1-11.7-3.3-18l4 .1c1.2.9 2.7 1.3 4.2 1.4l-.2 2.8c-2.9.2-2.4 2-1.9 4 1.5 6.2 2.9 12.5 5.6 18.3-.9.4-.7.7.1 1l1 .1c0 .3-.1.7-.1 1-1.7.8-1.3 2.1-.6 3.3 1.2 2 1 4.4 1.8 6.5.5 1.2-.2 2-1.6 2.2zM26 55.5h2.1l3.9.2-1.2 1.9c-2.4.7-5.2.5-7.1 2.7l.1-3 2.2-1.8z"/><path class="prefix__st3" d="M20 56.2c-.8-2.9-3.5-5-3.6-8.2 3.9 1 3.4 5.1 5.3 7.6.1.2-1 .6-1.7.6zM16.4 47.1c-1 0-1.8-.7-1.9-1.7V45c1.5 0 2 .7 1.9 2.1zM14.5 44.9c-.9-.4-.9-1.2-.9-2 .9.4 1 1.2.9 2zM13.6 42.9l-1-1c.5.1.9.5 1 1z"/><path class="prefix__st0" d="M49.7 64.6l4 .3c-.4 1-1.7 2.1-.1 3.2 0 1.3-.8 2.8.7 3.9v2l-2.1-.1c-.5-.8-1.2-1.2-1.8-.1-.6 1.2-1 2.4-1.4 3.7-.2.7-.8 1.1-1.5 1.1s-1.4-.5-1.3-1.2c.1-2.1-1-3.8-1.5-5.6-.6-2.1-1.3-5.2 2.9-5.2.9-.2 1.6-1.1 2.1-2z"/><path class="prefix__st3" d="M52.2 73.8l2.1.1c.8.4.8 1.2.8 2-2.4 1.3-3.3.5-2.9-2.1z"/><path class="prefix__st4" d="M85.3 30.9c.4 2.6-1.1 4.4-2.3 6.4-2.7 4.3-4.6 9.1-8.6 12.5 0-.7-.2-1.4.1-1.9 3.4-5.8 6-12.1 10.8-17zM86.7 29.4l-1.4 1.3c0-.7.5-1.3 1.3-1.3h.1z"/><path class="prefix__st6" d="M82.6 46.2c0-.9.1-1.6 1.1-2 0 .9-.2 1.7-1.1 2z"/><path class="prefix__st4" d="M53.6 68c-1.7-1.1-.4-2.1.1-3.2 2.3-.1 4-1.7 6.2-2.1l.2 1.5C58.2 66 56 67.3 53.6 68z"/><path class="prefix__st2" d="M60 64.2l-.2-1.5c.5-.5 1.1-.7 1.6 0 .4.7-.1 1.2-.7 1.5H60z"/><path class="prefix__st1" d="M27.8 39.6c-2.8-5.8-4.1-12.1-5.6-18.3-.5-1.9-.9-3.7 1.9-4l1 .9c-.3 1.5-.7 2.9 1.4 3.4l.2 1.9c-1.4 3.4.3 6.4 1.2 9.5.7 2.5 2.1 4.9 1 7.7l-1-.1c0-.4-.1-.7-.1-1z"/><path class="prefix__st6" d="M26.5 21.6c-2.1-.4-1.8-1.9-1.4-3.4 1.8.5 1.7 1.9 1.4 3.4z"/><path class="prefix__st4" d="M32.1 55.8l-3.9-.2.2-1.8c1.4-.2 2.1-1.1 1.6-2.4-.8-2.1-.6-4.5-1.8-6.5-.7-1.2-1.1-2.5.6-3.3 2.4 4.4 4.1 9 4 14.2-.2-.1-.5 0-.7 0zM27.8 39.6c0 .3 0 .7.1 1-.8-.3-1-.6-.1-1z"/><path class="prefix__st3" d="M391.9 7.8c.7-.3 1.5-.3 2.2.1 0 .5 2.4.8.4 1.2-3.1.7-6.4.4-9.7.6v1c1.5-.1 2.9-.2 4.4-.2 3.8.1 8 3.5 11.3-1.4.3-.4 1.6-.2 2.4-.2 2.3-.1 4.7-.2 7-.4h3l1.8 1.8-12.8.6c6.4 2.1 12.8 1.4 19.3 1.1 2.1-.2 4.3.1 6.3.8 4 1.5 4.5 1 4.4-3.4 0-.7-.1-1.3-.1-2l3 .1c.7 1.5-2.3 1.9-1.2 3.6 2 .6 3.4-1.3 5.2-1 3-.8 5.4 1.2 8.1 1.8 1.2.2.2 1.4.4 2.1h-.1c-2.7-.4-5.4-.9-8.1-1.2-2.3-.2-2.8 1-1.9 3h-1.9c-.8-1.7-1.6-1.6-2.2.1-.7-.2-1.4.3-1.7 1-1.3-.2-2.6-.6-3.1 1.1l-3.8.2c-.8-.1-1.6-.2-2.5-.2-7.2.2-14.2 2.2-21.3 3.3-3 .5-7.5 1.2-8 6-1.4.6-2.4 1.8-2.9 3.2-4 1.2-6.7 7.2-4.9 10.8.1.3.9.2 1.4.3 0 .3.1.6.2.9-3 .9-3.9 3.3-3.9 6.1-.1 3.7-1.8 5.8-5.4 6.4-.8.1-1.7 0-1.8 1.8 3.4-.3 6.6-.4 9.5-2.2.6-.1 1.6-.1 1.6-.8.1-3.3 2.2-6 2.6-9.2.3-.1.5-.2.7-.3 1.7 2.7 2.5 6.3.4 8.2-2.5 2.3-2.1 4.4-2 6.9-.5 0-1.1.3-1.5.1-3-1.9-3 .7-3.5 2.4-.2.8.4 1.5.7 2.3 2 5.6 3 11.4 3.2 17.3.3 6.4-1.5 12.3-3.2 18.4.2 1.7-.8 3.6 1.1 4.9v.8c-1.1.8-1 2-.7 3.1.7 2.7 1.5 5.3 2.2 7.9-2.1 2.3.1 3.5 1.2 5l.1 2 .1 1c.5 2 1.3 4 2.3 5.9-.1.9.5 1.8 1.5 2h.6c.1 1.4.3 3-1.9 3.1-3.1-1.9-5.3-5-6.2-8.5-.8-3-6.2-4.3-3-8.7-.1-1.5-1.1-2.7-2.5-3.1 0 7.8-.1 15.3-.1 22.8 0 .7 0 1.3.1 2l-1 .1c-.7-2-1.1-4.1-1.3-6.3-.2-8-.6-15.9-1.1-23.9-.2-2.9.1-5.1 4.3-6.2-5.6.4-4.7-3.1-4.8-5.8-.9-18.6-1.7-37.1-2.5-55.7-.2-4.1-.9-8.3-.5-12.3.6-5-1.2-10.6 3.2-14.8 4-.9 4.5-1.5 3.7-4.3 1.2-2.9 3.9-1.9 6.1-2.2 1.3-.3 2.9.5 3.7-1.1l2.1.2c.7.3 1 .4 1.3 0z"/><path class="prefix__st0" d="M372.6 42.3c.8 18.6 1.7 37.1 2.5 55.7.1 2.7-.8 6.1 4.8 5.8-4.2 1.1-4.5 3.3-4.3 6.2.6 7.9.9 15.9 1.1 23.9.2 2.1.7 4.2 1.3 6.3.1.7-.1 2.1.5 2 1.2-.1.3-1.4.6-2.1 0-.7 0-1.3-.1-2 3.5.6 1.8 3.3 2 5.1.1.9-1 2.1.4 2.5 1.2.4 2.8.6 3.6-.7 2-3.1 5.2-5.5 5.9-9.5 2.2-.1 1.9-1.7 1.9-3.1.9.6 2.1.5 2.9-.2.1 1.4.8 2.2 2.3 1.7 2.3.2 4.5.3 6.8.6 3 .5 6.2.9 9-1l.4 1.7c.1.2.1.5.2.7l.3-.7 2.1-.1c2.4.7 4.8 1.5 7.3.4l10.8-.3c3.4 2.1 6.7 3.6 11 2 3.3-1.3 6.8-.9 9.2 2.3-.5 3-4.7 7.8-6.6 7.1-2.7-1-5.7-1-8.3-2.4-1-1.4-2-1.3-3 .1-4-1.1-4.9 2.4-6.6 4.6-2.3 1.9-5.1 3-8.1 3.1.3-3.6-3-3-4.8-3.9-7.2-3.3-19.7-1.4-26.1 4 3.6-.1 7.2-.9 10.5-2.3 5.7-2.5 10.7-.6 15.9 1.8-1.2.9-2.3.5-3.2.6-6-2.2-11.7-.9-17.4 1.4-1.8.8-3.9 1.1-5.9.6-3-.9-7.6-.9-9.7-1.8-1.7-.8-3.2-2.1-4.2-3.8-1-1.8-1.6-3.8-1.8-5.8-1.1-7.4-1.8-14.8-2.1-22.3-1-18.1-2.2-36.2-2.3-54.4 0-8-.8-15.9-.4-23.9l1.6.1z"/><path class="prefix__st3" d="M461.6 130.5c-1.2-9.3-6.3-14.6-15.7-15.2-5.7-.3-9.7-1.3-12.7-.2-6.6 2.6-12.6.9-19.3 1.2 2.2 1.9 4.7.6 7.1.7 2 .1 3.9-.1 6.3-.2-1.2 1.9-3.2.4-4.4 1.7 2.7 1.2 5.8-1.1 8.2 1.1 1.4.2 2.9-.7 4.9.8l-7.8.4c-.5 0-1 0-1.5.1-5.3 2.1-10.8 2.2-16.3 1.6-1.6 2.1-4 .9-6 1.4-.2.7-.4 1.5-1.2 1.9.2 1.7.2 3 2.9 2.8 2.4-.2 5.2-.9 7.6.9 1.1.8 2.6-.1 3.8-.4 5.4-1.3 11.1-1.6 16.4-3.5.8-.2 1.7-.2 2.5-.1 1.3-.1 3 .2 3.9-.5 4.2-3.1 8.7-1.8 13.3-1.6 3.4.2 3.1 2.9 4.3 4.6 1.2 1.7 1 3.4-1.1 4.5 0 2.5.4 5.1-1.7 7-.5 3-4.7 7.8-6.6 7.1-2.7-1-5.7-1-8.3-2.4-1 0-2 .1-3 .1-4-1.1-4.9 2.4-6.6 4.6 8.1 0 19.2.4 24.1-2.1 1.5-.8 1.5-3 2.9-4.1 3.8-3.2 4.7-7.1 4-12.2zM438 118.6c-.1-.3 1.4-.5 2.7.1-1.2.4-2.2 1.2-2.7-.1zM447.6 14c-.2-.7.8-1.8-.4-2.1-2.7-.6-5.1-2.5-8.1-1.8l.1-2.9c1.6-.3 2.9.6 4.4.7 2.3-.6 3.5 2.3 5.7 1.9.3-.1.7.1.8.4 0 2.5 2 3 3.7 3.7.3.2.4-.7.5-1.2 5 5 5.5 11 4.1 17.5-.9 4.3-4.2 6.5-7.3 8.2-3.9 2.1-8.2 3.4-12.6 3.9-7.6 1-15.2.3-22.8.7-7.1.3-8.9 2.5-8.6 9.7.2 4 .5 7.9 3.5 10.9l-5.1.1c-1.6-.6-2.9-1.6-4-2.8-.1-2.3-2.7-1.9-3.7-3.6 3.1-.6 4.8-2 3.3-5.3 1.1-1.1 1.2-2.1-.3-3l-4.9-2.8c3.8.4 3.6-2.1 3.7-4.6.2-1.6.5-3.2.9-4.8 1 .1 2.2-.1 2.9 1 0 .9.4 1.7 1.1 2.2 1.3 3.1 1.6 3.1 3.9.6.1.8.3 1.6 1.2 1.9 3.2-.9 6.2-1.9 9.7-1.9 2.8 0 6.4 1.5 9.1-.9 3.8-.2 7.5 1.1 11.3.4 2-.4 4-.4 4.5-3 1.9-2.1-.9-4.2-.1-6.3 3.1.6 6.3 1.3 8.7-1.7 3.5-4.1.5-12.5-5.2-15.1z"/><path class="prefix__st0" d="M438.6 89.7L438 91c-3.9-1.8-6.6-.8-9.1 3.4l-1.1.4c-3.6-.1-7.2.7-10.8-.3-2.4-.7-4.8.7-7.1 1.4-3 .8-2.8 1.3-3.9-2 3.4-.6 5.6-2.9 9.1-5-3.7-1-5.3.7-7.1 1.6-2.3 1.2-4.3 1.2-6.2-.6 1.4-2.5 4-3.3 6.5-4.2 1.2-.4 2.3-.5 2.3-2 2.5-.1 5.2.3 6.5-2.7l1.2.3c3.5.4 7.1 1.4 10.6 1.2 4.1-.2 6.3 1.5 7.8 4.9.3 1 2.2.8 1.9 2.3zm-16.3.6c-.9-.1-1.2.3-1.1.8 0 .5.4.8.8.8h.1c.4-.1 1.2-.3 1.2-.5-.1-.5-.5-1-1-1.1zm4.9 1.9c-.3-.4-.9-.5-1.3-.2-.5.2-.5.5 0 .7.3.1.6.1.9 0 .1-.1.2-.4.4-.5z"/><path class="prefix__st1" d="M438.6 89.7c.2-1.5-1.6-1.3-1.9-2.3 3.8-2.9 4.5-11.2 1.4-14.9-.9-1-1.9-1.5-3-1.1-4.1 1.6-8.7 1.3-12.8 3.4-3 1.5-4.9 2.9-4.1 6.5L417 81c.3-2.3-.8-4.3-1.5-7.9-2.1 6-3.7 2.6-5.4 1.5l.3-3c1.8.4 3.1.3 2.4-2.1 1.5.3 1.7-1.3 2.7-1.8.4-.2 1.6-.6 1.2.4-1.4 3.6 1.3 2.2 2.4 1.9 3-1 6.5-1.2 8.7-3.3 1.6-1.5 4.3 1.5 4.7-1.8 4.7 1.9 8.4 4.8 9.6 10.2.1 1 .3 1.9.6 2.9 2.2 5.1 1 8.7-4.1 11.7z"/><path class="prefix__st3" d="M406.1 93.8c1.1 3.4.9 2.9 3.9 2 2.3-.7 4.7-2 7.1-1.4 3.6 1 7.2.2 10.8.3-3 2-6.4 1.2-9.5 1-6.6-.5-8.6 2.1-9.1 8.1-.4 4.1-.4 8.2 2.6 11.6-1 1.9-3.9 2.5-3.7 5.2-1.5.1-1.8-.9-2.2-2.1-.5-1.3-1-2.9-3-2.7-.3-1.7.5-3.5-.9-5l-.1-2.9c1.5-.2 3.3-.6 2.3-2.6-2.2-4.3.2-7.8 1.8-11.5z"/><path class="prefix__st0" d="M432.6 64.8c-.4 3.3-3.2.3-4.7 1.8-2.2 2.2-5.7 2.3-8.7 3.3-1.1.4-3.8 1.7-2.4-1.9.4-1-.9-.7-1.2-.4-.9.5-1.2 2.1-2.7 1.8-.2-.9-.2-2.1-1.5-2.3-.1 0-.5.4-.5.6-.1 1.4.8 1.6 1.9 1.7.6 2.4-.7 2.5-2.4 2.1h-.4c-1.5-2.3-3.9-2.9-6.2-3.7-.6-1.9 1.5-2.6 1.8-4.1l5.1-.1c3.1 1.2 6.2 1 9.4.7 2.8-.3 5.6-1 8.4.1 1.1.3 2.2.3 3.2-.1l.9.5zM408.2 120.7c-.2-2.7 2.7-3.3 3.7-5.2l2.1.8c2.2 1.9 4.7.6 7.1.7 2 .1 3.9-.1 6.3-.3-1.2 1.9-3.2.4-4.4 1.7 2.7 1.2 5.8-1.1 8.2 1.1-1.1.2-2.3-.2-2.9 1.1-.5 0-1 0-1.5.1-5.3 2.1-10.8 2.2-16.3 1.6l-2.3-1.6z"/><path class="prefix__st1" d="M432 7.4c0 .7.1 1.3.1 2 .1 4.3-.5 4.9-4.4 3.4-2-.7-4.2-1-6.3-.8-6.4.3-12.8 1-19.3-1.1l12.8-.6-1.8-1.8c6.3-.6 12.6.3 18.9-1.1zm-5.6 2.9c-.6-.9-1.4-.5-2.2-.4-.5.1-.5.5-.1.6.8.4 1.7.3 2.3-.2z"/><path class="prefix__st3" d="M414.9 152.4c1-.2 2 .2 3.2-.6-5.3-2.5-10.3-4.4-15.9-1.8-3.3 1.4-6.9 2.2-10.5 2.3 6.5-5.4 18.9-7.3 26.1-4 1.8.8 5.1.2 4.8 3.9-2.5 2.1-5.1 1.2-7.7.2z"/><path class="prefix__st4" d="M372.6 42.3h-1.4c-.9-3.2-1-6.5-.2-9.7 0-2.3-.1-4.5-.1-6.8.2-3.5-1.4-7.3 1.8-10.3.5 0 .9-.5.9-1l.1-.2c.3 0 .6-.2.8-.4l.9 1.2c-4.5 4.2-2.7 9.8-3.2 14.8-.5 4.1.2 8.2.4 12.4z"/><path class="prefix__st0" d="M385.2 8.6c-2.2.3-4.8-.7-6.1 2.2-1.5.3-2 2.6-3.9 2l-.2-.2c.5-1 2-2 3.4-3.1 1-.8 3.1-.9 4.6-1.6 1.9-.7 3.9-.9 5.9-.5-1.4 0-2.9-.6-3.7 1.2z"/><path class="prefix__st1" d="M410 8.4c-2.3.1-4.7.2-7 .4-.8 0-2.1-.2-2.4.2-3.3 4.9-7.5 1.5-11.3 1.4-1.5 0-2.9.1-4.4.2v-1c3.2-.1 6.5.1 9.7-.6 2-.4-.5-.7-.4-1.2 5.3.1 10.6-.5 15.8.6zM429 94.4c2.5-4.2 5.2-5.2 9.1-3.4-1.9 4.2-5.5 3.8-9.1 3.4z"/><path class="prefix__st4" d="M439.1 7.1L439 10c-1.8-.3-3.2 1.5-5.2 1-1.1-1.7 1.9-2.1 1.2-3.6l2.1-.4 2 .1z"/><path class="prefix__st2" d="M454.3 12.7c-.1.5-.1 1.3-.5 1.2-1.7-.8-3.7-1.2-3.7-3.7 1.8-.1 3.4.9 4.2 2.5z"/><path class="prefix__st1" d="M437.1 7l-2.1.5-3-.1c1.6-1.3 3.3-2.3 5.1-.4z"/><path class="prefix__st0" d="M370.9 25.7c0 2.3.1 4.5.1 6.8-.5-2.2-1-4.5-.1-6.8z"/><path class="prefix__st5" d="M375 12.6l.2.2-.7 1.1c-.2.2-.5.4-.8.4-.4-.5.5-1.1.9-1.6.2-.3-.2-.1.4-.1zM431.6 64.4c-1 .4-2.2.4-3.2.1 1.1-.9 2.1-1.3 3.2-.1zM373.5 14.5c0 .5-.4.9-.9 1 0-.7.2-1 .9-1z"/><path class="prefix__st1" d="M391.9 7.8c-.4.4-.7.3-.9-.1.3-.2.7-.1.9.1z"/><path class="prefix__st5" d="M447.6 14c5.8 2.7 8.7 11.1 5.4 15.2-2.4 3-5.6 2.2-8.7 1.7-3.8-3.5-8.9-5.4-14.1-5.3-4.5.1-9 .4-13.5.5-1.6.1-3.5.6-3.9-1.9 0-1.8 0-3.1 2.7-2.7 3.5.5 6.6-1.1 9.2-3.5l3.8-.2c1.6 1.1 2.7.9 3.1-1.1.2-.7.9-1.1 1.7-1 .4.6 1.2.7 1.8.3.2-.1.3-.3.4-.4h1.9c1.2 1.1 2.7.3 4 .6 1.5 1.2 1.9 0 2.3-1.1 1.2-.5 2.9.3 3.8-1.3l.1.2zM401.1 51.9c1.5 3.3-.2 4.7-3.3 5.3.9 1.7 3.6 1.4 3.7 3.6.4 4.1 1 8.3-4.4 9.8-.1 0-.1.3-.2.4-1.1-.2-2.6 1.7-3.3-1-.8-3.4-3.1-6.2-3.7-9.7l-1.3-1c-.2-2.5-.5-4.6 2-6.9 2.1-1.9 1.2-5.5-.4-8.2.8-.1 1.8.1 2.1-.7.4-1.1-.8-1.1-1.4-1.6l-1.2-1.5c1.3-2.6 1.9-5.6 1.7-8.5 1.7-.1 2.2 2.1 3.8 1.3-.1.6-.2 1.4.7 1.3.5 0 .3-.8.2-1.3l1.1-1.2c1.6 1.2 2.7 2.9 3.4 4.8-.4 1.6-.7 3.2-.9 4.8-.1 2.4.1 4.9-3.7 4.6l4.9 2.8c0 1 .1 1.9.2 2.9z"/><path class="prefix__st2" d="M390.9 135.5c-.7 4-3.9 6.4-5.9 9.5-.8 1.3-2.5 1.1-3.6.7-1.4-.4-.3-1.6-.4-2.5-.2-1.9 1.5-4.5-2-5.1 0-7.5.1-15.1.1-22.8 1.4.3 2.5 1.6 2.5 3.1-3.2 4.4 2.3 5.7 3 8.7 1 3.4 3.2 6.5 6.3 8.4z"/><path class="prefix__st6" d="M397.1 32.1l-1.1 1.2c-.3 0-.6-.1-.9-.1.7-2.5-.8-4.2-2.2-5.9.5-4.8 5-5.5 8-6 7.1-1.1 14.1-3.1 21.3-3.3.8 0 1.6.1 2.5.2-2.6 2.4-5.7 4-9.2 3.5-2.7-.4-2.7.9-2.7 2.7-1.5.7-.9 1.9-.9 3.1-1.8-1.1-3.8-.8-5.8-.7-1.5.1-3.1-.1-3.1 2.2-5.2-1.7-5.6-1.4-5.9 3.1z"/><path class="prefix__st4" d="M385.5 104.8c-1.9-1.3-.9-3.3-1.1-4.9 1.7-.3 2.3-1.3 2.8-2.9 1.8-5.9 3.8-11.7 2.1-18-.6-2.4-.4-4.7 3-4.8 1.1.1 1.9 1 2 2l.4 12.1c-1.7.9-3 2.2-2.9 4.1.1 4.1-1.9 8-1.4 12.1-1.6.3-3.3-.9-4.9.3z"/><path class="prefix__st0" d="M392.3 74.1c-3.4.1-3.6 2.4-3 4.8 1.7 6.3-.3 12.1-2.1 18-.5 1.6-1.1 2.7-2.8 2.9 1.7-6 3.5-12 3.2-18.4-.2-5.9-1.2-11.7-3.2-17.3-.3-.8-.9-1.5-.7-2.3.5-1.7.5-4.3 3.5-2.4.3.2 1 0 1.5-.1l1.3 1c-2.7 1.7-1.5 4-.6 5.9 1.1 2.6 2.1 5.2 2.9 7.9z"/><path class="prefix__st4" d="M387 116.6c-.7-2.6-1.5-5.3-2.2-7.9-.3-1.1-.4-2.3.7-3.1 2.3-.2 2.3 2.3 3.7 3.1 1.2 4.1 3.3 7.9 3.3 12.3-.2.9-.2 1.9-1.2 2.5l-3.1.1-.1-2c2.2-2.3.1-3.5-1.1-5z"/><path class="prefix__st0" d="M389.7 40.4c.3.5.7 1.1 1.2 1.5.6.5 1.7.6 1.4 1.6-.3.9-1.4.6-2.1.7-.2.1-.5.2-.7.3-2.4-1-3.7-1.2-3.8 2.3-.1 2.5-.7 5.1-.4 7.7-2.9 1.7-6.2 1.9-9.5 2.2.1-1.8 1.1-1.7 1.8-1.8 3.6-.6 5.4-2.7 5.4-6.4 0-2.8.9-5.2 3.9-6.1 1.5.3 1.6-1.7 2.8-2z"/><path class="prefix__st4" d="M389.7 40.4c-1.3.3-1.3 2.2-2.9 2-.1-.3-.2-.6-.2-.9 1.2-3.7 1.6-7.6 3.5-11.1.5-1.4 1.5-2.5 2.9-3.2 1.5 1.7 2.9 3.4 2.2 5.9-1.6.8-2.1-1.3-3.8-1.3.2 3.1-.4 6-1.7 8.6zM395.6 132.2c-.8.7-2 .8-2.9.2 0-1.4-.7-2-2-1.9-1-1.8-1.8-3.8-2.3-5.9 1 .3 1.9 1.1 3.1.7h1.9c-.1 1 .6 2 1.6 2.2l.4 1.8.2 2.9zM385.1 54.6c-.3-2.6.4-5.2.4-7.7.1-3.5 1.4-3.3 3.8-2.3-.5 3.2-2.5 5.9-2.6 9.2 0 .7-.9.7-1.6.8z"/><path class="prefix__st0" d="M390 30.4c-1.9 3.5-2.2 7.4-3.5 11.1-.5-.1-1.3 0-1.4-.3-1.8-3.6 1-9.6 4.9-10.8z"/><path class="prefix__st1" d="M441.4 16.4c-1.3-.3-2.8.5-4-.6-.9-2-.4-3.2 1.9-3 2.7.2 5.4.8 8.1 1.2-.8 1.6-2.5.9-3.8 1.3-1-.3-1.8-.2-2.2 1.1zM374.4 13.9l.7-1.1c1.9.6 2.5-1.7 3.9-2 .8 2.9.3 3.4-3.7 4.3l-.9-1.2z"/><path class="prefix__st0" d="M387 116.6c1.2 1.5 3.3 2.7 1.2 5-1.1-1.5-3.3-2.7-1.2-5z"/><path class="prefix__st1" d="M389.2 108.7c-1.4-.8-1.5-3.3-3.7-3.1v-.8c1.6-1.2 3.3 0 5-.2v.9c-1.2.7-.9 2.1-1.3 3.2z"/><path class="prefix__st6" d="M431.7 16.8c-.5 2-1.6 2.2-3.1 1.1.5-1.7 1.8-1.3 3.1-1.1z"/><path class="prefix__st2" d="M391.5 125.3c-1.2.3-2.1-.4-3.1-.7l-.1-1 3.1-.1c0 .6 0 1.2.1 1.8z"/><path class="prefix__st1" d="M385.2 8.6c.8-1.8 2.4-1.2 3.7-1.1-.9 1.6-2.5.8-3.7 1.1zM435.5 15.8c-.4.6-1.2.9-1.8.5-.2-.1-.3-.2-.4-.4.7-1.8 1.4-1.8 2.2-.1z"/><path class="prefix__st2" d="M390.6 130.5c1.4-.1 2.1.6 2 1.9-.9.2-1.8-.4-2-1.4v-.5zM379 140c-.2.7.7 2-.6 2.1-.5.1-.3-1.3-.5-2l1.1-.1z"/><path class="prefix__st5" d="M436.5 125.4c1.3-.1 3 .2 3.9-.5 4.2-3.1 8.7-1.8 13.2-1.6 3.4.2 3.1 2.9 4.3 4.6 1.2 1.7 1 3.4-1.1 4.5-3.6.8-7.3 2.2-10.9 2.1-3.8-.1-7.4 1.1-11.1.6l-10.8.3c-2.3-2.5-4.8-1.7-7.3-.4l-2.1.1h-.6l-.4-1.7c3.3-2.5 7.3-1.2 10.9-1.6 4-.4 7.9-1.2 11.8-2.3-1.5-2.1-3.7-.2-5-1.5 1.6-1.4 4.8.8 5.2-2.6z"/><path class="prefix__st1" d="M436.5 125.4c-.4 3.4-3.6 1.2-5 2.7 1.3 1.3 3.4-.6 5 1.5-3.8 1.1-7.8 1.9-11.8 2.3-3.6.3-7.6-.9-10.9 1.6-2.8 1.9-6 1.5-9 1-2.3-.4-4.5-.4-6.8-.6-.4-.9-.8-1.9-1.2-2.8 1.8-2.3 4-4.1 6.6-5.3.2 1.7.2 3 2.9 2.8 2.4-.2 5.2-.9 7.6.9 1.1.8 2.6-.1 3.8-.4 5.4-1.3 11.1-1.6 16.4-3.5.7-.2 1.6-.3 2.4-.2zM434.9 135.3c3.7.5 7.3-.7 11.1-.6 3.6.1 7.2-1.4 10.9-2.1 0 2.5.4 5.1-1.7 7-2.5-3.2-6-3.6-9.2-2.3-4.4 1.6-7.7 0-11.1-2z"/><path class="prefix__st6" d="M416.8 135.1c2.5-1.3 5-2.1 7.3.4-2.5 1.1-4.9.3-7.3-.4z"/><path class="prefix__st1" d="M396.7 131.1c.4.9.8 1.9 1.2 2.8-1.5.5-2.2-.3-2.3-1.7l-.2-2.9c1 .2 1.2 1 1.3 1.8z"/><path class="prefix__st2" d="M440.3 144.3l-3 .1c1-1.4 1.9-1.5 3-.1z"/><path class="prefix__st6" d="M414.1 135.2h.6l-.3.7c-.1-.2-.2-.5-.3-.7z"/><path class="prefix__st5" d="M396.7 131.1c-.1-.8-.3-1.6-1.3-1.8l-.4-1.8c.5-2.2 0-4.4 1.5-7.1-1.9.7-2.9.9-4 .6 0-4.4-2.1-8.2-3.3-12.3.4-1.1 0-2.5 1.2-3.3 1.4-.1 2.5-1.3 4-1 1.2 1.2 2.6.5 4 .5 2.4-.4 3.3 1 3.5 3.1l.1 2.9c-1.5 2-2.2 3.8.9 5 1.2 2.5 1.4 5.2 1.5 8-.2.7-.4 1.5-1.2 1.9-2.5 1.2-4.7 3.1-6.5 5.3z"/><path class="prefix__st6" d="M404.5 123.9c-.1-2.7-.3-5.5-1.5-8 2-.3 2.5 1.4 3 2.7.4 1.2.8 2.1 2.2 2.1l2.3 1.8c-1.7 2-4.1.9-6 1.4z"/><path class="prefix__st1" d="M428.2 120.7c.6-1.3 1.9-1 2.9-1.1 1.4.2 2.9-.7 4.9.8l-7.8.3zM440.7 118.7c-1.2.5-2.2 1.2-2.7-.1 0-.3 1.4-.4 2.7.1z"/><path class="prefix__st0" d="M411.9 27.3c0-1.1-.6-2.4.9-3.1.4 2.4 2.3 1.9 3.9 1.9 4.5-.2 9-.5 13.5-.5 5.2-.2 10.2 1.7 14.1 5.3-.8 2.1 2 4.2.1 6.3-1.1.4-2.2.7-3.2 1-4.8 1.5-9.7-.4-14.5.7-.9-1.4-2.4-.8-3.6-1-2.7-.4-5.6-.5-7.7-2.6-1.7-1-2.3 1.7-3.9 1.2-1.3.3-2.9-.4-4 .9l-4 .5c-.7-1.1-1.9-.9-2.9-1-.7-1.9-1.9-3.5-3.4-4.8.3-4.5.7-4.8 5.9-3.3.3.4-.4 1.5.8 1 .2-.1-.3-.8-.8-1 0-2.2 1.6-2.1 3.1-2.2 1.9-.1 3.9-.4 5.7.7.2 1.1-.2 2.3.9 3.7.2-1.6.6-2.8-.9-3.7z"/><path class="prefix__st2" d="M415.2 35.3c2.1 2.2 5 2.3 7.7 2.6 1.3.2 2.7-.5 3.6 1 .4.8 1.2.8 1.9.9-2.7 2.4-6.3.9-9.1.9-3.6 0-6.5 1-9.7 1.9.1-.8 1.1-1.5.5-2.2-.5-.7-1.1.3-1.7.4-2.3 2.5-2.6 2.5-3.9-.6l3.6-1.7h3.4c2.2 0 4.3 0 3.7-3.2z"/><path class="prefix__st1" d="M396.9 71.1c.1-.1.1-.4.2-.4 5.4-1.5 4.8-5.7 4.4-9.8 1.1 1.3 2.4 2.2 4 2.8-.2 1.5-2.4 2.2-1.8 4.1.9 3.2 3.9 2.9 6.2 3.7h.4l-.3 3c-1.8.2-3.5.3-5-1.2-2.2-2.2-5.1-2.6-8.1-2.2z"/><path class="prefix__st6" d="M428.5 39.7c-.7-.1-1.5-.1-1.9-.9 4.8-1.1 9.7.8 14.5-.7 1.1-.3 2.2-.7 3.2-1-.5 2.6-2.5 2.6-4.5 3-3.8.7-7.5-.6-11.3-.4zM408.1 38.4l-3.5 1.7c-.8-.5-1.2-1.3-1.1-2.2l4-.5.6 1z"/><path class="prefix__st3" d="M408.5 40.6c.6-.1 1.2-1 1.7-.4.6.8-.4 1.5-.5 2.2-1-.2-1.1-1-1.2-1.8z"/><path class="prefix__st6" d="M401.1 51.9l-.3-3c1.5.9 1.5 1.9.3 3z"/><path class="prefix__st5" d="M418.3 81.2c-.8-3.5 1.1-4.9 4.1-6.5 4.1-2.1 8.7-1.7 12.8-3.4 1.1-.4 2.1 0 3 1.1 3.1 3.7 2.3 12-1.4 14.9-1.5-3.4-3.7-5.1-7.8-4.9-3.6.2-7.1-.7-10.7-1.2zM396.9 71.1c3-.5 5.9-.1 8.2 2.2 1.5 1.5 3.2 1.3 5 1.2 1.7 1.2 3.4 4.6 5.4-1.5.7 3.7 1.8 5.6 1.5 7.9-1.3 3-4 2.6-6.5 2.7-.8-1.3-1.9-.9-3-.6-3.5 1.2-6.8 1.8-8.6-2.7-.5-.9-1.4-1.5-2.5-1.5-.2-.9-.3-1.8-.5-2.7-.2-1.7 1.1-3.2 1-5z"/><path class="prefix__st1" d="M401.9 108.1c-.2-2.2-1.1-3.5-3.5-3.1 1.7-1.3 2.8-3.2 2.3-5.1-.4-1.5-3.4-1.3-3.6-3.6 6.5 1.1 6.9.6 4.7-5.9 0-.2-.1-.3-.1-.5l.1-.1c1.9 1.8 3.9 1.8 6.2.6 1.8-.9 3.5-2.6 7.1-1.6-3.4 2.1-5.7 4.4-9.1 5-1.6 3.7-4 7.2-1.8 11.6 1 2.1-.7 2.5-2.3 2.7z"/><path class="prefix__st6" d="M396.5 79c1 0 2 .6 2.5 1.5 1.8 4.5 5.1 3.9 8.6 2.7 1.2-.4 2.2-.8 3 .6 0 1.5-1.1 1.6-2.3 2-2.5.8-5.1 1.6-6.5 4.2l-.1.1c-2.8-3.2-4.7-7-5.2-11.1z"/><path class="prefix__st1" d="M422.3 90.3c.5.1 1 .6 1 1.1 0 .2-.7.4-1.2.5-.4.1-.9-.2-.9-.7v-.1c-.1-.5.2-.9 1.1-.8zM427.2 92.2c-.1.2-.2.4-.4.5-.3.1-.6.1-.9 0-.5-.2-.5-.5 0-.7.4-.3.9-.2 1.3.2z"/><path class="prefix__st6" d="M402.9 115.9c-3.1-1.1-2.4-3-.9-5 1.5 1.5.7 3.4.9 5zM410 71.5c-2.3-.8-5.3-.5-6.2-3.7 2.3.8 4.7 1.4 6.2 3.7z"/><path class="prefix__st1" d="M412.8 69.4c-1.1 0-2-.3-1.9-1.7 0-.2.4-.7.5-.6 1.3.2 1.2 1.3 1.4 2.3z"/><path class="prefix__st3" d="M426.4 10.3c-.6.5-1.6.6-2.3.2-.4-.1-.3-.6.1-.6.8-.1 1.6-.5 2.2.4z"/><path class="prefix__st6" d="M441.4 16.4c.3-1.2 1.2-1.4 2.3-1.1-.4 1.1-.8 2.2-2.3 1.1z"/><path class="prefix__st1" d="M396.9 71.1c.1 1.8-1.3 3.3-.9 5.1l-1.7-.1c-.1-1.1-1-1.9-2-2-.8-2.7-1.8-5.3-3.1-7.8-.9-1.9-2.1-4.2.6-5.9.6 3.5 2.9 6.3 3.7 9.7.8 2.7 2.3.9 3.4 1z"/><path class="prefix__st4" d="M395.1 33.2c.3 0 .6 0 .9.1.1.5.3 1.2-.2 1.3-.9 0-.8-.8-.7-1.4z"/><path class="prefix__st1" d="M394.4 76.1l1.7.1c.2.9.3 1.8.5 2.7.5 4.1 2.4 8 5.3 11 0 .2 0 .3.1.5 2.1 6.5 1.7 7-4.7 5.9.2 2.3 3.2 2.1 3.6 3.6.5 1.9-.6 3.8-2.3 5.1-1.4 0-2.8.7-4-.5 1.6-3.8.9-8.1-1.7-11.3 2-.9 2.4.4 3.1.9 2.2 1.3 3.2-.9 2.6-1.7-.9-1.5-.7-4.4-3.7-4.1l-.5-12.2z"/><path class="prefix__st0" d="M394.7 88.2c3-.3 2.8 2.6 3.7 4.1.5.8-.4 3-2.6 1.7-.8-.4-1.1-1.8-3.1-.9 2.7 3.1 3.3 7.5 1.7 11.2-1.5-.3-2.6.8-4 1v-.9c-.6-4.2 1.5-8 1.4-12.1-.1-1.9 1.3-3.2 2.9-4.1z"/><path class="prefix__st1" d="M392.6 121c1.1.4 2.2.1 4-.6-1.5 2.7-1.1 5-1.5 7.1-1-.2-1.7-1.2-1.6-2.2.1 0 .3-.1.4-.2.1-.1 0-.2.1-.3l-.4.5h-1.9c0-.6-.1-1.2-.1-1.8.7-.6.8-1.6 1-2.5z"/><path class="prefix__st6" d="M415.2 35.3c.6 3.3-1.6 3.2-3.8 3.1l-.1-1.9c1.6.4 2.2-2.2 3.9-1.2z"/><path class="prefix__st1" d="M411.4 36.5l.1 1.9h-3.4l-.7-1.1c1.1-1.2 2.6-.6 4-.8z"/><path class="prefix__st3" d="M411.9 27.3c1.5.9 1.1 2.1.9 3.7-1.1-1.3-.7-2.6-.9-3.7z"/><path class="prefix__st6" d="M403 28.8c.5.2 1 .9.8 1-1.2.5-.5-.7-.8-1z"/><path class="prefix__st2" d="M393.4 125.3l.4-.5c0 .1 0 .2-.1.3 0 .1-.2.2-.3.2z"/><path class="prefix__st0" d="M659.9 145.2c-1.6.8-3.2 2.2-4.8 2.4-3 .3-6.6.7-9.1 1.2-1.8.3-3.6.8-5.3 1.4-4.3 1.6-8.6 1.6-13.2.9-7.7-1.2-15.5-1.9-23.3-.4-3.2.5-6.5.2-9.4-1.1-1.8-.7-2.5-2.5-4.1-3.8-3-2.6-2.5-6.7-2.2-9.8 1.9-18.7 2.3-37.5 3.1-56.2.7-16.4 1.1-32.9 1.8-49.4.3-6.2.1-14.7 4.7-19.8 1.7-2.9 6.6-4.1 8.6-3.3-2.9 2.9-5.1 6.5-8.7 8.9-1.6 1-1.9 2.9-2.2 4.8-.5 3.9-.8 7.8-.7 11.7-.3 17.3-2 34.5-2 51.8 0 16.8-1.7 33.6-2.6 50.4-.1 1.7-.9 3.7.9 5.1 2-1.6-.6-3.6 1-5.2 1.4 1.2 1 3 2 4.1s2.6 1.1 2.6-.3c-.2-3.9 2.4-6.9 2.8-10.5 1.1-9.7 2.5-19.4 2.6-29.2.1-7.1 1.8-14.2.3-21.4-.3-1 .2-2 1.2-2.3.2-.1.4-.1.7-.1.7 2.6 1 5.2.7 7.9-.5 7.5-.9 14.9-1.2 22.4-.1 1.7-.6 3.4.8 5l2.7-47.2c.9 1.2.6 2.5.6 3.8 0 7.9-.4 15.9-.4 23.8.1 11.3-.1 22.5.5 33.8.2 3.7-.7 8.1 3.1 11-.3 3.7-.6 7.3 2.5 10.2-1.3 2.1-4-.2-5.6 1.5 4.7 2.2 5.4 2.1 6.6-1.4h1.7c1.4 1.7 2.1 1.1 2.4-.7.3-2.4.5-4.8.8-7.2.8.8 1.5 1.9 2.5.3 1.2.1 2.3.6 3.2 1.3 3.3 2 5.1 1.6 6.8-1.8.3-.6.5-1.2.7-1.9.6-1.8 1.5-2.7 3.8-3.1 3.4-.5 6.9-.7 10.4-2.3 3.2-1.4 6.7-4.1 10.8-3.3l1.1.1c0 2.5 2.1 2.7 3.7 3.4.3 2.7 1.4 4.5 5.4 3.2-2.1 2.3-3.2 3.8-4.7 5.1-1.6 1.4-.8 2.6 0 3.9l-.1-.2.1.2c-2.5-.9-3.6-.2-3.6 2.3zm-3-6.3c-.5-5.6-.6-5.7-4.9-3.9-3.3 1.5-7 2-10 4.3-1.2.9-2.7 1.4-2.7 3.8 6.3-.1 11.2-4.8 17.6-4.2zm-50.9 7.5c-3.5.6-6 .9-8.5.2-.6-.2-1.3-.5-1.5.4-.1.5 0 .9.3 1.3 2.1 1.9 6.9 1.3 9.7-1.9z"/><path class="prefix__st1" d="M670.2 17.5c3.6 2.8 6.5 6.3 8.5 10.3 3.2 7.4 6.5 14.5 8 22.7 2.5 13.7 2.9 27.7 1.2 41.5-.6 4.8-2 9.4-1.8 14.3 0 .9-.7 1.4-1.5 1.8-.2-.1-.3-.3-.5-.4.3-5.1.6-10.3.8-15.4.1-1.6.9-3.3-.7-4.6l.3-3c3.2-2.8 2.2-5.9.6-9l.3-5.9c1.3-2.6 1.8-5.3.2-7.9-1.1-1.3-.6-2.8-.7-4.3-.6-5.9-1.3-11.8-4.3-17.2-1.8-3.5-4.7-6.3-8.2-8-4.2-2.3-7.9-5.4-11-9.1-.5-.6-1.3-1.3-2.1-.4-.7.7-.4 1.5.3 2.2 2.8 3 5.4 6.4 8.7 8.8 1.5 1 2.4 2.6 2.5 4.4.7 7.3 6.2 13.4 4.9 21.3-.5 3 1.2 6.2.9 9.1-.5 5.1.3 10.1 0 15.2-.7 9.6-.2 19.3-4.4 28.3-1.8-.8-.1-3.2-1.7-4.1.8-1.5 1.3-3.3 1.3-5 .7-.4 1.2-1.2 1-2 .3-3.6.5-7.3.8-10.9 1.1-.7.9-1.9.9-3 0-6.7.1-13.3.1-20-.1-1.4.7-2.9-.6-4.1l-.1-6.8c0-.2.1-.3.1-.5-1.1-5.5-4.1-10.4-4.7-16.1 0-.4-1-.7-1.5-1.1.1-3-3.1-3.4-4.6-5-2.4-2.6-3.3-6.6-7.2-7.7-.8-.9-1-3.2-2.2-2.8-3.1 1-5.8-1.4-8.7-.7-1.3-.4-2.6-.5-3.9-.2-3.4.3-.1 4.4-3.5 5.5l.4-7.6c.2-3 1.8-4.2 4.9-3.5 4 .9 8 1.8 12 2.8 1 .3 1.9.8 2.3-.7.5-3-1.4-5.9-4.3-6.7-4.5-1-9.1-1.7-13.7-1.9-7-.2-13.9-.7-20.8-1.1-1.6-.1-3.4.5-4.5-1.2 1.6.4 1.9-1.3 3-1.8 8.9.9 17.8-1 26.6.5 6.1 1.1 15.5 2.6 18 4.3.8.5 6 4.8 8.6 6.7z"/><path class="prefix__st1" d="M663.3 142.7c-.7-1.3-1.5-2.5 0-3.9 1.4-1.3 2.6-2.8 4.7-5.1-4 1.3-5.1-.5-5.4-3.2 2.8-1.9 6.3-2.6 8.6-5.4 1.3-1.6 1.7-5 5.3-3.5.4.2.6-.6.7-1.1.6-3.5 3.2-6.3 4-9.8.2-1.5 1.3-2.8 2.8-3.2.2.1.3.3.5.4v1.5c-.6 1-.8 2.1-.6 3.2l-.8 1.7c-.2.4-.3.8-.5 1.2-1.3.6-.9 1.9-1.1 2.9l-.3 1.5-1.4 2.4c-2.3 1.5-2.3 4.2-3 6.4-4.8 4.5-7.2 11.2-13.5 14z"/><path class="prefix__st0" d="M616.6 5.7c-1.1.5-1.4 2.2-3 1.8l-6.9-.3c3.2-.8 6.5-1.8 9.9-1.5z"/><path class="prefix__st6" d="M676.7 128.8c.8-2.3.7-4.9 3-6.4-.3 2.5-.4 5-3 6.4z"/><path class="prefix__st1" d="M659.9 145.2c0-2.4 1.2-3.2 3.4-2.4-.3 1.5-1.8 2.6-3.4 2.4z"/><path class="prefix__st5" d="M681.5 118.5c.3-1-.2-2.3 1.1-2.9-.2 1-.3 2.1-.5 3.1-.2-.1-.4-.2-.6-.2zM683.9 112.7c-.2-1.1.1-2.2.6-3.2.6 1.2.6 2.3-.6 3.2z"/><path class="prefix__st6" d="M681.5 118.5c.2.1.4.1.7.2 0 .6-.1 1.3-.9 1.3 0-.5.1-1 .2-1.5z"/><path class="prefix__st5" d="M682.6 115.5c.2-.4.3-.8.5-1.2.3.7 0 1-.5 1.2z"/><path class="prefix__st3" d="M606.6 7.2c2.2-.8 4.6.2 6.9.3 1.2 1.7 3 1.1 4.5 1.2 6.9.5 13.9.9 20.8 1.1 4.6.2 9.2.9 13.7 1.9 2.9.9 4.7 3.7 4.3 6.7-.3 1.5-1.2 1-2.3.7-4-1-8-1.9-12-2.8-3.1-.7-4.7.6-4.9 3.5l-1.8-.2c-1.1 0-2.4-.5-3.2.8-1.1 0-2.2-.4-3 .8l-5.9-.5c-.4-.9-1.1-1.6-2-1.9-2-.3-3.2.1-2.9 2.5-2.3 0-3.8 1.6-5.3 3.1-1.3 1.1-3.9.1-4.2 2.7-.6.2-1 .7-1.2 1.3l-.7 1.5c-1.3.1-2.2.5-2.3 2-.4 7.7-.8 15.3-1.3 23-.1 1 .6 2 1.7 2.1-.1 1.9-.2 3.9-.3 5.8-2.7 2.4-2.9 6.5-.5 9.1 0 .9-.1 1.9-.1 2.8-1-.1-1.9.7-1.9 1.7 0 .2 0 .4.1.6 1.4 7.2-.3 14.2-.3 21.4-.1 9.8-1.5 19.5-2.6 29.2-.4 3.6-3 6.6-2.8 10.5.1 1.4-1.5 1.4-2.6.3s-.6-2.9-2-4.1c-1.6 1.6.9 3.6-1 5.2-1.8-1.4-1-3.4-.9-5.1.9-16.8 2.6-33.6 2.6-50.4 0-17.3 1.7-34.5 2-51.8-.1-3.9.2-7.8.7-11.7.3-1.9.7-3.7 2.2-4.8 3.4-2 4.7-7 8.5-8.5z"/><path class="prefix__st5" d="M607.5 30.1l.7-1.5c.3.2.6.2.9.2l1 .7c-.2 1.5 0 2.8 1.9 3l7.1 6.3c0 .4-.1.7-.1 1.1-1.3 2.2-1.4 4.7-1.7 7.2-.5 4.7.3 9.3 0 13.9-.7 13-1.5 25.9-2.1 38.9-.3 6-1.1 11.9.2 17.9-1.1 2.2 1.7 3.1 1.7 5l-.1.1c-1.5 2.3-2.4 5-2.6 7.7-.1 1.7-.1 3.3-2.1 4-.5 0-.9.4-.9.9-3.8-2.9-2.9-7.2-3.1-11-.7-11.2-.5-22.5-.5-33.8-.1-8 .3-15.9.4-23.8 0-1.3.3-2.7-.6-3.8l.4-7.8c.2-2.8 1.1-5.6-.2-8.4l.2-3.9c2-4.4 1-8.6-.5-12.9z"/><path class="prefix__st3" d="M657.8 127.2c-4.1-.7-7.5 1.9-10.8 3.3-3.5 1.5-7 1.7-10.4 2.3-2.3.4-3.2 1.2-3.8 3.1-.2.6-.4 1.3-.7 1.9-1.7 3.3-3.6 3.8-6.8 1.8-.9-.7-2-1.2-3.2-1.3 0-.3 0-.5.1-.8-.1-3.1 1.4-6.5-1.4-9.3-1.3-1.2.6-2.1.3-3.1 1.2-.6.8-1.8 1-2.8 1-1.1 1.8 0 2.7.2 7.1 2 14.2 5.1 21.1-.6 1.1-.9 2.4.9 3.8 0 1.3-.9 4.4.6 3.7-2.9.9-.3 1-1.1 1.1-1.9 2.4-1.7 4.4-4.2 8.1-1.9-.5-3.9-2-7.5-1.1-10.3 1.6-5.1 1.3-10.9 4.9-15.3.5-.5.4-1.3-.1-1.7-1.9-1.9-1.1-4.2-.6-6.1.6-1.7.5-3.5-.2-5.1-1.9-4.7-.3-7.7 4.3-9.3.8 1.8.2 3.6.2 5.4 0 1.7-.1 3.4 1.8 4.2-.1.7-.1 1.3-.2 2h-1c-4.9 0-.5 2.8-1.2 4 .5 2.6 2.6 5.1.6 7.9-.4.6 0 1.6.8 2.1.1 1.8-1 3.2-1.3 4.9-.3.1-.8.3-.9.4-.9 5.6-3.7 10.6-4.1 16.3-.1 0-.3.1-.4.2-.1.1-.1.2-.1.3l.5-.4 1.9.1 1.3.3 2.6 4.8c-.3 2.6-3 3.4-4.1 5.3-1.8 3.3-4.4 3.3-7.5 2.1 0-.3.1-.7.1-1 3.5-2.3 6-5.8 7.3-9.7-4.5 1.7-6.6 5.2-7.4 9.7l-.9.9zm-22.9-.5c-1.3 1.3-1.5 3.3-.6 4.8 1.5-1.4 2-2.7.6-4.8z"/><path class="prefix__st1" d="M658.9 127.2c3 1.2 5.6 1.2 7.5-2.1 1.1-2 3.8-2.7 4.1-5.3 1.3.4 2.7-.2 3.4-1.3 2.1-2.7 4.1-5.4 5-8.7 1-4.1 1.9-8.3 3.1-12.3 1-3.3-.3-7 2.1-9.8 1.7 1.3.8 3.1.7 4.6-.2 5.1-.5 10.3-.8 15.4-1.5.5-2.5 1.7-2.8 3.2-.8 3.5-3.4 6.2-4 9.8-.1.5-.4 1.3-.7 1.1-3.6-1.5-3.9 1.9-5.3 3.5-2.3 2.8-5.9 3.5-8.6 5.4-1.6-.8-3.7-1-3.7-3.5z"/><path class="prefix__st4" d="M607.9 55.3l-.4 7.8-2.7 47.2c-1.4-1.6-.9-3.3-.8-5 .4-7.5.8-14.9 1.2-22.4.3-2.6 0-5.3-.7-7.9 0-.9.1-1.9.1-2.8.2-3.1.3-6.1.5-9.2.1-1.9.2-3.9.3-5.8.2-3.5.5-6.9.8-10.4.1-1.4-.2-3.1 1.6-3.8l-.2 3.9c-.2 2.8-1.3 5.6.3 8.4z"/><path class="prefix__st2" d="M656.9 138.9c-6.4-.7-11.4 4-17.6 4.2 0-2.4 1.5-2.9 2.7-3.8 3-2.3 6.7-2.8 10-4.3 4.3-1.8 4.4-1.7 4.9 3.9z"/><path class="prefix__st4" d="M619.6 137.9c-.3 2.4-.5 4.8-.8 7.2-.2 1.8-1 2.4-2.4.7.1-.3.2-.6.1-.8 1.3-7.3-.6-14.7.4-22.1l.1-.1 1.9-.8c.8 5.2-.9 10.6.7 15.9z"/><path class="prefix__st1" d="M619.6 137.9c-1.7-5.2.1-10.6-.6-15.9.2-.5.7-.9 1.2-1l.9 1.1v2.8c.2 1.1-1.6 1.9-.3 3.1-.2 3.2.3 6.3 1.4 9.3-.1.3-.1.5-.1.8-1 1.7-1.7.5-2.5-.2zM611.4 135.5c.1-.5.4-.9.9-.9 2.9 2.8 2.1 6.7 2.8 10.2l-.3 1c-.3 0-.6-.1-1-.1-3.1-2.9-2.7-6.5-2.4-10.2z"/><path class="prefix__st3" d="M606 146.4c-2.8 3.2-7.6 3.9-9.7 1.9-.3-.4-.4-.8-.3-1.3.2-.9.9-.6 1.5-.4 2.4.7 5 .4 8.5-.2zM613.8 145.7c.3 0 .6.1 1 .1-1.2 3.5-1.9 3.7-6.6 1.4 1.6-1.7 4.3.6 5.6-1.5z"/><path class="prefix__st2" d="M614.8 145.8l.3-1 1.5.2c.1.3 0 .6-.1.8h-1.7z"/><path class="prefix__st6" d="M659 126.3c0 .3-.1.7-.1 1l-1.1-.1 1.2-.9z"/><path class="prefix__st5" d="M684.1 87.6c-2.4 2.9-1.1 6.6-2.1 9.8-1.2 4-2.1 8.2-3.1 12.3-.8 3.3-2.9 6.1-5 8.7-.7 1.1-2.1 1.7-3.4 1.3l-2.6-4.8c.3 0 .5-.1.8-.1 2.3.4 3.2-.7 3.1-2.9 4.2-9 3.7-18.8 4.4-28.3.4-5-.4-10.1 0-15.2.3-2.9-1.4-6.1-.9-9.1 1.3-7.8-4.2-14-4.9-21.3 0-1.8-1-3.4-2.5-4.4-3.3-2.4-5.8-5.8-8.7-8.8-.6-.7-.9-1.5-.3-2.2.8-.9 1.5-.2 2.1.4 3.1 3.7 6.8 6.7 11 9.1 3.5 1.8 6.4 4.6 8.2 8 3 5.3 3.7 11.2 4.3 17.2.2 1.5-.4 3 .7 4.3l-.2 7.9-.3 5.9-.6 9c.2 1.2.1 2.2 0 3.2z"/><path class="prefix__st2" d="M671.8 76.8c-2-.8-1.9-2.5-1.8-4.2 0-1.8.7-3.6-.2-5.4-4.6 1.6-6.2 4.5-4.3 9.3.7 1.6.7 3.4.2 5.1-.5 1.9-1.3 4.2.6 6.1.5.4.6 1.2.2 1.7-3.7 4.4-3.3 10.2-4.9 15.3-.9 2.8.6 6.4 1.1 10.3-3.6-2.3-5.7.2-8.1 1.9.1-1 .1-2 .2-3 1.2-1 2.6-2 1.2-3.8l1-1c.7 0 1.7 1.2 2-.2 2.2-10.5 5.3-20.9 4.8-31.8-.1-2.6-1.1-5.2-.5-7.9l.1-1.9c-1.3-3-.3-6.5-2.4-9.3-.7-2.9 0-6.5-3.7-8.1l-2-.1c-.2-1.6 1-3.7-1.8-4.1 1.5-2.6 1.9-5-1-7-.6-.5-1.2-1.2-1.6-1.8-1.9-2.3.3-4.4.5-6.5.2-1.9 1.7-1.6 3-1.6 3.4 4.6 5.2 11.2 13.1 9.6.5.4 1.5.7 1.5 1.1.7 5.6 3.6 10.6 4.7 16.1 0 .1-.1.3-.1.5-3.6 1.6-2 4.8-1.8 7.1.7 4.6.7 9.1 0 13.6z"/><path class="prefix__st0" d="M654.4 28.8c-1.3 0-2.8-.3-3 1.6-.2 2.2-2.5 4.2-.5 6.5.5.7 1 1.3 1.6 1.8 2.9 2 2.5 4.4 1 7-.9-.8-1.7-1.5-2.6-2.3-1.7-1.5-2.2-.2-2.6 1.2-7.1-5-14.5-5.8-22.4-2-1.5-1.6-1.5-2.6 1-2.9.6-.1 1.2-.2 1.8-.4 4.4-1.3 8.9-.2 13.3-.7-4.3-1.7-8.8-.7-13.1-1.3-3.2-.6-6 1.3-9 1.5.5-2 3.1-3.3 2.3-5.8 1.5-3.4-2.3-1.8-3-3.1-1.1-1.4.5-1.5 1-2.1.4.5.7 1.2 1.4.9.6-.3.1-.7-.2-1l.1-1.3c1.9-2.3-.4-4.9.4-7.3.9.3 1.6 1 2 1.9 1.6 3.2 3.6 3.3 5.9.5.8-1.2 1.9-.8 3-.8 1.7 2 2.3.1 3.2-.8l1.8.2-.4 7.6c3.4-1.1 0-5.2 3.5-5.5-.1 1.5.7 2.1 2.1 2.1 1.3 0 1.7-.7 1.8-1.9 3-.8 5.6 1.7 8.7.7 1.2-.4 1.4 1.9 2.2 2.8-1.4.5-1.1 1.8-1.3 2.9z"/><path class="prefix__st4" d="M654.4 28.8c.1-1.1-.1-2.4 1.3-3.1 3.9 1.1 4.9 5.1 7.2 7.7 1.5 1.6 4.7 2 4.6 5-7.9 1.6-9.7-5-13.1-9.6zM671.8 76.8c.7-4.5.7-9.1.1-13.6-.3-2.4-1.8-5.5 1.8-7.1l.1 6.8c-.1 1.4-.9 2.9.6 4.1 0 6.7-.1 13.3-.1 20-1.4-.1-1.9-.9-1.9-2.3.1-1.9.2-3.9.3-5.8 0-.8 0-1.6-.9-2.1z"/><path class="prefix__st2" d="M666.6 114.7l-1.9-.1c.4-5.7 3.2-10.7 4.1-16.3 0-.2.6-.3.9-.4.7 1.2.7 3.2 2.8 3.1.1.8-.3 1.6-1 2-1-.2-2 .4-2.2 1.4-1.2 3.3-2.8 6.6-2.7 10.3z"/><path class="prefix__st0" d="M672.5 78.9c-.1 1.9-.1 3.9-.3 5.8-.1 1.4.4 2.2 1.9 2.3 0 1.1.2 2.2-.9 3-1.7.2-.9 2.5-2.4 2.9-.8-.5-1.2-1.5-.8-2.1 2.1-2.9 0-5.3-.6-7.9 1.3.6 2.2.7 1.8-1.2-.2-.9-.5-1.9-.7-2.8h2z"/><path class="prefix__st4" d="M666.6 114.7c-.1-3.7 1.5-7 2.6-10.4.2-1 1.2-1.6 2.2-1.4 0 1.7-.4 3.5-1.3 5l-.4 1.9c-.7.5-1 1.3-.8 2.1l-.2 3c-.3.1-.5.1-.8.1l-1.3-.3zM670.8 92.8c1.5-.4.7-2.6 2.4-2.9-.3 3.6-.5 7.3-.8 10.9-2.2.1-2.1-1.9-2.8-3.1.2-1.6 1.4-3.1 1.2-4.9z"/><path class="prefix__st6" d="M669.7 109.7l.4-1.9c1.6.9-.1 3.2 1.7 4.1.1 2.2-.8 3.3-3.1 2.9l.2-3c.8-.3 1.1-1.2.8-2.1zM684.4 84.6l.6-9c1.6 3.1 2.6 6.2-.6 9zM685.3 69.6l.2-7.9c1.7 2.7 1.1 5.3-.2 7.9z"/><path class="prefix__st4" d="M644.7 22.3c-.1 1.1-.5 1.9-1.8 1.9-1.4 0-2.2-.6-2.1-2.1 1.3-.3 2.7-.2 3.9.2z"/><path class="prefix__st2" d="M674.3 67c-1.5-1.2-.6-2.7-.6-4.1 1.3 1.2.5 2.7.6 4.1z"/><path class="prefix__st4" d="M621.5 26.3l-.1 1.3-1.3.2c-.5.6-2.1.6-1 2.1-.1 1.7 1.3 3.1 2.9 3.1h.1c.8 2.6-1.8 3.8-2.3 5.8-.3-.1-.5-.1-.8-.1l-7.1-6.3c1.5-.4 1.6-2.8 3.9-2.4 1.5.2 1.6-1.7 1.7-3.1 1.3-.7.7-1.6.1-2.5-.1-.2-.5-.2-.8-.3-.1.8-.2 1.6-.4 2.4-2.1.8-3 0-2.9-2.1 1.5-1.5 3-3 5.3-3.1l2.7 5z"/><path class="prefix__st0" d="M607.9 43c-1.8.8-1.4 2.4-1.6 3.8-.3 3.5-.5 6.9-.8 10.4-1-.1-1.8-1.1-1.7-2.1.4-7.7.9-15.3 1.3-23 .1-1.5 1-1.9 2.3-2 1.6 4.3 2.6 8.5.5 12.9zM617.5 27c0 1.3-.2 3.3-1.7 3.1-2.3-.3-2.4 2-3.9 2.4-1.8-.3-2.1-1.5-1.9-3 2-1.3 1-1.9-.6-2.2.3-2.6 2.9-1.6 4.2-2.7-.1 2.1.8 2.9 2.9 2.1l1 .3zM605.2 63c-.2 3.1-.3 6.1-.5 9.2-2.4-2.7-2.2-6.8.5-9.2z"/><path class="prefix__st1" d="M621.5 26.3l-2.6-4.8c-.3-2.3 1-2.8 2.9-2.5-.8 2.4 1.6 5-.3 7.3z"/><path class="prefix__st4" d="M629.8 21.4c-2.4 2.8-4.4 2.6-5.9-.5l5.9.5z"/><path class="prefix__st1" d="M636 19.8c-.9 1-1.5 2.8-3.2.8.8-1.3 2.1-.8 3.2-.8z"/><path class="prefix__st0" d="M609.1 28.8c-.3 0-.6-.1-.9-.2.2-.6.6-1.1 1.2-1.3l-.3 1.5z"/><path class="prefix__st4" d="M628.6 39.4c-.6.2-1.2.3-1.8.4-2.5.3-2.5 1.3-1 2.9l-1.3 1.5c-3.8 3.4-2.2 7.9-2.5 12.1l-.3 5.6c-.8 4.7-1.1 9.5-.9 14.3l-2.3 41.6c-.1.4-.2.8-.2 1.2-1.6 1.4-2-.6-2.9-1.1-1.3-5.9-.5-11.9-.2-17.9.6-13 1.4-25.9 2.1-38.9.3-4.6-.5-9.3 0-13.9.3-2.5.3-5 1.7-7.2l.9-.9c3.1-.2 5.8-2.1 9-1.5-.1.5-.2 1.1-.3 1.8z"/><path class="prefix__st0" d="M616.6 145l-1.5-.2c-.6-3.5.2-7.3-2.8-10.2 2-.6 2-2.3 2.1-4 .1-2.8 1-5.4 2.6-7.7-1 7.3.9 14.7-.4 22.1zM615.4 117.8c.9.5 1.3 2.5 2.9 1.1 2.9.3 2.9.3 2 2.1-.5.1-1 .4-1.2 1l-1.9.8c-.1-1.9-2.9-2.8-1.8-5z"/><path class="prefix__st3" d="M607.9 55.3c-1.6-2.8-.4-5.6-.2-8.4 1.3 2.8.3 5.6.2 8.4z"/><path class="prefix__st4" d="M609.1 28.8l.4-1.5c1.7.3 2.6.8.6 2.2l-1-.7z"/><path class="prefix__st0" d="M619.8 38.9l-.9.9c0-.4.1-.7.1-1.1.3.1.5.1.8.2z"/><path class="prefix__st2" d="M620.2 121c1-1.8 1-1.8-2-2.1.1-.4.2-.8.2-1.2.5.1 1 .2 1.5.2 11.3 1 23 3.2 31-8.2l1.9.1c-.6 1.7-3.3 2.5-2.2 4.9-.2.7 0 1.5.6 2 0 1.4.6 2.2 2.1 2.1.6 3.4-2.5 1.9-3.7 2.9-1.3 1-2.7-.9-3.8 0-6.9 5.7-14 2.6-21.1.6-.8-.2-1.7-1.3-2.7-.2h-.9l-.9-1.1z"/><path class="prefix__st4" d="M658.9 126.2c.8-4.5 2.8-8 7.4-9.7-1.3 4-3.9 7.4-7.4 9.7z"/><path class="prefix__st0" d="M622.2 137.4c-1.1-3-1.6-6.1-1.4-9.3 2.9 2.7 1.4 6.1 1.4 9.3z"/><path class="prefix__st2" d="M670.6 78.8c.2.9.5 1.9.7 2.8.4 1.9-.6 1.8-1.8 1.2.7-1.2-3.7-4 1.1-4z"/><path class="prefix__st1" d="M634.9 126.7c1.4 2.1.9 3.3-.6 4.8-.9-1.5-.7-3.5.6-4.8z"/><path class="prefix__st0" d="M621.2 122.1h.9c-.1 1 .3 2.2-1 2.8l.1-2.8z"/><path class="prefix__st2" d="M654.5 117c-.1.8-.2 1.6-1.1 1.9 0-.8.2-1.6 1.1-1.9zM672.5 78.9h-1c.1-.7.1-1.3.2-2 1 .4 1 1.2.8 2zM664.6 114.5l-.5.4c0-.1 0-.2.1-.3.1 0 .3 0 .4-.1z"/><path class="prefix__st6" d="M663.2 69.2c-.6 2.7.4 5.3.5 7.9.5 10.9-2.6 21.3-4.8 31.8-.3 1.4-1.3.2-2 .2 0-1 .1-2 .4-2.9 3.4-9.8 4.4-19.9 4.5-30.2 0-1.3.5-2.7-.7-3.7 0-.3.1-.6.1-.9.2-1.1 1-1.9 2-2.2z"/><path class="prefix__st4" d="M661 72.2c1.2 1.1.7 2.4.7 3.7-.1 10.3-1 20.4-4.5 30.2-.2 1-.3 1.9-.4 2.9l-1 1-1.4 2.9-.7.9-2.5 2.9c-.6-.5-.8-1.3-.6-2 3.1-2.1 3.8-5.4 4.5-8.8.6-.3 1-.9 1.1-1.5 3.8-10.4 4.4-21.3 4.8-32.2z"/><path class="prefix__st1" d="M657.2 50c3.7 1.6 3 5.1 3.7 8.1l-1.1.1-1-1 .1-2-.9-1-.8-4.2z"/><path class="prefix__st6" d="M659.8 58.2l1.1-.1c2.1 2.8 1.1 6.3 2.4 9.3-.8.2-1.7-.3-2-1.1v-1c-.2-2.5-.7-4.9-1.5-7.1z"/><path class="prefix__st0" d="M661.3 66.3c.3.8 1.2 1.3 2 1.1l-.1 1.9c-1 .3-1.8 1.1-2.1 2.1-.5-1.8-3.6-3.6.2-5.1z"/><path class="prefix__st6" d="M651.2 116.8l2.5-2.9h.4l.4.1c-.1 1-.1 2-.2 3-.9.3-1.1 1.1-1.1 1.9-1.3 0-1.9-.8-2-2.1z"/><path class="prefix__st0" d="M653.5 45.8c2.8.4 1.6 2.6 1.8 4.1l-1-.1c-.1-.5-.5-.9-1-1 .1-1 .1-2 .2-3zM657.2 50l.9 4.1c-1.9-.8-2-2.7-2.8-4.2l1.9.1z"/><path class="prefix__st6" d="M654.5 113l1.4-2.9c1.4 1.9-.1 2.8-1.2 3.8-.1-.3-.1-.6-.2-.9z"/><path class="prefix__st3" d="M628.6 39.4c.1-.7.1-1.3.2-2 4.3.6 8.8-.4 13.1 1.3-4.4.5-8.9-.6-13.3.7z"/><path class="prefix__st2" d="M651.4 48.6l-.1-.4c.1-.7-.4-1.4-1-1.5v.1c.1-.6-.3-1.1-.9-1.2h-.1l.1.1c0-.6-.5-1.1-1-1.1l-.1.1c.5-1.4.9-2.7 2.6-1.2.9.8 1.7 1.5 2.6 2.3-.1 1-.1 2-.2 3l-1.9-.2z"/><path class="prefix__st3" d="M622.1 33c-1.7 0-3-1.4-3-3.1v-.1c.7 1.4 4.5-.2 3 3.2z"/><path class="prefix__st1" d="M620.1 27.8l1.3-.2c.3.3.8.8.2 1-.7.4-1.1-.3-1.5-.8z"/><path class="prefix__st2" d="M669.7 109.7c.3.8-.1 1.7-.8 2.1-.2-.8.2-1.6.8-2.1z"/><path class="prefix__st1" d="M617.5 27l-1-.3c.1-.8.2-1.6.4-2.4.3.1.7.1.8.3.5.8 1.2 1.7-.2 2.4z"/><path class="prefix__st6" d="M621.7 61.8c.7 4.8.4 9.6-.9 14.3-.2-4.7.1-9.5.9-14.3zM624.5 44.2c-2.1 3.8-.9 8.2-2.5 12.1.3-4.2-1.3-8.7 2.5-12.1z"/><path class="prefix__st0" d="M651.4 48.6l1.9.2c-.2.8.2 1.6.9 2 3.6 7.1 4.6 14.9 4.6 22.6 0 8.4-.1 17-2.3 25.2-.6 2.4-1.7 4.7-1.4 7.3-1.3.9-2.1 2.3-2.3 3.8l-1.9-.1c7.3-17.7 9-35.8 3.2-54.3-.6-2.2-1.8-4.4-2.7-6.7z"/><path class="prefix__st3" d="M652.9 109.8c.1-1.6 1-3 2.3-3.8-.7 3.3-1.4 6.7-4.5 8.8-1.1-2.5 1.6-3.2 2.2-5zM655.1 106c-.3-2.6.8-4.9 1.4-7.3 2.1-8.3 2.3-16.8 2.3-25.2 0-7.7-1-15.5-4.6-22.6 0-.4.1-.7.1-1.1l1 .1c.8 1.5.9 3.4 2.8 4.2l.9 1c-1.1.6-1.2 1.3-.1 2 .8 2.7-.8 6.1 2.4 8.1v1c-3.8 1.5-.7 3.3-.2 5 0 .3 0 .6-.1.9-.4 10.9-1 21.8-4.8 32.2-.1.8-.5 1.4-1.1 1.7zM654.5 113c.1.3.2.6.2.9l-.4-.1h-.4c.1-.2.3-.5.6-.8z"/><path class="prefix__st0" d="M661.2 65.2c-3.2-2-1.6-5.4-2.4-8.1l1 1c.8 2.3 1.3 4.7 1.4 7.1zM658.9 57.1c-1.1-.7-1.1-1.4.1-2l-.1 2z"/><path class="prefix__st2" d="M654.3 49.8c0 .4-.1.7-.1 1.1-.7-.4-1.1-1.2-.9-2 .5 0 .9.4 1 .9z"/><path class="prefix__st0" d="M648.3 44.6c.6 0 1 .5 1 1.1-.5 0-1-.5-1-1.1zM649.3 45.7c.6 0 1 .5 1 1.1v.1c-.6-.1-1.1-.7-1-1.2z"/><path class="prefix__st0" d="M650.2 46.7c.7.2 1.1.8 1 1.5-.6-.1-1-.8-1-1.5z"/><path class="prefix__st3" d="M105.7 124.8l-.1-.2.2-.2c2.3-1.1 3-3.3 3.8-5.5 4.3-11.8 6.5-24.1 10.2-36.1.3-1.6.5-3.3.4-4.9.5-.4.8-1 .9-1.7 3.6-13.9 6.9-27.9 12.1-41.4 2.9-7.4 5.4-14.6 12.4-19.5 1.6-1.1 3.9-2.7 4.2-5.2 2.5-.9 5.3.1 7.7-1.5.9-.6 2.3-1.7 3.1-1 2 1.8 4.6 2.4 6.7 4 .2.2.3.6.2.9-1.6 3-1.1 7.5-5.5 8.6-2.5.6-3.6 2.4-4.8 4.3-1.9.6-4.6.7-5.4 2-3.1 5-7.8 8.3-11.9 12.3-1.2 1.1-1.7 2.9-1 4.4.7 2.4-1.9 3.8-1.8 6-1.4.1-2.2.9-1.9 2.3 1 4.6-1 8.9-2 13-3.4 13.7-5.4 27.7-9 41.3-.1 2.3.4 4.7-.9 6.9-.6.1-1.5.1-1.6.9-.4 3.6-2.7 6.7-2.9 10.4-1.3 2.6-.1 6-2.9 8-3.2 2.6-6.2 6.1-10.8 2.4-.9-3.5 1.2-6.9.6-10.5z"/><path class="prefix__st1" d="M157.3 25.5c1.2-1.9 2.3-3.7 4.8-4.3 4.3-1.1 3.9-5.6 5.5-8.6.1-.3 0-.6-.2-.9-2.1-1.6-4.7-2.2-6.7-4-.8-.8-2.2.3-3.1 1-2.4 1.6-5.2.6-7.7 1.5V10c4-4.3 12.4-3.6 18.1-2.3 2.7.6 6.1 2.8 9.2 5.7 5.1 4.9 9.4 10.6 12.6 16.8 8.6 16.3 14.7 33.8 22.4 50.5 3.5 7.7 6.3 15.7 10.1 23.2 2.8 5.4 4.9 11.2 8.8 16.3 3.9 5.1 4.6 11.6 4.1 18.1-.2 2.3-1.1 4.2-3.6 4.8-1.7.2-4.1-.7-3.5 2.7.1.8-.8 1.7-1.3 2.6-1 .6-2.1.9-3.2.9-1.2.2-2.4.8-3.7.2-1.4.4-2.9.5-4.3.3h-.1c-1-.3-1.6-.2-2.6-.6l-.3-.3-.6-1.1c.5-.6.7-1.4.6-2.1l1-1.1c6.3 4.6 10.1 3.8 13.1-2.5 3.4-.9.9-4.1 2.4-5.9.4-.6.2-1.4-.5-1.8-.1-.1-.3-.1-.5-.2-.7-.3-1.5.1-1.8.8 0 .1-.1.2-.1.3-.1.8-.6 1.6-1.4 1.9h-.6c.2-.9-.4-1.9-1.4-2h-.5l-1-1c-.1-1.3-.1-2.6-.2-4 2.1.8 4.3 1.6 6.5 2.2 2.2.5 4-.7 3.1-2.9-1.5-3.6-2.7-7.3-5.1-10.4-.2-.5-.6-.8-1.1-.9-.3-2.6-1.5-5.1-3.5-6.8-.9-.9-1.6-2.1-1.9-3.3-7.3-20.1-16.9-39.2-24.5-59.2-.5-1.4-1.3-3.6-3.7-3.5.7-2.2.4-4.6-.8-6.5-3-4.9-6.8-9.2-11.1-13-2-1.8-3.7-4.1-6.6-2.6-2.5 1.3-.6 3.9-1.1 5.9-1.1-.1-2.6.6-3.3-.4-2.2-3.2-4.8-1.4-7.1-.5-2.5.9-1.3 3.3-1.3 5.2h-1.4l-.9-3.9v-4.1z"/><path class="prefix__st2" d="M105.1 135.3c4.6 3.7 7.6.3 10.8-2.4.3 1.6-2 3.8.8 4.7 2.6.8 4.5-.3 5.7-2.8.4-.7.4-1.6.7-2.4 2.6-6.6 1.9-13.9 4.1-20.6.9-2.7 1-5.7 3.5-7.6 1.2 2.3 1.3 5 .2 7.4-.4 1-1.2 2.1.4 2.8-.2 1.4.2 2.9-.8 4.1-.3.2-.8.3-.8.5-.2 5.9-1.8 11.6-2.7 17.4-.3 1 .3 2 1.3 2.3.2.1.4.1.6.1 1.4.1 3.7-.1 3.7-1.5.1-5 4.5-10-.2-14.9.2-.1.5-.2.8-.3 2.7-.1 4.4-1.1 4.1-4.2-.1-1.2.7-1.8 1.8-2 .6.8.6 2.1 1.9 2.3.2-.4.3-.8.4-1.2 3.9-.1 6.6-2.6 9.7-4.3l.5.4-.5-.5-.1-2h1c8.9-3.4 15.8-3.9 21.4-1-7.2.8-13.8.1-19.7 3.1 8.2 1.3 16.7.3 24.3-3 2.2 1.4 4.7 1.4 7.1 1.8.5.9 1.3.9 2.1.8h1.9c1.1 1.3 2.1 1.3 3-.1 1.5.6.8 1.5.3 2.4l-2.3.4c-2.9-.4-5.7-1-8.5-1.7-3.3-1.1-5.8.1-8.4 1.7-2.4 1.1-5.1 1.6-7.7 1.5-6.8-.2-13.5.6-20.1 2.4-4.1 1.1-6.3 3.3-7.4 6.9-1.4 4.8-2.4 9.6-3.2 14.5-1.2 8-6.2 11.7-13 14.3-2.6 1.1-5.6 1.2-8.3.3-1.8-.6-3.9-.3-7-2.2-1.7-1.1-1.9-3.6-2.1-3.9-.3-1.3-.6-2.7-1.1-4-.4-3.2-2.6-6.9 1.8-9.5zM221 130.2c.1 1.3.1 2.6.2 4-1 .3-2.7.4-2.3 1.7.3 1.1 2 1.4 3.3 1.4 0 .5 0 1 .1 1.5 1.2 4.7.4 5.7-4.4 5.2-1.6-.2-3.2-1.2-4.4.6l-1 1.1c-.9 0-1.6.2-2 1.1-.7 0-1.4-.2-2-.7-3.5-3.7-5-8.2-5.3-13.2.2-.2.6-.6.6-.7-1.5-4.1-2.7-8.4-4.7-12.2-.7-1.4-1.2.5-1.5 1.3-2.7-4.4-3.1-9.5-4.5-14.3.5-2.8-.8-5.3-1.2-8-.2-1.4-.3-2.6-2.1-2.5.1-1.8-.1-3.3-2.2-3.9-.2-1.7-.5-3.3-2.4-4-.7-.5-.8-1.2-.9-1.9l.1-.1c1.7-1.8.4-3.9.7-5.9 1.6-.2 3.3-.2 3.1 2-.4 3.8 2 5.4 5.4 6.4-1.4.9-3.5.1-2.9 2.3.3 1.2 1.1 2 2.6 1.6.8-.2 1.6-.5 2.3-.7.9.4 1 1.1 1 1.9-2.8 3-2.2 6.3-.9 9.7 3.2 8.3 8.2 15.8 10.7 24.4.5 1.9 1.4 2.9 3.5 2.5 4.2 1.7 3.6 6.3 5.5 9.5.7-2.2 1.9-5.3 1-6.2-3.7-3.8-3.5-8.8-4.6-13.3-.7-3.1-2.8-5.7-2.4-9 .7-.1 1.3.3 1.7.8 3.1 5.9 6.4 11.8 9.9 17.6z"/><path class="prefix__st4" d="M203.2 132.8c.3 5 1.7 9.5 5.3 13.2-3.5-.8-4.7-4-5.6-6.7-2.8-8.5-6.7-16.4-10.2-24.6.5-.9 1.1-1.8-.3-2.4l-3 .1h-1.9c-.4-1.2-.6-2.7-2.1-.8-2.4-.4-4.9-.4-7.1-1.8 1.3 0 2.4-.7 3.1-1.8l1.1.3.3.9.6-.6c2.8-.3 4.8 1.9 7.5 2.5-4.3-5.3-7.5-11.6-9.2-18.2.4-1 1.2-1.1 2.1-1.2 0 .1.1.3.2.4 0 .1.2.1.3.1l-.4-.4c-.6-2-1.4-3.9-1.5-5.9 1.5-1.6 1.3 1.1 2.2.9.1.7.2 1.5.9 1.9.6 1.5.2 3.5 2.4 4-.1 1.6.7 3.2 2.2 3.9.6 2.1 1.4 4 1.4 6.3 0 1.6.2 3.3 1.9 4.2 1.4 4.8 1.9 9.9 4.5 14.3 1.2 3.8 1.8 8.3 5.3 11.4z"/><path class="prefix__st0" d="M149.8 9.9v.2c-.3 2.6-2.6 4.1-4.2 5.2-6.9 4.8-9.5 12.1-12.4 19.5-5.2 13.5-8.5 27.5-12.1 41.4-.1.7-.4 1.3-.9 1.7h-.8c2-10.7 4.7-21.3 8-31.8 3.2-9.7 6-19.7 12.6-27.9.9-1 1.9-1.8 3-2.6 1-.9.8-3.4 4.1-5.2.8-.4 1.7-.5 2.7-.5z"/><path class="prefix__st4" d="M119.3 77.8h.8c.1 1.6-.1 3.3-.4 4.9-3.7 11.9-6 24.3-10.2 36.1-.8 2.2-1.5 4.4-3.8 5.5 5.2-14 8.7-28.4 12.3-42.8.3-1.3.8-2.5 1.3-3.7zM105.1 135.3c-4.4 2.6-2.2 6.2-1.4 9.6.4 1.3.8 2.6 1.1 4-3.1-1.9-3.4-5.6-3.2-8.7.3-5.3 1.7-10.6 4-15.3.7 3.5-1.4 6.9-.5 10.4zM173.5 115.1c2.6-1.7 5.1-2.8 8.4-1.7 2.8.8 5.6 1.3 8.5 1.7-.8.6-1.8.9-2.8.7-4.7-1.5-9.4-1-14.1-.7zM226.7 148.2c.5-.9 1.4-1.8 1.3-2.6-.6-3.4 1.9-2.5 3.5-2.7 0 1.4-.3.9-1.8 2.6-.8 1.2-1.8 2.1-3 2.7zM210.4 146.7c.4-.9 1.2-1.1 2-1.1.1.8-.1 1.5-.6 2.1-.8.2-1.1-.4-1.4-1z"/><path class="prefix__st0" d="M184.3 86.6c-.9.2-.7-2.5-2.2-.9-1.1-1.1-.8-3.1-2.3-4l-.4-2.1c1.5-2 .3-3-1.5-3.7-2.6-6.4-5.2-12.9-7.7-19.3-1.8-4.6-4.8-7.4-10.1-7.2.5-1.5 2.7-1.2 3.1-2.9-1.4-.6-3 .3-4.3-.7-3.5-2.6-6.4-1-9.2 1.2-1.6-.3-3-1-4.2-2-2-3.8-2.6-3.9-4.7-1.3v.3l-1.9.1c-.6-1.5-.2-3.3 1-4.4 4.1-4 8.8-7.3 11.9-12.3.8-1.3 3.6-1.3 5.4-2 0 1.3.1 2.7.1 4-.9.4-.9 1.2-.9 2-1.6 3.2-1.2 7 1.1 9.7.1-2.6-.1-5.2 0-7.7h2c.7 0 1.3 0 2-.1 3.4-.4 6.1.1 8.5 3.4 2.1 3.2 4.8 5.9 7.9 8-1.4 1.9-4.5 3.2-3.3 6 1.8 4.2 2.7 8.8 5 12.6 2.1 3.7 2.6 7.5 3.3 11.4h-.9c0-1.4-.3-2.6-2-3.1 0 1.6.5 2.7 1.9 3.1.1.8-.1 1.7.6 2.3.6-.7.3-1.6.4-2.4 1.7.9 1 2.6 1.2 4-1.7 2.7 1.1 5.2.4 7.9l-.2.1z"/><path class="prefix__st0" d="M138.9 44.1l1.9-.1c.6 2 .1 3.9-.2 5.9-1.1 9.1-3.7 18-4.6 27.2-2.5 8.9-4.7 17.9-5.2 27.2-2.6 1.9-2.6 5-3.5 7.6-2.3 6.7-1.5 14-4.1 20.6-.3.8-.4 1.6-.7 2.4-1.1 2.4-3.1 3.6-5.7 2.8-2.8-.9-.5-3.1-.8-4.7 2.8-2 1.6-5.5 2.9-8 3.9-2.8 4.1-7 4.5-11.2 1.3-2.2.8-4.6.9-6.9 2.1-.2 1.9-2.1 2.3-3.4 5.2-15.5 7.6-31.7 10.6-47.8.3-1.7 2.3-3.7 0-5.5-.2-2.3 2.4-3.7 1.7-6.1z"/><path class="prefix__st2" d="M137.1 50.2c2.3 1.8.3 3.8 0 5.5-3 16-5.4 32.2-10.6 47.8-.4 1.3-.2 3.2-2.3 3.4 3.6-13.6 5.6-27.6 9-41.3 1-4.1 3-8.4 2-13-.2-1.5.5-2.3 1.9-2.4z"/><path class="prefix__st0" d="M123.3 113.7c-.4 4.2-.7 8.4-4.5 11.2.1-3.7 2.5-6.8 2.9-10.4.1-.7 1-.7 1.6-.8z"/><path class="prefix__st5" d="M221 130.2c-3.6-5.8-6.8-11.8-9.9-17.8-.4-.6-1-.9-1.7-.8l-.1.1c.1-1.2.2-2.4-1.3-3-.7-1.6-1.4-3.1-2-4.7 1.1-1.3-.4-1.1-.9-1.6l-7.3-19.3c.1-4-2.6-7-3.5-10.6-.5-2.7-1.4-5.4-2.5-8-1.2-2.5-1.9-5.3-2.9-7.9-1.1-2.8-3.4-5.6-3.1-8.2.4-3-1.9-4.5-2.2-6.9.3-.9 1.8-1 1.5-2.3-3.9.3-7.1-3-13.9-10.1.4-2-1.4-4.6 1.1-5.9 2.9-1.5 4.6.8 6.6 2.6 4.3 3.7 8.1 8.1 11.1 13 1.3 1.9 1.6 4.3.8 6.5-.1 0-.3.1-.4.1-.1 0-.1.2-.1.3l.4-.5c2.4-.1 3.1 2.1 3.7 3.5 7.6 20 17.1 39.1 24.5 59.2.4 1.2 1 2.4 1.9 3.3 2 1.8 3.2 4.2 3.5 6.8.1.5.6.9 1.1.9 2.4 3.1 3.6 6.9 5.1 10.4.9 2.2-.9 3.4-3.1 2.9-2-.4-4.2-1.1-6.4-2z"/><path class="prefix__st4" d="M171.3 29.1c6.8 7.1 10.1 10.4 13.9 10.1.3 1.3-1.2 1.4-1.5 2.3l-2.8 3.1-2.9.1c-3.1-2.1-5.8-4.8-7.9-8-2.3-3.3-5-3.8-8.5-3.4-.7.1-1.3 0-2 .1.1-1.8-1.2-4.2 1.3-5.2 2.3-.9 4.8-2.7 7.1.5.7 1 2.2.3 3.3.4zM213.5 144.6c1.2-1.9 2.9-.8 4.4-.6 4.9.5 5.7-.5 4.4-5.2-.1-.5-.1-1-.1-1.5h1.9c.2.1.4.1.6 0 .3 1.7.5 3.4 1.8 4.7-2.9 6.4-6.7 7.2-13 2.6z"/><path class="prefix__st6" d="M226.6 142c-1.3-1.3-1.5-3-1.8-4.7.8-.3 1.3-1.1 1.4-1.9.1-.8.7-1.3 1.5-1.2.1 0 .2 0 .3.1.7.1 1.2.8 1.1 1.5 0 .2-.1.3-.2.5-1.4 1.6 1 4.9-2.3 5.7z"/><path class="prefix__st4" d="M222.2 137.3c-1.3 0-3-.3-3.3-1.4-.4-1.3 1.3-1.4 2.3-1.7l1 1v2.1zM156.5 31.5c0-.8 0-1.6.9-2l.9 3.9h-.6c-1.1-.3-1.1-1.1-1.2-1.9z"/><path class="prefix__st2" d="M222.2 137.3v-2.1c1-.1 1.8.6 1.9 1.5v.5l-1.9.1z"/><path class="prefix__st6" d="M225.6 119.1c-.5 0-1-.4-1.1-.9.5 0 .9.4 1.1.9z"/><path class="prefix__st4" d="M149.8 47c2.8-2.2 5.7-3.8 9.2-1.2 1.3 1 2.9.1 4.3.7-.5 1.6-2.6 1.4-3.1 2.9-4.1 2.6-5.9 6.3-6.8 11.1-1.1 6.5-2.9 12.9-4.4 19.3-1.3 5.5 2.9 9.7 8.5 8.4 1-.2 2-.8 2.9-.6 5 1.2 9.7-2 14.7-.8 1.9.4 3-1 4.3-2 1.7 1.9-.6 4 .2 5.9l-1.9.4c-.2-.9 0-1.6-1.6-1.4-4.2.5-8.3 1.1-12.5 1.9-3.1-.6-6.2 0-8.9 1.7l.1-.4c-.8-1.9-2.2-2.1-3.9-1.4-.4-.7-.1-1.8-1.1-2-.7-.1-1.2.5-1.1 1.2.1 2.8-1.5 5.5-.6 8.3l-.1 1.8c-2.3 2.9-3.6 6.5-3.7 10.3l.1-.1-1 1.1c-.7.4-1.1 1.2-.9 2-1.3.8-.9 2-.8 3.1-.1.4-.2.8-.4 1.2-1.2-.2-1.2-1.5-1.9-2.3v-1.8c-.1-1.9 1.6-2.9 2.1-4.5.6-2.4.6-2.4-1.7-4-.6-.4-.8-1.1-.5-1.8.5-1.4 1.2-2.7 2.1-3.9 2.4-3.1 2.2-7.2 4.5-10.4-2.2-2.6-1.1-6-2.1-8.8 2.2-10.6 3.7-21.3 7-31.6.1-1.1-.5-1.6-1-2.3z"/><path class="prefix__st5" d="M149.8 47c.5.7 1.1 1.2.8 2.2-3.3 10.3-4.7 21-7 31.6-.4.3-.9.6-1.1.9-2.4 7.1-2.5 14.8-5.2 21.9-.6 1.5.3 2.5.9 3.6-1.6 1.7-.3 4-1 5.9-2.4 2.5-3.3 5.7-3.9 9-.3 0-.5.1-.8.3-2.8-.3-1.8-2.4-1.9-3.9 1-1.2.6-2.7.8-4.1 1.8-2 2.7-4.6 2.5-7.3-.5-7.2 1.5-14 2-21 .2-3 1.8-6.1 0-9.1.9-9.2 3.5-18.1 4.6-27.2.2-2 .8-3.9.2-5.9v-.3c1.9-.7 2.8 2 4.7 1.3 1.4 1.2 2.9 1.8 4.4 2.1z"/><path class="prefix__st3" d="M154.7 92.9l-.1.4c.5 1.3 1.7 1.8 2.7 2.6.9-3.2 2.7-4.5 3.7-2.8 1.7 2.8 4 3.9 7 4.4 1.3.2 1.7 1.4 1.8 2.6-2.5-.2-5 .3-7.2 1.4-4 2.4-9.4 3.6-10.6 9.3h-1l-3 .1-.1-.1-.2-5c.6-.1 1-.7.9-1.3-.3-1.3.5-2.8-1-3.8l.1-1.8c2.5-1.3 1.5-4.2 2.8-6.1l4.2.1z"/><path class="prefix__st0" d="M152.2 110.7c1.2-5.7 6.5-6.9 10.6-9.3 2.2-1.1 4.7-1.6 7.2-1.4l1 .7c1.7 4.1 4.3 7.1 9.2 7l1.1.3c-.6 1.1-1.8 1.8-3.1 1.8-7.7 3.3-16.1 4.3-24.3 3 6-3 12.6-2.3 19.7-3.1-5.5-2.9-12.5-2.4-21.4 1z"/><path class="prefix__st1" d="M130.8 118.5c.1 1.5-.9 3.6 1.9 3.9 4.7 4.9.3 9.9.2 14.9 0 1.4-2.3 1.6-3.7 1.5-1 0-1.9-.8-1.9-1.8 0-.2 0-.4.1-.6 1-5.8 2.5-11.5 2.7-17.4-.1-.1.4-.3.7-.5zM136 77.1c1.8 3 .2 6.1 0 9.1-.5 7-2.5 13.8-2 21 .1 2.7-.8 5.3-2.5 7.3-1.6-.7-.8-1.8-.4-2.8 1-2.4.9-5.1-.2-7.4.5-9.3 2.6-18.3 5.1-27.2z"/><path class="prefix__st0" d="M148 105.8l.2 5-.4.5.5-.5 3-.1.1 2-.1.1c-3.1 1.8-5.9 4.3-9.7 4.3-.1-1.1-.5-2.3.8-3.1 1-.4 1-1.2.9-2 .5-.1.9-.6 1-1.1l-.1.1c2.2-1 2-3.9 3.8-5.2zm-1.9 7l-.3-.4c-.1.1-.3.2-.3.3-.1.4.1.6.4.4.2.1.2-.1.2-.3z"/><path class="prefix__st1" d="M133.4 122.2c.6-3.3 1.5-6.5 3.9-9l2 1.1v1.8c-1.1.2-1.9.7-1.8 2 .3 3-1.4 4-4.1 4.1z"/><path class="prefix__st0" d="M185.3 111.6c1.5-1.9 1.7-.4 2.1.8-.9.1-1.6.1-2.1-.8zM189.3 112.4l3-.1c-.9 1.4-1.9 1.4-3 .1zM151.4 112.7l.5.5-.5-.5zM180.9 44.6l2.8-3.1c.3 2.4 2.5 3.9 2.2 6.9-.3 2.6 2 5.4 3.1 8.2 1 2.6 1.6 5.4 2.9 7.9 1.1 2.6 1.9 5.2 2.5 8 .9 3.6 3.6 6.6 3.5 10.6l-1.5-1-.4-1.3c-.2.1-.3.3-.5.4.2.4.5.7.7 1 .1 1.3.3 2.6.6 3.9 2.8 8.5 5.9 16.9 7.5 25.8-1.9.2-2.2-1.3-2.4-2.5-.8-5.4-3.9-10-5.2-15.2 0-.8-.2-1.6-1-1.9-.6-3.7-1.6-7.4-2.9-10.9-1.4-3.6-3.4-7.2-4.5-10.7-2.4-7.3-5.2-14.4-7.3-21.8-.5-1.7-.9-2.9-.1-4.3z"/><path class="prefix__st3" d="M180.9 44.6c-.8 1.4-.4 2.7 0 4.2 2.1 7.4 4.9 14.5 7.3 21.8 1.2 3.5 3.1 7.1 4.5 10.7 1.3 3.5 2.3 7.2 2.9 10.9-.8.2-1.6.5-2.3.7-1.5.5-2.2-.3-2.6-1.6-.6-2.2 1.5-1.4 2.9-2.3-3.5-1-5.8-2.6-5.4-6.4.2-2.2-1.5-2.2-3.1-2v-.1c0-.9-.1-1.7-1.1-2v.1c-.2-1.4.6-3.1-1.2-4-.7-3.9-1.2-7.7-3.3-11.4-2.2-3.8-3.2-8.4-5-12.6-1.2-2.8 2-4.1 3.3-6h3.1z"/><path class="prefix__st4" d="M204.3 111.9c-1.6-8.9-4.7-17.3-7.5-25.8-.4-1.3-.6-2.6-.6-3.9l.2-.2 1.5 1 7.3 19.3c-.1.7.3 1.3.9 1.6.7 1.6 1.4 3.1 2 4.7.2 1.1-.2 2.4 1.3 3l.1-.1c-.4 3.3 1.7 6 2.4 9 1 4.5.8 9.5 4.6 13.3.9 1-.3 4-1 6.2-1.9-3.2-1.3-7.8-5.5-9.5-.2-1.8.2-3.9-.6-5.3-2.5-4.1-2.9-9-5.1-13.3z"/><path class="prefix__st3" d="M204.3 111.9c2.1 4.3 2.6 9.3 5.1 13.5.8 1.4.4 3.5.6 5.3-2 .4-2.9-.6-3.5-2.5-2.5-8.6-7.5-16.1-10.7-24.4-1.3-3.4-1.9-6.7.9-9.7 1.4 5.2 4.4 9.8 5.2 15.2.2 1.3.6 2.7 2.4 2.6zM203.2 132.8c-3.5-3.1-4.1-7.6-5.6-11.7.2-.8.8-2.7 1.5-1.3 2 3.9 3.2 8.1 4.7 12.2 0 .2-.4.6-.6.8z"/><path class="prefix__st6" d="M193.1 106.9c-1.8-.9-2-2.6-1.9-4.2.1-2.2-.8-4.2-1.4-6.3 1.8-.1 1.9 1.1 2.1 2.5.4 2.6 1.6 5.2 1.2 8zM184.5 86.5c.7-2.7-2-5.2-.4-7.9v-.1c0 .8.1 1.7 1.1 2v.1c-.3 2 1 4.1-.7 5.9z"/><path class="prefix__st6" d="M189.8 96.4c-1.5-.8-2.3-2.3-2.2-3.9 2 .6 2.3 2.1 2.2 3.9zM187.6 92.5c-2.2-.5-1.8-2.5-2.4-4 1.9.7 2.2 2.3 2.4 4z"/><path class="prefix__st5" d="M181.2 108l-1.1-.3c-.7-1.6-2.3-2.4-3.2-3.7-.3-3.3-.9-6.4-3.1-9 1.3-1.3 3.4-1.8 3.8-3.9l1.9-.4c.4.9 1.1 1.6 2 2 1.8 6.7 4.9 12.9 9.2 18.2-2.7-.6-4.7-2.8-7.5-2.5-.3-.2-.6-.2-.9-.2l-1.1-.2z"/><path class="prefix__st3" d="M181.5 92.7c-.9-.4-1.6-1.2-2-2-.8-1.9 1.5-4-.2-5.9.1-1 .3-2.1.4-3.1 1.5.9 1.2 2.8 2.3 4 .1 2.1.9 4 1.5 5.9-.8.1-1.6.1-2 1.1z"/><path class="prefix__st0" d="M182.3 108.3c.3 0 .6.1.9.2l-.6.6-.3-.8z"/><path class="prefix__st3" d="M183.6 91.6l.4.4c-.1 0-.2 0-.3-.1 0-.1-.1-.2-.1-.3z"/><path class="prefix__st1" d="M156.5 31.5c.1.8.2 1.7 1.2 2-.1 2.6 0 5.1 0 7.7-2.4-2.8-2.9-6.6-1.2-9.7z"/><path class="prefix__st4" d="M145.6 45c-1.9.7-2.9-1.9-4.7-1.3 2.1-2.6 2.7-2.4 4.7 1.3z"/><path class="prefix__st3" d="M179.4 79.6c-.9-1-1.4-2.4-1.5-3.7 1.8.7 3 1.7 1.5 3.7z"/><path class="prefix__st6" d="M182 74.7c-1.5-.4-2-1.5-1.9-3.1 1.6.4 1.9 1.6 1.9 3.1zM182 74.6c.3.1.6.1.9 0-.1.8.2 1.6-.4 2.4-.6-.7-.4-1.5-.5-2.4z"/><path class="prefix__st2" d="M209.4 111.6c-1.5-.5-1.1-1.9-1.3-3 1.5.6 1.4 1.8 1.3 3zM206.1 103.9c-.6-.3-1-.9-.9-1.6.5.5 2 .3.9 1.6z"/><path class="prefix__st1" d="M191 45.3l-.4.5c0-.1 0-.2.1-.3 0-.1.2-.2.3-.2zM138.3 107.3c-.6-1.1-1.5-2.1-.9-3.6 2.7-7.1 2.8-14.8 5.2-21.9.1-.4.7-.6 1.1-.9 1.1 2.9-.1 6.3 2.1 8.8-2.2 3.2-2 7.3-4.5 10.4-.9 1.2-1.6 2.5-2.1 3.9-.3.6-.1 1.4.5 1.8 2.3 1.6 2.3 1.6 1.7 4-.1-2.2-1-3.1-3.1-2.5z"/><path class="prefix__st6" d="M173.8 95c2.2 2.6 2.8 5.7 3.1 9-2.4-.4-3.6-2.9-5.9-3.3l-1-.7c-.1-1.2-.5-2.4-1.8-2.6-3-.5-5.3-1.5-7-4.4-1.1-1.7-2.9-.5-3.7 2.8-1-.8-2.3-1.2-2.7-2.6 2.6-1.7 5.8-2.3 8.9-1.7-.1 2.3 1.3 3.5 3.2 3.3 2.2-.1 4.5.6 6.9.2zm-2.5 2.5c.1.1.2.3.3.3.3-.1.5-.2.7-.3-.1-.1-.2-.3-.3-.3-.3 0-.5.1-.7.3z"/><path class="prefix__st1" d="M173.8 95c-2.4.4-4.7-.3-7.1-.1-1.9.2-3.3-1.1-3.2-3.3 4.1-.8 8.3-1.4 12.5-1.9 1.7-.2 1.5.5 1.6 1.4-.4 2.1-2.5 2.6-3.8 3.9z"/><path class="prefix__st6" d="M148 105.8c-1.8 1.3-1.5 4.2-3.8 5.2.1-3.7 1.4-7.3 3.7-10.3 1.5.9.7 2.5 1 3.8-.5.2-.8.7-.9 1.3z"/><path class="prefix__st0" d="M138.3 107.3c2.1-.6 3 .4 3.1 2.4-.5 1.6-2.2 2.6-2.1 4.5l-2-1.1c.7-1.8-.7-4.1 1-5.8z"/><path class="prefix__st6" d="M150.7 92.8c-1.2 1.9-.3 4.8-2.8 6.1-.9-2.8.6-5.5.6-8.3 0-.7.5-1.4 1.1-1.2 1 .2.7 1.3 1.1 2v1.4zM150.7 92.8l.1-1.4c1.7-.6 3.1-.4 3.9 1.4h-4zM143.3 112c.1.9.1 1.7-.9 2-.2-.8.2-1.6.9-2zM144.3 110.9c-.1.5-.5 1-1 1.1l1-1.1z"/><path class="prefix__st0" d="M148 105.8c0-.6.4-1.1.9-1.3.1.6-.3 1.1-.9 1.3z"/><path class="prefix__st4" d="M171 100.7c2.4.4 3.5 3 5.9 3.3 1 1.3 2.6 2.1 3.2 3.7-4.8 0-7.4-2.9-9.1-7z"/><path class="prefix__st3" d="M146.1 112.8c0 .1 0 .4-.1.4-.3.2-.5 0-.4-.4 0-.1.2-.2.3-.3l.2.3zM148.3 110.9l-.5.5.5-.5z"/><path class="prefix__st4" d="M196.2 82.2c-.3-.3-.5-.7-.7-1 .2-.1.3-.3.5-.4l.4 1.3-.2.1z"/><path class="prefix__st0" d="M185.2 80.6c-1-.3-1.1-1.1-1.1-2 1 .3 1.1 1.1 1.1 2z"/><path class="prefix__st3" d="M171.3 97.5c.2-.1.5-.2.7-.3.1 0 .2.2.3.3-.2.1-.5.2-.7.3-.1 0-.2-.2-.3-.3z"/></svg>