<svg class="icon-svg icon-logo" width="120" height="120" viewBox="0 0 120 120" fill="none" xmlns="http://www.w3.org/2000/svg">
  <path class="xyz-nested" style="--xyz-translate-y: -50px;" d="M111.893 84.8765C111.913 84.6473 111.923 84.4161 111.923 84.1836V33.4212C111.923 30.563 110.398 27.922 107.923 26.493L65.5 2V57.9202L111.893 84.8765Z" fill="url(#paint0_linear)"/>
  <path class="xyz-nested" style="--xyz-translate-x: 44px; --xyz-translate-y: 25px;" d="M16.1439 93.5043L55.9615 116.493C58.4367 117.922 61.4863 117.922 63.9615 116.493L103.316 93.7715L59.5 68.3126L16.1439 93.5043Z" fill="url(#paint1_linear)"/>
  <path class="xyz-nested" style="--xyz-translate-y: 0" d="M53.5 2.53293L12 26.493C9.52479 27.922 8 30.563 8 33.4212V84.1836C8 84.2413 8.00062 84.2989 8.00186 84.3565L53.5 57.9203V2.53293Z" fill="url(#paint2_linear)"/>
  <defs>
    <linearGradient id="paint0_linear" x1="83.5" y1="72.54" x2="114.5" y2="18.54" gradientUnits="userSpaceOnUse">
      <stop stop-color="rgba(var(--red-rgb), 1)"/>
      <stop offset="1" stop-color="rgba(var(--red-rgb), 0)"/>
    </linearGradient>
    <linearGradient id="paint1_linear" x1="38" y1="71.04" x2="72" y2="128.54" gradientUnits="userSpaceOnUse">
      <stop stop-color="rgba(var(--yellow-rgb), 0)"/>
      <stop offset="1" stop-color="rgba(var(--yellow-rgb), 1)"/>
    </linearGradient>
    <linearGradient id="paint2_linear" x1="60" y1="31.54" x2="-2.5" y2="33.54" gradientUnits="userSpaceOnUse">
      <stop stop-color="rgba(var(--green-rgb), 0)"/>
      <stop offset="1" stop-color="rgba(var(--green-rgb), 1)"/>
    </linearGradient>
  </defs>
</svg>
