<svg class="icon-svg icon-html" width="64" height="64" viewBox="0 0 64 64" fill="none" xmlns="http://www.w3.org/2000/svg">
  <path d="M56.378 5L51.8795 55.3941L31.6588 61L11.4937 55.402L7 5H56.378Z" fill="#E44D26"/>
  <path d="M31.689 56.7151L48.0283 52.1852L51.8726 9.12109H31.689V56.7151Z" fill="#F16529"/>
  <path d="M22.9442 21.4844H31.689V15.3028H31.6676H16.1884L16.3364 16.9612L17.8557 33.996H31.689V27.8145H23.5091L22.9442 21.4844Z" fill="#EBEBEB"/>
  <path d="M24.3373 37.0869H20.992H18.1319L18.998 46.7929L31.6605 50.3082L31.689 50.3003V43.8688L31.6619 43.876L24.7774 42.0171L24.3373 37.0869Z" fill="#EBEBEB"/>
  <path d="M31.6676 33.996H39.2796L38.562 42.0131L31.6676 43.874V50.3052L44.3402 46.793L44.4332 45.7486L45.8858 29.4744L46.0366 27.8145H44.3709H31.6676V33.996Z" fill="white"/>
  <path d="M31.6676 21.4693V21.4844H46.5792H46.5991L46.7231 20.095L47.0048 16.9612L47.1526 15.3028H31.6676V19.1421V21.4693Z" fill="white"/>
</svg>
