<svg class="icon-svg icon-twitter" xmlns="http://www.w3.org/2000/svg" width="16" height="16" viewBox="0 0 16 16" fill="var(--icon-color, var(--primary-900))">
  <path d="M15.9693 3.046C15.3793 3.30533 14.7493 3.482 14.086 3.56266C14.762 3.15533 15.282 2.51333 15.528 1.74733C14.894 2.11733 14.1913 2.38666 13.4433 2.53666C12.846 1.89733 11.9947 1.49733 11.0493 1.49733C9.238 1.49733 7.76933 2.966 7.76933 4.77533C7.76933 5.03533 7.79933 5.28533 7.854 5.52466C5.12733 5.396 2.71067 4.08666 1.09333 2.10733C0.808667 2.58866 0.649333 3.148 0.649333 3.75733C0.649333 4.89733 1.22933 5.89933 2.108 6.488C1.57 6.47066 1.064 6.32266 0.622667 6.07733V6.118C0.622667 7.708 1.75133 9.034 3.25333 9.336C2.978 9.41 2.68733 9.45 2.38933 9.45C2.18 9.45 1.97933 9.43 1.77867 9.39266C2.19933 10.6947 3.40867 11.644 4.848 11.6707C3.728 12.55 2.30867 13.074 0.78 13.074C0.52 13.074 0.260667 13.0587 0 13.0293C1.45933 13.9587 3.17867 14.502 5.038 14.502C11.074 14.502 14.3707 9.50466 14.3707 5.178C14.3707 5.03866 14.3707 4.898 14.3607 4.758C15.0013 4.29866 15.5607 3.718 16.0007 3.05933L15.9693 3.046Z"/>
</svg>
