<svg class="icon-svg icon-sandbox" width="32" height="32" viewBox="0 0 32 32" fill="var(--icon-color, var(--primary-900))" xmlns="http://www.w3.org/2000/svg">
<path fill-rule="evenodd" clip-rule="evenodd" d="M0.648622 17.5659C-0.216207 16.7011 -0.216207 15.2989 0.648622 14.4341L14.4341 0.648622C15.2989 -0.216207 16.7011 -0.216208 17.5659 0.648622L31.3514 14.4341C32.2162 15.2989 32.2162 16.7011 31.3514 17.5659L17.5659 31.3514C16.7011 32.2162 15.2989 32.2162 14.4341 31.3514L0.648622 17.5659ZM2.21453 16L16 2.21453L29.281 15.4955C27.6241 15.6492 26.6058 16.1383 25.6443 16.6103L25.6021 16.631C24.514 17.1653 23.5046 17.6609 21.5363 17.6609C19.5571 17.6609 17.9039 16.89 16.1585 16.0543L16.0524 16.0035C14.3685 15.1968 12.5781 14.3391 10.4589 14.3391C8.43671 14.3391 7.25038 14.9028 6.1102 15.4445L5.99389 15.4998C5.07556 15.9352 4.14953 16.3556 2.71505 16.5005L2.21453 16Z"/>
</svg>
